<svg width="35" height="35" viewBox="0 0 35 35" fill="none" xmlns="http://www.w3.org/2000/svg">
<circle cx="17.5" cy="17.5" r="17.5" fill="#FF4848"/>
<path d="M13.8 10.0195V9.01953C13.2477 9.01953 12.8 9.46724 12.8 10.0195H13.8ZM19.8667 10.0195V11.0195C19.8972 11.0195 19.9277 11.0181 19.9582 11.0153L19.8667 10.0195ZM19.8667 19.4532L19.9582 18.4574C19.9277 18.4546 19.8972 18.4532 19.8667 18.4532V19.4532ZM21.2667 24.6983C21.819 24.6983 22.2667 24.2506 22.2667 23.6983C22.2667 23.146 21.819 22.6983 21.2667 22.6983V24.6983ZM11 22.6983C10.4477 22.6983 10 23.146 10 23.6983C10 24.2506 10.4477 24.6983 11 24.6983V22.6983ZM13.8 11.0195H19.8667V9.01953H13.8V11.0195ZM19.9582 11.0153C20.6574 10.9511 21.7036 11.0755 22.5384 11.6063C23.3058 12.0942 24 12.9867 24 14.7363H26C26 12.3351 24.9831 10.7906 23.6116 9.91856C22.3075 9.08938 20.7871 8.93074 19.7752 9.02372L19.9582 11.0153ZM24 14.7363C24 16.4859 23.3058 17.3784 22.5384 17.8664C21.7036 18.3972 20.6573 18.5216 19.9582 18.4574L19.7752 20.449C20.7871 20.542 22.3075 20.3833 23.6116 19.5541C24.9831 18.682 26 17.1375 26 14.7363H24ZM14.8 27V19.4532H12.8V27H14.8ZM14.8 19.4532V10.0195H12.8V19.4532H14.8ZM19.8667 18.4532H13.8V20.4532H19.8667V18.4532ZM13.8 24.6983H21.2667V22.6983H13.8V24.6983ZM13.3333 22.6983H11V24.6983H13.3333V22.6983Z" fill="white"/>
</svg>
