<svg width="28" height="28" viewBox="0 0 28 28" fill="none" xmlns="http://www.w3.org/2000/svg">
<path d="M10 26C10.5523 26 11 25.5523 11 25C11 24.4477 10.5523 24 10 24C9.44772 24 9 24.4477 9 25C9 25.5523 9.44772 26 10 26Z" stroke="white" stroke-width="2" stroke-linecap="round" stroke-linejoin="round"/>
<path d="M21 26C21.5523 26 22 25.5523 22 25C22 24.4477 21.5523 24 21 24C20.4477 24 20 24.4477 20 25C20 25.5523 20.4477 26 21 26Z" stroke="white" stroke-width="2" stroke-linecap="round" stroke-linejoin="round"/>
<path d="M2 5H6L8.68 18.39C8.77144 18.8504 9.02191 19.264 9.38755 19.5583C9.75318 19.8526 10.2107 20.009 10.68 20H20.4C20.8693 20.009 21.3268 19.8526 21.6925 19.5583C22.0581 19.264 22.3086 18.8504 22.4 18.39L24 10H7" stroke="white" stroke-width="2" stroke-linecap="round" stroke-linejoin="round"/>
</svg>
