<svg width="27" height="27" viewBox="0 0 27 27" fill="none" xmlns="http://www.w3.org/2000/svg">
<path d="M19.0157 18.8347V17.4556C19.0157 16.7242 18.7251 16.0226 18.2078 15.5054C17.6906 14.9882 16.9891 14.6976 16.2576 14.6976H10.7415C10.01 14.6976 9.30845 14.9882 8.79122 15.5054C8.27398 16.0226 7.9834 16.7242 7.9834 17.4556V18.8347" stroke="white" stroke-width="2" stroke-linecap="round" stroke-linejoin="round"/>
<path d="M13.4993 11.9395C15.0225 11.9395 16.2573 10.7047 16.2573 9.18144C16.2573 7.6582 15.0225 6.42337 13.4993 6.42337C11.976 6.42337 10.7412 7.6582 10.7412 9.18144C10.7412 10.7047 11.976 11.9395 13.4993 11.9395Z" stroke="white" stroke-width="2" stroke-linecap="round" stroke-linejoin="round"/>
<circle cx="13.5" cy="13.5" r="12.5" stroke="white" stroke-width="2"/>
</svg>
