<svg width="233" height="50" viewBox="0 0 233 50" fill="none" xmlns="http://www.w3.org/2000/svg">
<path d="M47.6714 19.7659C47.4564 18.6816 47.1676 17.6145 46.8072 16.5727C46.1285 14.6078 45.2153 12.7393 44.0888 11.011C42.7757 8.98742 41.188 7.1719 39.375 5.62078C37.3762 3.93698 35.1292 2.59947 32.7206 1.65981C30.3015 0.698843 27.7498 0.147378 25.1627 0.0264234C23.3847 -0.0593696 21.6031 0.0639163 19.8517 0.393936C18.4191 0.659357 17.0142 1.06684 15.6564 1.61081C14.1951 2.18524 12.7881 2.8988 11.4532 3.74238C9.92535 4.71526 8.50525 5.86009 7.21855 7.15617C6.10846 8.28473 5.11086 9.52697 4.24095 10.864C3.62707 11.7882 3.07327 12.7541 2.58324 13.7551C1.67873 15.5925 1.00792 17.5444 0.587708 19.5618C0.361917 20.5803 0.209602 21.6149 0.132034 22.657C0.00812386 23.8202 -0.0286502 24.9916 0.0220436 26.1606C0.119115 27.8583 0.382357 29.5412 0.807688 31.1833C1.17918 32.7835 1.70563 34.3404 2.37898 35.8303C3.5248 38.3115 5.05939 40.5774 6.92 42.5354C8.11609 43.7927 9.4323 44.9201 10.8482 45.9002C13.1273 47.4438 15.6397 48.5785 18.2804 49.2568C20.1733 49.7538 22.1183 50.0035 24.0706 50C24.8563 49.951 25.6419 49.951 26.4276 49.8775C28.1012 49.7204 29.7531 49.3726 31.3535 48.8403C33.5884 48.1144 35.7067 47.0464 37.6387 45.6715C39.1221 44.6352 40.4851 43.4239 41.7005 42.0617C43.186 40.445 44.4497 38.6229 45.4559 36.647C46.3312 34.925 47.0013 33.0984 47.4514 31.2078C47.7595 29.9002 47.9748 28.5709 48.0956 27.2305C48.2017 25.8143 48.2017 24.3917 48.0956 22.9755C48.0328 21.8893 47.8914 20.8276 47.6714 19.7659ZM34.449 43.1316C33.7579 43.8666 32.9852 44.5136 32.147 45.059C30.9833 45.84 29.7078 46.4243 28.3681 46.7904C25.4568 47.5858 22.3812 47.4377 19.5532 46.3657C17.8182 45.6981 16.2309 44.6731 14.8864 43.3521C14.4543 42.9274 14.1008 42.4864 13.6608 42.0372C13.5901 41.9637 13.5194 41.8657 13.4173 41.7432C13.4892 41.7208 13.5628 41.7044 13.6373 41.6942C15.8214 41.6942 18.0369 41.6942 20.221 41.6452C20.6059 41.6452 21.0066 41.6452 21.3759 41.6452C21.7451 41.6452 21.6901 41.5962 21.6665 41.2205C21.5173 41.2205 21.3523 41.2205 21.2109 41.1715C20.605 41.1316 20.0295 40.8814 19.5767 40.461C19.1256 40.0133 18.8583 39.4018 18.8304 38.7541C18.8096 38.2662 18.8254 37.7775 18.8775 37.2922C18.8944 37.2245 18.9181 37.1588 18.9482 37.0962L19.3332 37.3167C19.6474 37.5372 19.9617 37.7659 20.2445 37.9864C21.003 38.5301 21.887 38.8542 22.8057 38.9256C24.2135 39.0655 25.6277 38.7366 26.8439 37.9864C27.3309 37.7013 27.7689 37.3343 28.1403 36.9002C28.1671 36.8699 28.199 36.8449 28.2345 36.8267C28.2494 36.8255 28.2637 36.8204 28.2761 36.8118C28.2885 36.8033 28.2985 36.7915 28.3052 36.7777C28.3385 36.83 28.3625 36.8881 28.376 36.9492C28.5626 37.7566 28.5463 38.6003 28.3288 39.3993C28.2209 39.7981 28.0126 40.1597 27.7253 40.4468C27.438 40.734 27.0822 40.9362 26.6947 41.0327C26.3568 41.1062 26.0269 41.1552 25.6655 41.2042C25.6183 41.3593 25.6655 41.4573 25.8305 41.5308C25.9292 41.5776 26.0362 41.6027 26.1447 41.6043C26.5061 41.6043 26.8675 41.6043 27.1975 41.6043L30.7329 41.6533C31.8337 41.7357 32.9386 41.7439 34.0405 41.6778C34.284 41.6778 34.4961 41.6043 34.7397 41.5553C34.9832 41.5063 35.1011 41.4083 35.1246 41.1797C35.2432 40.5499 35.5546 39.9768 36.0124 39.5463C36.2627 39.3165 36.4246 39.0003 36.4681 38.6561C36.4922 38.4417 36.4922 38.2252 36.4681 38.0109C36.4644 37.9472 36.4383 37.8871 36.3949 37.8419C36.3515 37.7968 36.2937 37.7697 36.2324 37.7659C35.9406 37.7224 35.6711 37.5791 35.4663 37.3588C35.2614 37.1385 35.133 36.8536 35.1011 36.549C34.9632 35.9587 34.9233 35.3483 34.9832 34.7441C35.0304 33.9764 35.0539 33.2169 35.0775 32.4247C35.0775 31.951 35.0775 31.51 35.0304 31.0363C35.0304 30.2196 34.9832 29.4029 34.9832 28.5862C35.0043 28.2356 35.0596 27.8881 35.1482 27.549C35.1715 27.3903 35.2517 27.2466 35.3726 27.1466C35.4935 27.0467 35.6463 26.9979 35.8003 27.01C35.871 27.01 35.9181 27.01 35.9888 27.01C36.0596 27.01 36.1853 26.9365 36.1853 26.8058C36.1887 26.7742 36.1855 26.7421 36.1759 26.7119C36.1663 26.6817 36.1505 26.654 36.1295 26.6307C36.1086 26.6074 36.0831 26.5891 36.0548 26.577C36.0264 26.565 35.9959 26.5595 35.9653 26.5608C35.6746 26.5608 35.3918 26.5608 35.0775 26.5608H33.7105C33.4198 26.5608 33.1291 26.5608 32.862 26.6098C32.8044 26.6147 32.7484 26.6314 32.697 26.6588C32.6499 26.7078 32.5556 26.7813 32.5556 26.8303C32.5642 26.8696 32.5815 26.9062 32.606 26.9374C32.6306 26.9686 32.6617 26.9934 32.697 27.01C32.8374 27.07 32.9818 27.1191 33.1291 27.157C33.2571 27.1741 33.3753 27.2375 33.4629 27.336C33.5505 27.4346 33.602 27.562 33.6083 27.696C33.6555 28.0717 33.734 28.4392 33.7576 28.8149C33.8283 30.3666 33.7576 31.951 33.7576 33.5109C33.7576 34.5726 33.7576 35.6343 33.7026 36.696V36.9247C33.7059 36.9505 33.7043 36.9767 33.6977 37.0017C33.6912 37.0268 33.6799 37.0503 33.6646 37.0709C33.6492 37.0914 33.6301 37.1085 33.6083 37.1213C33.5865 37.134 33.5625 37.1422 33.5376 37.1452C33.1163 37.2184 32.6914 37.2674 32.2649 37.2922C31.8799 37.2922 31.7621 37.1697 31.7385 36.7695C31.7105 36.4981 31.7105 36.2243 31.7385 35.9528C31.821 34.3696 31.821 32.7829 31.7385 31.1997C31.6835 29.9664 31.6599 28.7496 31.6599 27.4919C31.6824 26.814 31.7401 26.1379 31.8328 25.4665C31.8679 25.2261 31.9575 24.9978 32.0941 24.8005C32.2307 24.6031 32.4104 24.4423 32.6184 24.3313C32.865 24.2022 33.1305 24.1166 33.4041 24.0781C33.5936 24.0415 33.7852 24.017 33.9776 24.0046C34.069 23.9906 34.1586 23.966 34.2447 23.9311C34.5511 23.8331 34.6297 23.6861 34.504 23.3104C34.0719 23.3104 33.6398 23.2614 33.2077 23.2614H27.7003C27.3153 23.2614 26.9147 23.2614 26.5454 23.2614C26.3495 23.2616 26.1543 23.2863 25.964 23.3349C25.7519 23.3921 25.7048 23.4656 25.7048 23.6616C25.7048 23.8576 25.799 23.9311 25.964 23.9556C26.3254 24.0291 26.6632 24.0781 27.0246 24.1271C27.1192 24.1559 27.2169 24.1724 27.3153 24.1761C27.5218 24.2007 27.7172 24.2859 27.8786 24.4219C28.04 24.5579 28.1608 24.7389 28.2267 24.9438C28.3763 25.3142 28.4588 25.7101 28.4702 26.1116C28.5185 26.8937 28.4922 27.6789 28.3917 28.4556C28.3917 28.4556 28.3917 28.5046 28.3445 28.5536C28.2974 28.6026 28.2267 28.5046 28.2031 28.4556C27.5551 27.6176 26.6468 27.0401 25.6341 26.8222C24.2686 26.4546 22.8356 26.4546 21.4701 26.8222C20.7523 27.0137 20.0807 27.3586 19.4982 27.8349C19.3568 27.9655 19.2389 28.1125 19.0425 28.2841C19.0028 28.1997 18.9788 28.1082 18.9718 28.0145C18.9718 27.4184 18.9011 26.8467 18.9011 26.2586C18.9172 25.8815 18.9806 25.5081 19.0896 25.1479C19.1576 24.9306 19.2642 24.7283 19.4039 24.5518C19.5707 24.3323 19.8129 24.1888 20.0795 24.1516L21.3994 23.9066C21.5408 23.9066 21.6901 23.8576 21.6901 23.6616C21.7095 23.5718 21.6951 23.4778 21.6498 23.3988C21.6045 23.3198 21.5317 23.2618 21.4466 23.2369C21.2452 23.1703 21.0368 23.1292 20.8259 23.1144C20.0632 23.0776 19.2988 23.1022 18.5397 23.1879C18.3075 23.2164 18.0742 23.2327 17.8405 23.2369C16.7406 23.2369 15.6328 23.2369 14.525 23.2859C14.2395 23.3141 13.9515 23.2721 13.6844 23.1634C13.7551 23.0654 13.8022 22.9674 13.8494 22.9184C14.8199 21.7863 15.948 20.8118 17.1962 20.0273C18.7584 19.0603 20.4882 18.422 22.2872 18.1489C23.2055 17.9627 24.1412 17.8859 25.0762 17.9202C26.2674 17.9714 27.4475 18.18 28.5881 18.5409C29.608 18.8881 30.5965 19.3281 31.5421 19.8558C32.8755 20.6151 34.0654 21.6195 35.0539 22.8204C35.9055 23.8551 36.6457 24.9834 37.2616 26.1851C37.8399 27.3054 38.238 28.5165 38.4401 29.7704C38.6981 31.2216 38.7641 32.7026 38.6365 34.1724C38.4471 36.4329 37.7002 38.6044 36.4681 40.4773C35.914 41.4532 35.2348 42.3461 34.449 43.1316ZM15.6328 27.9247C15.6328 28.9864 15.6799 30.0481 15.6799 31.1098C15.6799 32.1715 15.6799 33.1924 15.6328 34.2541C15.6275 34.4021 15.6117 34.5495 15.5857 34.6951C14.5607 34.7809 13.5309 34.7809 12.5059 34.6951C12.5239 34.5957 12.5475 34.4976 12.5766 34.4011C13.2052 32.6452 13.8258 30.8648 14.4543 29.1089C14.5785 28.7626 14.7228 28.4244 14.8864 28.0962C14.9613 27.947 15.0596 27.8118 15.1771 27.696C15.2241 27.6488 15.2832 27.6166 15.3473 27.6036C15.4115 27.5905 15.4779 27.5971 15.5385 27.6225C15.6564 27.6715 15.6328 27.794 15.6328 27.9247ZM15.3657 26.4873L13.9987 26.3403C13.7787 26.3403 13.5666 26.2423 13.3466 26.2178C13.1266 26.1933 13.0637 26.2178 13.0323 26.4628V26.7078C13.0368 26.7759 13.0633 26.8404 13.1075 26.8908C13.1517 26.9412 13.2111 26.9746 13.2759 26.9855C13.3334 26.9904 13.3895 27.0071 13.4409 27.0345C13.5328 27.0616 13.6135 27.1195 13.6703 27.1993C13.7272 27.2791 13.757 27.3762 13.7551 27.4755C13.7675 27.7237 13.7188 27.971 13.6137 28.1942C12.972 29.5201 12.4462 30.9031 12.0424 32.3267C11.7517 33.1924 11.3903 34.0581 11.0603 34.9156C11.0317 35.0213 10.9828 35.1199 10.9167 35.2055C10.8505 35.2911 10.7685 35.3619 10.6754 35.4138C10.6754 35.3403 10.5968 35.2913 10.5968 35.2178C10.3518 33.847 10.3067 32.4456 10.4633 31.0608C10.5785 30.1241 10.765 29.1983 11.0211 28.2922C11.3989 27.0414 11.9268 25.845 12.5924 24.7314C12.7416 24.4864 12.9066 24.2659 13.048 24.0127C13.0935 23.9421 13.154 23.8833 13.2249 23.8408C13.2957 23.7984 13.375 23.7733 13.4566 23.7677C13.9398 23.7149 14.4258 23.8361 14.8334 24.1111C15.241 24.3862 15.5453 24.7983 15.6957 25.2786C15.7665 25.5708 15.7665 25.8766 15.6957 26.1688C15.6328 26.4628 15.5857 26.5118 15.3657 26.4873ZM11.6417 36.2877C11.6417 36.2877 11.6889 36.2387 11.6889 36.2142C11.7938 36.043 11.941 35.9042 12.1152 35.8123C12.2893 35.7203 12.4839 35.6786 12.6788 35.6915C13.1773 35.6873 13.6743 35.6354 14.1636 35.5363C14.4989 35.4751 14.8419 35.4751 15.1771 35.5363C15.6092 35.6098 15.6799 35.7078 15.7035 36.157V37.7169C15.7035 38.2069 15.7035 38.7051 15.7035 39.1951C15.6721 39.5041 15.6169 39.81 15.5385 40.1098C15.4696 40.3246 15.3231 40.5032 15.13 40.608C14.6098 40.898 14.047 41.0967 13.4644 41.196C13.3475 41.2268 13.224 41.2143 13.115 41.1606C13.006 41.107 12.9184 41.0155 12.8673 40.902C12.6474 40.5345 12.4117 40.1588 12.2152 39.7668C11.956 39.2441 11.7124 38.7051 11.4767 38.1334C11.3296 37.8407 11.2669 37.51 11.2962 37.1811C11.3254 36.8523 11.4454 36.5392 11.6417 36.2795V36.2877ZM19.286 33.0699C21.2344 33.0699 23.1514 32.9964 25.0998 32.9964C26.0897 32.9964 27.0718 33.0454 28.0617 33.0699C28.1324 33.0699 28.2267 33.0699 28.321 33.0699C28.3622 33.4375 28.3301 33.8101 28.2267 34.1643C28.081 34.7994 27.791 35.3889 27.3809 35.8834C26.9708 36.3779 26.4526 36.763 25.8697 37.0064C24.5964 37.6023 23.1527 37.6723 21.8315 37.2024C21.2893 37.0473 20.7865 36.7701 20.3588 36.3904C19.9311 36.0107 19.589 35.5379 19.3568 35.0055C19.0857 34.4013 18.9693 33.7345 19.0189 33.0699C19.1132 33.0862 19.2153 33.0617 19.286 33.0617V33.0699ZM19.1132 31.5427C19.1523 31.156 19.2504 30.7783 19.4039 30.4238C19.717 29.7249 20.1981 29.1217 20.8009 28.6725C21.4037 28.2232 22.1077 27.9432 22.845 27.8594C23.8222 27.6875 24.8265 27.824 25.7283 28.2514C26.6223 28.6593 27.3642 29.3589 27.8417 30.2441C27.9979 30.547 28.1116 30.8715 28.1795 31.2078C28.2503 31.559 28.1795 31.657 27.8181 31.6815C27.4568 31.706 27.3153 31.6815 27.0325 31.6815C25.4612 31.5835 23.7878 31.6815 22.1537 31.6325L19.3882 31.559C19.2959 31.5716 19.2021 31.5632 19.1132 31.5345V31.5427ZM34.2604 40.7305V40.951C34.2133 40.951 34.1897 41 34.1662 41C33.4671 41.0538 32.775 40.8257 32.2335 40.363C32.0647 40.2023 31.9385 39.9992 31.867 39.7733C31.7955 39.5473 31.781 39.306 31.8249 39.0726C31.8249 38.8521 31.8956 38.8031 32.1156 38.7786C32.8003 38.6761 33.4983 38.7347 34.1583 38.9501C34.3061 39.0153 34.4504 39.0889 34.5904 39.1706C34.6191 39.1871 34.644 39.2098 34.6634 39.2372C34.6829 39.2646 34.6964 39.296 34.7032 39.3293C34.7099 39.3627 34.7096 39.3971 34.7023 39.4303C34.6951 39.4635 34.681 39.4947 34.6611 39.5218C34.6429 39.5657 34.6191 39.6069 34.5904 39.6443C34.3831 39.9663 34.2686 40.3431 34.2604 40.7305ZM32.0685 9.62258C31.2223 9.07685 30.2176 8.85988 29.2323 9.01006C28.8705 9.06913 28.5241 9.20468 28.2147 9.40837C27.9052 9.61205 27.6393 9.87952 27.4332 10.1943C27.2093 10.5347 27.0989 10.9421 27.1189 11.354V11.9257C26.8599 11.9761 26.5968 12.0008 26.3333 11.9992C25.7833 11.9992 25.2334 11.9992 24.6991 11.9502C24.3692 11.9502 24.3142 11.8522 24.3142 11.501C24.2938 11.1361 24.3767 10.7731 24.5526 10.4567C24.7285 10.1402 24.9898 9.88435 25.3041 9.72059C25.3748 9.72059 25.4219 9.64709 25.4926 9.62258C25.5667 9.5947 25.6279 9.53895 25.6643 9.46635C25.7007 9.39375 25.7095 9.30961 25.689 9.23057C25.6881 9.19264 25.6797 9.15531 25.6644 9.12089C25.649 9.08646 25.6271 9.05567 25.5998 9.03042C25.5726 9.00516 25.5406 8.98598 25.506 8.97405C25.4713 8.96212 25.4347 8.9577 25.3984 8.96106C25.1379 8.92032 24.8731 8.92032 24.6127 8.96106C24.157 9.03456 23.7249 9.15707 23.2693 9.25507C22.938 9.35291 22.5871 9.35291 22.2558 9.25507C21.8732 9.12983 21.4612 9.14231 21.0863 9.2905C20.7113 9.43868 20.3954 9.71393 20.1895 10.0718C19.9723 10.4765 19.8894 10.9444 19.9538 11.403C20.001 11.7297 20.001 11.7297 19.7103 11.7787C18.8451 11.9439 17.9516 11.812 17.1648 11.403C16.7863 11.1996 16.4692 10.8913 16.2487 10.5122C16.0283 10.1331 15.913 9.69804 15.9156 9.25507C15.8735 8.72191 15.9943 8.18852 16.2609 7.73096C16.5276 7.2734 16.9264 6.91504 17.4005 6.70699C18.1901 6.30131 19.0356 6.02578 19.9067 5.89029C21.5467 5.64526 23.2102 5.62056 24.8563 5.81679C25.6138 5.894 26.3615 6.05275 27.0875 6.29047C27.7399 6.52101 28.3506 6.86329 28.8945 7.30317C29.3266 7.64618 29.7823 7.97286 30.2144 8.29137C30.6752 8.62578 31.2236 8.80534 31.7857 8.80589C32.697 8.80589 33.6162 8.88756 34.5275 8.93656C34.8104 8.93656 35.0775 9.01006 35.3682 9.05907C35.6589 9.10807 35.7296 9.30407 35.5332 9.52458C35.3764 9.73279 35.2 9.92429 35.0068 10.0963L33.8048 11.1825C33.2504 11.6065 32.5904 11.856 31.9035 11.9012C31.6094 11.9502 31.3098 11.9502 31.0157 11.9012C30.7015 11.8277 30.6308 11.6072 30.7957 11.3295C31.0034 11.0652 31.2744 10.8624 31.5814 10.7415C31.7542 10.6598 31.9192 10.5618 32.0606 10.4883C32.1366 10.4473 32.2005 10.3856 32.2453 10.3098C32.2901 10.234 32.3142 10.1469 32.315 10.0579C32.3158 9.9689 32.2933 9.88136 32.2499 9.80467C32.2064 9.72798 32.1437 9.66503 32.0685 9.62258ZM30.5836 9.99826C30.5836 10.0963 30.5836 10.1698 30.5365 10.2188C30.1805 10.8676 29.9159 11.5662 29.7508 12.2932C29.6016 12.7914 29.4366 13.2814 29.2716 13.7796C29.2314 13.8236 29.1971 13.8731 29.1695 13.9266C29.0516 13.7551 28.9338 13.6081 28.8316 13.4611C28.5051 12.9879 28.2409 12.4716 28.046 11.9257C27.9947 11.7546 27.9553 11.5799 27.9281 11.403C27.8715 11.1157 27.9208 10.8168 28.0664 10.5657C28.2119 10.3145 28.443 10.1295 28.7138 10.0473C29.0929 9.944 29.4852 9.90267 29.8765 9.92476C30.1095 9.97206 30.3462 9.99667 30.5836 9.99826ZM23.5914 10.4148C23.5364 11.0845 23.4892 11.7787 23.4185 12.4402C23.3765 12.8623 23.245 13.2695 23.0336 13.6326C22.9922 13.7022 22.9449 13.7678 22.8922 13.8286C22.866 13.8565 22.8339 13.8778 22.7985 13.8908C22.7631 13.9038 22.7253 13.9081 22.688 13.9033C22.6507 13.8986 22.615 13.8849 22.5836 13.8635C22.5523 13.842 22.5261 13.8133 22.5072 13.7796C22.2059 13.1973 21.8248 12.6636 21.3759 12.1952C21.0991 11.8801 20.9234 11.4834 20.873 11.06C20.873 10.9865 20.873 10.9375 20.873 10.864C20.873 10.3658 20.9909 10.2188 21.4466 10.1453C21.7919 10.1208 22.1383 10.1208 22.4836 10.1453H23.3243C23.5914 10.1208 23.5914 10.1698 23.5914 10.4148ZM16.882 13.6816C16.949 13.4291 17.0303 13.1809 17.1255 12.9384C17.1742 12.7843 17.271 12.6516 17.4005 12.5614C17.5301 12.4711 17.6849 12.4284 17.8405 12.4402C18.2961 12.4402 18.7597 12.5219 19.2153 12.5464C19.671 12.5709 20.001 12.6199 20.4645 12.6199C20.5621 12.6168 20.6593 12.6348 20.7499 12.6728C20.8405 12.7108 20.9226 12.7678 20.9909 12.8404C21.2566 13.1272 21.4696 13.4621 21.6194 13.8286C21.7608 14.1226 21.8787 14.4493 22.0279 14.7433C22.1287 14.9377 22.2586 15.1141 22.4129 15.2659C22.4513 15.3125 22.4989 15.3499 22.5524 15.3755C22.606 15.4012 22.6643 15.4144 22.7232 15.4144C22.7822 15.4144 22.8405 15.4012 22.8941 15.3755C22.9476 15.3499 22.9952 15.3125 23.0336 15.2659C23.2046 15.0863 23.343 14.876 23.4421 14.6453C23.6857 14.1226 23.9214 13.6081 24.1413 13.0854C24.1715 12.9949 24.2313 12.9184 24.3103 12.8691C24.3893 12.8198 24.4824 12.801 24.5734 12.8159C25.0998 12.8159 25.6576 12.7669 26.1447 12.7669C26.4901 12.7626 26.835 12.7955 27.1739 12.8649C27.3416 12.8906 27.5007 12.9583 27.6375 13.0621C27.7744 13.166 27.8849 13.3029 27.9596 13.4611C28.1324 13.8286 28.2738 14.1961 28.4152 14.5718C28.5174 14.8168 28.5881 15.0863 28.6824 15.3394C28.7057 15.4407 28.7545 15.5337 28.8238 15.609C28.8631 15.6713 28.9167 15.7225 28.9798 15.7579C29.0429 15.7934 29.1135 15.8119 29.1852 15.8119C29.2569 15.8119 29.3275 15.7934 29.3905 15.7579C29.4536 15.7225 29.5073 15.6713 29.5466 15.609C29.6524 15.4572 29.7345 15.2891 29.7901 15.1108C29.908 14.7678 29.9787 14.4002 30.0808 14.0491C30.1463 13.789 30.225 13.5328 30.3165 13.2814C30.3644 13.1589 30.4401 13.0503 30.5373 12.9649C30.6345 12.8795 30.7501 12.82 30.8743 12.7914C31.4572 12.6526 32.0607 12.636 32.6499 12.7424C32.7462 12.7495 32.8385 12.7857 32.9153 12.8467C32.9921 12.9076 33.05 12.9906 33.082 13.0854C33.1998 13.412 33.3019 13.7551 33.3962 14.0981C33.7105 15.2659 34.0405 16.4011 34.3311 17.5609C34.4726 18.1325 34.5983 18.6961 34.7161 19.2677C34.7281 19.3571 34.7281 19.4479 34.7161 19.5373L34.064 19.0227C33.0875 18.2749 32.0135 17.6754 30.8743 17.2423C29.7938 16.793 28.6687 16.4697 27.5196 16.2786C26.1045 15.9945 24.6591 15.9093 23.2221 16.0255C22.2826 16.1129 21.3505 16.2713 20.4331 16.4992C19.0705 16.8938 17.7534 17.4415 16.5049 18.1325C16.0738 18.3616 15.6566 18.618 15.2557 18.9002C15.1776 18.9474 15.0962 18.9884 15.0121 19.0227C15.0121 18.9002 15.0121 18.8267 15.0121 18.7451C15.4013 17.3033 15.9086 15.8989 16.5284 14.5473C16.6842 14.2771 16.8032 13.9857 16.882 13.6816ZM45.8958 26.0953C45.8286 27.562 45.618 29.0178 45.2673 30.4401C44.8375 32.2215 44.199 33.9412 43.3661 35.5608C42.5555 37.1329 41.5721 38.6019 40.4356 39.9383C39.5524 40.9601 38.5879 41.9026 37.5523 42.7559L36.9788 43.2051C36.9788 43.2051 36.9238 43.2051 36.9238 43.1561C36.9238 43.1071 37.0495 42.9519 37.1202 42.8784C38.0125 41.7466 38.7477 40.4902 39.3043 39.1461C39.7579 37.9902 40.1513 36.8097 40.4827 35.6098C40.662 34.9681 40.7442 34.3013 40.7263 33.6334C40.7776 31.5186 40.4773 29.4105 39.8385 27.402C39.5423 26.3323 39.1395 25.2976 38.6365 24.3149C38.2906 23.627 37.8514 22.9944 37.3323 22.4365C37.1202 22.1833 36.9002 21.9383 36.6645 21.6933C36.3265 21.3465 36.0779 20.9168 35.9417 20.4438C35.5803 19.2106 35.2189 17.9937 34.8575 16.7115C34.4961 15.4293 34.0719 14.0164 33.7105 12.628C33.6888 12.5805 33.6704 12.5313 33.6555 12.481C33.5848 12.3258 33.6555 12.2278 33.7812 12.1298C34.2369 11.8113 34.7161 11.4601 35.1482 11.0926C35.6938 10.6835 36.1514 10.1606 36.4917 9.55725C36.6397 9.313 36.7162 9.02922 36.7116 8.74055C36.7231 8.63682 36.7006 8.53211 36.6479 8.44323C36.5952 8.35436 36.5153 8.2865 36.421 8.25054C36.2025 8.17065 35.9795 8.10519 35.7532 8.05453C35.0237 7.99329 34.2907 7.99329 33.5612 8.05453C33.0348 8.05453 32.5084 8.05453 31.9899 7.98103C31.611 7.94321 31.2521 7.78656 30.9607 7.53185C30.3793 7.11533 29.8294 6.71515 29.2794 6.24964C28.7558 5.84272 28.1565 5.55347 27.5196 5.40027C25.3633 4.82686 23.1337 4.60914 20.9123 4.75508C19.9162 4.79927 18.9305 4.98333 17.9819 5.30227C17.4068 5.4842 16.8632 5.75986 16.3713 6.11896C16.0553 6.36635 15.7908 6.67769 15.5937 7.0342C15.3965 7.39071 15.2709 7.78502 15.2243 8.19337C15.1181 8.84509 15.161 9.51363 15.3493 10.145C15.5377 10.7763 15.8662 11.3527 16.3085 11.8277C16.3633 11.8789 16.4001 11.9477 16.4129 12.0232C16.4257 12.0987 16.4138 12.1765 16.3792 12.2442C15.7588 13.689 15.2338 15.1761 14.8079 16.6952C14.4744 17.8164 14.0567 18.9087 13.5587 19.9619C13.2938 20.4697 12.9806 20.9485 12.6238 21.3912C10.9792 23.2923 9.77756 25.5614 9.11195 28.0227C8.61059 29.8806 8.43234 31.8166 8.58557 33.7396C8.69788 35.3031 9.02052 36.8426 9.54405 38.3131C10.1429 39.9938 11.0115 41.5568 12.1131 42.9356C12.5396 43.5002 13.0156 44.0224 13.5351 44.4954C13.6021 44.5488 13.6582 44.6154 13.7001 44.6914C13.7001 44.6914 13.7001 44.6914 13.7001 44.7404C13.5823 44.6669 13.433 44.6179 13.3151 44.5444C12.2165 43.849 11.1664 43.0739 10.1726 42.225C5.92866 38.6542 3.14388 33.5444 2.37898 27.9247C2.16694 26.0774 2.16694 24.2104 2.37898 22.363C2.803 18.3305 4.26898 14.4925 6.62146 11.256C8.5265 8.63029 10.9614 6.46993 13.7551 4.92659C15.6283 3.88309 17.6367 3.12662 19.7182 2.68068C21.0616 2.38873 22.4311 2.24637 23.8035 2.256C24.7189 2.24797 25.6341 2.28886 26.5454 2.3785C28.9142 2.65636 31.2217 3.34368 33.3727 4.41207C37.766 6.56434 41.3553 10.1606 43.586 14.6453C44.4523 16.3751 45.0817 18.2224 45.4559 20.1334C45.8453 22.0933 45.9932 24.0967 45.8958 26.0953Z" fill="#D1D1D1"/>
<path d="M56.9336 27.193V13.158H59.8018V18.6833H65.4522V13.158H68.3205V27.193H65.4522V21.0553H59.8233V27.193H56.9336Z" fill="#D1D1D1"/>
<path d="M70.0852 20.7004C70.0487 19.4375 70.259 18.1804 70.7026 17.0085C71.0096 16.2763 71.437 15.6083 71.9646 15.0361C72.456 14.4799 73.0495 14.0373 73.7083 13.7356C74.6356 13.3408 75.6274 13.1467 76.6259 13.1649C77.5087 13.1223 78.3901 13.2764 79.2137 13.6173C80.0374 13.9581 80.7852 14.4783 81.4093 15.1445C82.6035 16.4594 83.2005 18.2897 83.2005 20.6354C83.2555 21.6244 83.1268 22.6153 82.8218 23.5513C82.5168 24.4873 82.0414 25.35 81.4229 26.0902C80.8038 26.753 80.0616 27.2708 79.2437 27.6105C78.4259 27.9501 77.5504 28.1041 76.6734 28.0625C75.7901 28.1073 74.9077 27.9564 74.082 27.6194C73.2563 27.2824 72.5053 26.7666 71.8764 26.1046C71.2572 25.3746 70.7801 24.5211 70.4726 23.5935C70.1652 22.6659 70.0335 21.6826 70.0852 20.7004ZM72.9009 20.6065C72.8102 21.9389 73.1874 23.2598 73.9594 24.3128C74.3007 24.7097 74.7159 25.0266 75.1784 25.2434C75.641 25.4602 76.1409 25.5721 76.6462 25.5721C77.1516 25.5721 77.6515 25.4602 78.114 25.2434C78.5766 25.0266 78.9917 24.7097 79.3331 24.3128C80.1046 23.2406 80.4767 21.9026 80.378 20.5559C80.4737 19.2342 80.1116 17.9209 79.3602 16.864C79.0074 16.4778 78.5855 16.1707 78.1193 15.9611C77.6532 15.7514 77.1523 15.6434 76.6462 15.6434C76.1402 15.6434 75.6393 15.7514 75.1732 15.9611C74.707 16.1707 74.2851 16.4778 73.9322 16.864C73.1647 17.9323 72.7972 19.266 72.9009 20.6065Z" fill="#D1D1D1"/>
<path d="M84.9609 13.1611H90.8003C91.6616 13.1447 92.523 13.1918 93.3769 13.302C93.9253 13.3818 94.4477 13.5812 94.9043 13.885C95.3608 14.1888 95.7396 14.5889 96.0119 15.0551C96.3127 15.5524 96.4667 16.1198 96.4571 16.6955C96.4625 17.3374 96.2721 17.9666 95.9097 18.505C95.5559 19.0441 95.0493 19.4742 94.4498 19.7441C95.256 19.9406 95.9736 20.3856 96.4936 21.0114C96.9747 21.617 97.2317 22.3606 97.2235 23.1236C97.2223 23.7692 97.0649 24.4057 96.7637 24.9823C96.4791 25.5625 96.0441 26.062 95.5009 26.4327C94.9122 26.8098 94.2344 27.0374 93.5301 27.0945C93.0411 27.1438 91.8586 27.179 89.9901 27.193H85.0339L84.9609 13.1611ZM87.8806 15.4986V18.7443H89.8003C90.9462 18.7443 91.6616 18.7443 91.9389 18.6951C92.3809 18.6645 92.7986 18.488 93.1214 18.1952C93.2682 18.0509 93.3823 17.8788 93.4565 17.6897C93.5306 17.5006 93.5632 17.2987 93.552 17.0968C93.5682 16.7124 93.4355 16.336 93.1798 16.0408C92.8886 15.7501 92.4957 15.5744 92.0776 15.5479C91.7856 15.5479 90.9462 15.4986 89.5667 15.4986H87.8806ZM87.8806 21.0818V24.8344H90.5959C91.2687 24.8546 91.942 24.8263 92.6104 24.75C93.0222 24.6857 93.3984 24.4868 93.6761 24.1867C93.9668 23.8557 94.1156 23.4301 94.0922 22.9969C94.104 22.6165 93.9916 22.2422 93.771 21.9267C93.5466 21.6237 93.2265 21.399 92.8586 21.286C92.0031 21.1077 91.127 21.0391 90.2528 21.0818H87.8806Z" fill="#D1D1D1"/>
<path d="M98.1105 20.7003C98.0774 19.4377 98.287 18.1812 98.7261 17.0084C99.0371 16.2791 99.4627 15.612 99.9844 15.0361C100.475 14.478 101.07 14.0351 101.73 13.7356C102.652 13.3404 103.639 13.1463 104.632 13.1649C105.512 13.1223 106.391 13.2764 107.213 13.6173C108.034 13.9581 108.779 14.4783 109.402 15.1445C110.619 16.4786 111.228 18.3089 111.228 20.6352C111.282 21.6247 111.153 22.6159 110.848 23.5519C110.542 24.4879 110.067 25.3503 109.449 26.0899C108.833 26.7542 108.093 27.273 107.277 27.6127C106.461 27.9524 105.588 28.1056 104.713 28.0623C103.833 28.1079 102.953 27.9574 102.129 27.6203C101.306 27.2833 100.557 26.767 99.9303 26.1044C99.3072 25.377 98.8255 24.5248 98.5131 23.5971C98.2007 22.6695 98.0638 21.6848 98.1105 20.7003ZM100.918 20.6063C100.828 21.9388 101.204 23.2596 101.973 24.3126C102.309 24.7242 102.725 25.051 103.193 25.2697C103.661 25.4883 104.169 25.5933 104.68 25.577C105.19 25.5994 105.699 25.4979 106.168 25.2802C106.636 25.0624 107.053 24.7341 107.386 24.3199C108.157 23.2487 108.531 21.9106 108.434 20.563C108.53 19.2413 108.169 17.9281 107.419 16.8712C107.067 16.4858 106.646 16.1796 106.182 15.9705C105.717 15.7614 105.218 15.6537 104.713 15.6537C104.209 15.6537 103.71 15.7614 103.245 15.9705C102.78 16.1796 102.36 16.4858 102.007 16.8712C101.225 17.9299 100.837 19.2604 100.918 20.6063Z" fill="#D1D1D1"/>
<path d="M112.992 28.0255V13.172H117.807C119.002 13.1241 120.199 13.199 121.378 13.3954C122.242 13.6308 122.997 14.1571 123.517 14.8853C124.118 15.7229 124.42 16.7383 124.375 17.7681C124.4 18.5615 124.231 19.3492 123.883 20.0624C123.587 20.6541 123.152 21.1653 122.615 21.5522C122.15 21.8853 121.623 22.1232 121.065 22.2525C120.035 22.4191 118.992 22.4914 117.949 22.4685H115.996V28.0702L112.992 28.0255ZM115.974 15.6898V19.8985H117.614C118.411 19.9449 119.211 19.867 119.984 19.6676C120.369 19.5257 120.698 19.2647 120.923 18.9227C121.153 18.5819 121.273 18.1789 121.266 17.7681C121.281 17.2794 121.111 16.803 120.789 16.4347C120.472 16.0853 120.047 15.852 119.582 15.7717C118.864 15.6866 118.142 15.6542 117.42 15.6749L115.974 15.6898Z" fill="#D1D1D1"/>
<path d="M125.265 20.7004C125.228 19.4375 125.439 18.1804 125.882 17.0085C126.189 16.2763 126.617 15.6083 127.144 15.0361C127.636 14.4799 128.229 14.0373 128.888 13.7356C129.815 13.3408 130.807 13.1467 131.806 13.1649C132.688 13.1223 133.57 13.2764 134.393 13.6173C135.217 13.9581 135.965 14.4783 136.589 15.1445C137.783 16.4594 138.38 18.2897 138.38 20.6354C138.435 21.6244 138.307 22.6153 138.001 23.5513C137.696 24.4873 137.221 25.35 136.603 26.0902C135.984 26.753 135.241 27.2708 134.423 27.6105C133.606 27.9501 132.73 28.1041 131.853 28.0625C130.97 28.1073 130.087 27.9564 129.262 27.6194C128.436 27.2824 127.685 26.7666 127.056 26.1046C126.437 25.3746 125.96 24.5211 125.652 23.5935C125.345 22.6659 125.213 21.6826 125.265 20.7004ZM128.081 20.6065C127.99 21.9389 128.367 23.2598 129.139 24.3128C129.48 24.7097 129.896 25.0266 130.358 25.2434C130.821 25.4602 131.321 25.5721 131.826 25.5721C132.331 25.5721 132.831 25.4602 133.294 25.2434C133.756 25.0266 134.171 24.7097 134.513 24.3128C135.284 23.2406 135.656 21.9026 135.558 20.5559C135.653 19.2342 135.291 17.9209 134.54 16.864C134.187 16.4778 133.765 16.1707 133.299 15.9611C132.833 15.7514 132.332 15.6434 131.826 15.6434C131.32 15.6434 130.819 15.7514 130.353 15.9611C129.887 16.1707 129.465 16.4778 129.112 16.864C128.344 17.9323 127.977 19.266 128.081 20.6065Z" fill="#D1D1D1"/>
<path d="M149.655 22.5168L152.407 23.4138C152.105 24.7915 151.359 26.0249 150.29 26.9151C149.203 27.7154 147.887 28.1203 146.55 28.0653C145.691 28.0914 144.837 27.9301 144.044 27.5921C143.25 27.2541 142.536 26.7472 141.949 26.1049C140.692 24.6292 140.048 22.7076 140.156 20.7516C140.156 18.3403 140.761 16.4763 141.97 15.1597C142.579 14.4963 143.321 13.9747 144.144 13.6303C144.967 13.2858 145.852 13.1265 146.74 13.1631C148.285 13.098 149.792 13.6624 150.932 14.7329C151.631 15.4691 152.119 16.3873 152.344 17.3878L149.521 18.1112C149.391 17.41 149.02 16.78 148.474 16.3364C147.929 15.8928 147.246 15.6651 146.55 15.695C146.071 15.6796 145.594 15.775 145.155 15.9741C144.717 16.1733 144.328 16.471 144.016 16.8452C143.367 17.6121 143.043 18.8491 143.043 20.5708C143.043 22.2925 143.36 23.6887 144.002 24.4627C144.303 24.8391 144.684 25.1398 145.116 25.3417C145.548 25.5436 146.019 25.6414 146.493 25.6274C147.209 25.648 147.905 25.3895 148.441 24.904C149.087 24.2636 149.513 23.4261 149.655 22.5168Z" fill="#D1D1D1"/>
<path d="M154.16 13.158H156.969V25.1404H162.448V13.158H165.257V25.1404H166.423V30.7018H164.077V27.56H154.16V13.158Z" fill="#D1D1D1"/>
<path d="M168.176 27.179V13.158H178.39V15.5346H170.988V18.6426H177.899V21.0123H170.988V24.8304H178.687V27.193L168.176 27.179Z" fill="#D1D1D1"/>
<path d="M180.438 27.193V13.158H184.806L187.441 22.7305L190.084 13.158H194.452V27.193H191.729V16.1494L188.854 27.193H186.029L183.16 16.1494V27.193H180.438Z" fill="#D1D1D1"/>
<path d="M196.203 27.179V13.158H207.305V15.5346H199.23V18.6426H206.741V21.0123H199.23V24.8304H207.59V27.193L196.203 27.179Z" fill="#D1D1D1"/>
<path d="M209.344 27.193V13.158H212.21V18.6833H217.864V13.158H220.731V27.193H217.864V21.0553H212.21V27.193H209.344Z" fill="#D1D1D1"/>
<path d="M225.857 27.193V15.537H221.605V13.158H232.992V15.537H228.748V27.193H225.857Z" fill="#D1D1D1"/>
<path d="M56.9382 37.3037C56.9269 36.9327 56.9985 36.5636 57.1485 36.2201C57.2471 36.0036 57.39 35.8073 57.569 35.6421C57.7317 35.4761 57.9299 35.344 58.1508 35.2547C58.4605 35.1393 58.7918 35.0835 59.125 35.0905C59.4197 35.0763 59.7143 35.1205 59.9897 35.22C60.265 35.3196 60.5148 35.4724 60.723 35.6684C61.1055 36.1294 61.3132 36.6968 61.3132 37.2807C61.3132 37.8647 61.1055 38.432 60.723 38.893C60.5157 39.0882 60.2669 39.2405 59.9929 39.34C59.7188 39.4396 59.4256 39.4842 59.132 39.4709C58.8361 39.486 58.5402 39.4423 58.2636 39.3427C57.987 39.2431 57.7359 39.0899 57.527 38.893C57.3211 38.678 57.163 38.4268 57.0619 38.1539C56.9608 37.881 56.9188 37.592 56.9382 37.3037ZM57.8774 37.3037C57.8478 37.6961 57.9753 38.0847 58.2349 38.3939C58.3485 38.511 58.487 38.6046 58.6415 38.6686C58.796 38.7326 58.9631 38.7657 59.132 38.7657C59.3009 38.7657 59.468 38.7326 59.6225 38.6686C59.777 38.6046 59.9155 38.511 60.0291 38.3939C60.3002 38.0651 60.4257 37.6512 60.3796 37.238C60.412 36.8505 60.2924 36.4652 60.0432 36.1544C59.9255 36.0402 59.7845 35.9494 59.6285 35.8873C59.4726 35.8253 59.3049 35.7933 59.1355 35.7933C58.9661 35.7933 58.7984 35.8253 58.6425 35.8873C58.4865 35.9494 58.3455 36.0402 58.2279 36.1544C57.9648 36.4743 57.8397 36.8751 57.8774 37.2774V37.3037Z" fill="#D1D1D1"/>
<path d="M64.7002 39.4736V35.8288H63.0664V35.0876H67.446V35.8288H65.8122V39.4736H64.7002Z" fill="#D1D1D1"/>
<path d="M69.1953 35.1188H70.1482V36.9755C70.3083 36.9749 70.4624 36.9196 70.5806 36.8202C70.7257 36.6084 70.8438 36.3818 70.9325 36.145C71.0346 35.8059 71.2408 35.5012 71.5262 35.2673C71.8236 35.1312 72.1551 35.0706 72.4864 35.0917H72.6257V35.7669H72.4864C72.341 35.7601 72.1958 35.7832 72.0613 35.8344C71.9656 35.8808 71.8885 35.9541 71.8414 36.0437C71.7421 36.2241 71.6588 36.4115 71.5922 36.6041C71.5416 36.7354 71.4778 36.862 71.4016 36.9822C71.3094 37.1029 71.1859 37.2003 71.0424 37.2658C71.2544 37.3206 71.4403 37.4395 71.5702 37.6034C71.7474 37.8249 71.8997 38.0624 72.0246 38.3123L72.699 39.4736H71.5482L70.9838 38.3461L70.9325 38.2583L70.8079 38.049C70.7373 37.8992 70.6351 37.7638 70.5073 37.6506C70.3998 37.5895 70.2742 37.5612 70.1482 37.5696V39.4736H69.1953V35.1188Z" fill="#D1D1D1"/>
<path d="M75.3281 39.4739V35.0927H76.8099C77.1776 35.077 77.5461 35.0997 77.9087 35.1607C78.1745 35.2239 78.4082 35.3756 78.5681 35.5886C78.752 35.8356 78.8444 36.1345 78.8304 36.4376C78.8385 36.6722 78.7874 36.9052 78.6815 37.1169C78.5868 37.2877 78.4536 37.4362 78.2916 37.5516C78.1461 37.6487 77.9824 37.7178 77.8095 37.7554C77.4937 37.8093 77.173 37.8321 76.8524 37.8233H76.2498V39.4739H75.3281ZM76.2498 35.8331V37.0761H76.7602C76.9988 37.0891 77.238 37.0661 77.4692 37.0082C77.5881 36.9679 77.6902 36.8916 77.7599 36.7908C77.8321 36.6913 77.8693 36.5724 77.8662 36.4512C77.8712 36.3065 77.8179 36.1654 77.7173 36.0573C77.6203 35.9547 77.4908 35.8855 77.3487 35.8603C77.1267 35.8483 76.9042 35.8483 76.6822 35.8603L76.2498 35.8331Z" fill="#D1D1D1"/>
<path d="M81.4609 35.0876H82.3792V36.8412H83.6083C83.8938 36.8351 84.1781 36.8765 84.4489 36.9635C84.686 37.0545 84.8882 37.2135 85.0282 37.4189C85.1851 37.6411 85.2666 37.9047 85.2613 38.1733C85.2695 38.4476 85.1852 38.717 85.0211 38.9414C84.8852 39.1304 84.6967 39.2788 84.4772 39.3695C84.1952 39.4484 83.9018 39.4829 83.6083 39.4715H81.4892L81.4609 35.0876ZM82.3792 38.7375H83.2763C83.4774 38.7445 83.6787 38.7308 83.8768 38.6967C83.9947 38.6659 84.1005 38.602 84.1805 38.5132C84.2667 38.4144 84.312 38.2886 84.3077 38.1597C84.3128 38.076 84.2962 37.9923 84.2592 37.9163C84.2222 37.8403 84.166 37.7745 84.0957 37.7248C83.8569 37.6046 83.5873 37.5527 83.3187 37.5752H82.3792V38.7375ZM85.7911 35.0876H86.7164V39.4715H85.7911V35.0876Z" fill="#D1D1D1"/>
<path d="M89.7719 39.4736V35.8288H88.4648V35.0876H91.9685V35.8288H90.6683V39.4736H89.7719Z" fill="#D1D1D1"/>
<path d="M94.6023 37.3047C94.5909 36.9336 94.6626 36.5643 94.8126 36.2206C94.9112 36.004 95.0541 35.8076 95.2331 35.6424C95.3958 35.4763 95.594 35.3442 95.8148 35.2547C96.1246 35.1394 96.4559 35.0835 96.7891 35.0905C97.0838 35.0763 97.3784 35.1205 97.6537 35.2201C97.929 35.3197 98.1789 35.4726 98.3871 35.6687C98.7696 36.1299 98.9772 36.6975 98.9772 37.2817C98.9772 37.866 98.7696 38.4336 98.3871 38.8948C97.9498 39.2674 97.38 39.4739 96.7891 39.4739C96.1981 39.4739 95.6284 39.2674 95.191 38.8948C94.9851 38.6797 94.827 38.4283 94.7259 38.1553C94.6248 37.8823 94.5828 37.5932 94.6023 37.3047ZM95.5415 37.3047C95.5119 37.6973 95.6393 38.0862 95.8989 38.3955C96.0126 38.5126 96.1511 38.6062 96.3056 38.6703C96.4601 38.7344 96.6271 38.7675 96.7961 38.7675C96.965 38.7675 97.1321 38.7344 97.2866 38.6703C97.441 38.6062 97.5796 38.5126 97.6932 38.3955C97.9493 38.0772 98.0738 37.6827 98.0436 37.285C98.0774 36.8961 97.955 36.5094 97.7002 36.2009C97.588 36.081 97.4485 35.9863 97.292 35.9237C97.1355 35.8612 96.966 35.8324 96.7961 35.8395C96.6264 35.8342 96.4575 35.8639 96.3013 35.9263C96.1451 35.9887 96.0054 36.0825 95.8919 36.2009C95.6405 36.5088 95.516 36.8914 95.5415 37.2785V37.3047Z" fill="#D1D1D1"/>
<path d="M101.605 39.4739V35.0879H105.023V35.8291H102.535V36.8015H104.852V37.5427H102.535V38.7327H105.109V39.4739H101.605Z" fill="#D1D1D1"/>
<path d="M114.743 39.4739H113.783L113.405 38.4743H111.661L111.303 39.4739H110.363L112.066 35.0879H112.992L114.743 39.4739ZM113.121 37.7399L112.519 36.1079L111.931 37.7399H113.121Z" fill="#D1D1D1"/>
<path d="M117.371 35.1188H118.33V36.9613C118.491 36.9621 118.647 36.907 118.765 36.8072C118.917 36.6002 119.037 36.3746 119.119 36.1372C119.222 35.8007 119.429 35.4983 119.717 35.2662C120.016 35.1312 120.35 35.071 120.683 35.092H120.823V35.762H120.683C120.537 35.7559 120.391 35.7788 120.255 35.829C120.162 35.8788 120.086 35.9505 120.034 36.0367C119.934 36.2157 119.85 36.4016 119.783 36.5928C119.735 36.7242 119.671 36.8501 119.591 36.968C119.5 37.0891 119.376 37.1862 119.23 37.2494C119.443 37.3038 119.63 37.4218 119.761 37.5844C119.939 37.8055 120.095 38.041 120.226 38.2879L120.875 39.4739H119.739L119.171 38.3549C119.156 38.3247 119.139 38.2956 119.119 38.2678C119.119 38.2678 119.068 38.1807 119.001 38.0601C118.925 37.9143 118.823 37.7807 118.699 37.6648C118.588 37.6037 118.459 37.5755 118.33 37.5844V39.4739H117.371V35.1188Z" fill="#D1D1D1"/>
<path d="M122.629 35.0876H123.635V38.6835H125.585V35.0876H126.598V38.6835H127.008V40.3508H126.173V39.4067H122.629V35.0876Z" fill="#D1D1D1"/>
<path d="M129.633 35.0876H130.466V38.0048L132.249 35.0876H133.136V39.4736H132.31V36.6108L130.528 39.4736H129.64L129.633 35.0876Z" fill="#D1D1D1"/>
<path d="M135.77 37.3051C135.76 36.9346 135.829 36.5659 135.973 36.2208C136.077 36.0068 136.219 35.8112 136.394 35.6425C136.559 35.4762 136.76 35.3441 136.982 35.2548C137.292 35.1388 137.624 35.083 137.957 35.0905C138.252 35.0763 138.546 35.1205 138.822 35.2201C139.097 35.3198 139.347 35.4726 139.555 35.6688C139.938 36.1301 140.145 36.6978 140.145 37.2821C140.145 37.8664 139.938 38.4341 139.555 38.8954C139.119 39.2676 138.55 39.4739 137.96 39.4739C137.37 39.4739 136.802 39.2676 136.366 38.8954C136.158 38.6808 135.999 38.4296 135.897 38.1565C135.794 37.8835 135.751 37.594 135.77 37.3051ZM136.709 37.3051C136.681 37.6965 136.805 38.0843 137.06 38.396C137.174 38.5133 137.313 38.6071 137.468 38.6712C137.623 38.7353 137.791 38.7684 137.96 38.7684C138.13 38.7684 138.297 38.7353 138.453 38.6712C138.608 38.6071 138.747 38.5133 138.861 38.396C139.117 38.0776 139.242 37.6831 139.212 37.2854C139.245 36.8964 139.123 36.5097 138.868 36.2011C138.756 36.0812 138.616 35.9864 138.46 35.9239C138.303 35.8613 138.134 35.8325 137.964 35.8396C137.793 35.8343 137.623 35.8639 137.466 35.9263C137.308 35.9887 137.167 36.0824 137.053 36.2011C136.804 36.5099 136.682 36.8925 136.709 37.2788V37.3051Z" fill="#D1D1D1"/>
<path d="M142.773 39.4739V35.0879H143.658V36.8151H145.393V35.0879H146.277V39.4739H145.393V37.5563H143.658V39.4739H142.773Z" fill="#D1D1D1"/>
<path d="M148.906 39.4736V35.0876H152.324V35.8288H149.841V36.8012H152.153V37.5424H149.841V38.7324H152.41V39.4736H148.906Z" fill="#D1D1D1"/>
<path d="M155.035 39.4739V35.0927H156.517C156.885 35.077 157.253 35.0997 157.616 35.1607C157.882 35.2239 158.115 35.3756 158.275 35.5886C158.459 35.8356 158.551 36.1345 158.537 36.4376C158.548 36.6732 158.494 36.9073 158.381 37.1169C158.292 37.2887 158.16 37.4377 157.999 37.5516C157.853 37.6487 157.689 37.7178 157.517 37.7554C157.201 37.8093 156.88 37.8321 156.559 37.8233H155.957V39.4739H155.035ZM155.957 35.8331V37.0761H156.46C156.699 37.0887 156.938 37.0658 157.169 37.0082C157.288 36.9679 157.39 36.8916 157.46 36.7908C157.532 36.6913 157.569 36.5724 157.566 36.4512C157.571 36.3065 157.518 36.1654 157.417 36.0573C157.325 35.9671 157.206 35.9056 157.077 35.8807C156.855 35.8687 156.633 35.8687 156.411 35.8807L155.957 35.8331Z" fill="#D1D1D1"/>
<path d="M161.168 39.4739V35.0879H162.078V36.8151H163.796V35.0879H164.672V39.4739H163.796V37.5563H162.078V39.4739H161.168Z" fill="#D1D1D1"/>
<path d="M167.302 37.3035C167.29 36.9325 167.362 36.5633 167.512 36.2198C167.61 36.0033 167.753 35.807 167.932 35.6419C168.095 35.4758 168.293 35.3438 168.514 35.2544C168.824 35.1391 169.155 35.0833 169.488 35.0902C169.783 35.0761 170.078 35.1202 170.353 35.2198C170.628 35.3194 170.878 35.4721 171.086 35.6682C171.469 36.1292 171.676 36.6965 171.676 37.2805C171.676 37.8644 171.469 38.4317 171.086 38.8928C170.879 39.0879 170.63 39.2402 170.356 39.3398C170.082 39.4393 169.789 39.4839 169.495 39.4707C169.199 39.4858 168.903 39.4421 168.627 39.3425C168.35 39.2429 168.099 39.0896 167.89 38.8928C167.684 38.6778 167.526 38.4265 167.425 38.1536C167.324 37.8808 167.282 37.5917 167.302 37.3035ZM168.241 37.3035C168.211 37.6958 168.339 38.0845 168.598 38.3936C168.712 38.5108 168.85 38.6043 169.005 38.6684C169.159 38.7324 169.326 38.7655 169.495 38.7655C169.664 38.7655 169.831 38.7324 169.986 38.6684C170.14 38.6043 170.279 38.5108 170.392 38.3936C170.652 38.0769 170.776 37.6816 170.743 37.2837C170.775 36.8962 170.656 36.5109 170.406 36.2001C170.289 36.0859 170.148 35.9951 169.992 35.933C169.836 35.871 169.668 35.839 169.499 35.839C169.329 35.839 169.162 35.871 169.006 35.933C168.85 35.9951 168.709 36.0859 168.591 36.2001C168.34 36.5079 168.215 36.8903 168.241 37.2772V37.3035Z" fill="#D1D1D1"/>
<path d="M173.43 39.4739V35.0879H176.848V35.8291H174.375V36.8015H176.677V37.5427H174.375V38.7327H176.933V39.4739H173.43Z" fill="#D1D1D1"/>
<path d="M183.071 37.305C183.057 36.9343 183.126 36.565 183.274 36.2208C183.378 36.0069 183.52 35.8113 183.694 35.6425C183.86 35.4762 184.06 35.3442 184.283 35.2548C184.591 35.1395 184.92 35.0836 185.251 35.0906C185.546 35.0755 185.842 35.1192 186.119 35.2188C186.396 35.3185 186.647 35.4718 186.856 35.6688C187.238 36.1301 187.446 36.6977 187.446 37.282C187.446 37.8663 187.238 38.4339 186.856 38.8952C186.42 39.2674 185.851 39.4736 185.261 39.4736C184.671 39.4736 184.103 39.2674 183.666 38.8952C183.459 38.6806 183.3 38.4295 183.198 38.1564C183.095 37.8833 183.052 37.5939 183.071 37.305ZM184.01 37.305C183.982 37.6964 184.106 38.0841 184.36 38.3958C184.475 38.5131 184.614 38.6069 184.769 38.671C184.924 38.7351 185.092 38.7683 185.261 38.7683C185.431 38.7683 185.598 38.7351 185.753 38.671C185.908 38.6069 186.048 38.5131 186.162 38.3958C186.418 38.0775 186.542 37.683 186.512 37.2853C186.543 36.8967 186.421 36.5111 186.169 36.2011C186.057 36.0812 185.917 35.9864 185.761 35.9239C185.604 35.8613 185.435 35.8325 185.265 35.8397C185.094 35.8343 184.924 35.8639 184.767 35.9263C184.609 35.9887 184.468 36.0825 184.353 36.2011C184.104 36.5099 183.982 36.8925 184.01 37.2787V37.305Z" fill="#D1D1D1"/>
<path d="M190.07 35.0876H193.203V35.8217H190.915V36.8413H192.046C192.31 36.835 192.574 36.874 192.826 36.9569C193.04 37.0447 193.224 37.1988 193.352 37.3987C193.502 37.621 193.58 37.888 193.573 38.16C193.582 38.4323 193.504 38.6999 193.352 38.9213C193.227 39.1119 193.054 39.2625 192.852 39.3563C192.592 39.4436 192.319 39.4827 192.046 39.4718H190.096L190.07 35.0876ZM190.915 38.7377H191.741C191.926 38.7443 192.111 38.7306 192.293 38.697C192.403 38.6696 192.501 38.6051 192.572 38.5134C192.651 38.4144 192.693 38.2888 192.689 38.16C192.696 38.0726 192.681 37.9848 192.644 37.9059C192.608 37.827 192.551 37.7598 192.481 37.7114C192.263 37.6036 192.021 37.5567 191.78 37.5754H190.915V38.7377Z" fill="#D1D1D1"/>
<path d="M196.203 35.0879H197.162V38.6837H198.535V35.0879H199.494V38.6837H200.918V35.0879H201.907V38.6837H202.335V40.3511H201.538V39.4069H196.233L196.203 35.0879Z" fill="#D1D1D1"/>
<path d="M204.961 39.4736V35.0876H208.372V35.8288H205.889V36.8012H208.201V37.5424H205.889V38.7324H208.465V39.4736H204.961Z" fill="#D1D1D1"/>
<path d="M213.623 37.838L214.598 38.1004C214.485 38.508 214.212 38.8711 213.824 39.1303C213.375 39.3907 212.832 39.5091 212.29 39.4647C211.748 39.4204 211.242 39.2161 210.859 38.8875C210.412 38.4539 210.184 37.8883 210.225 37.3132C210.179 36.7165 210.409 36.1282 210.867 35.6733C211.083 35.4797 211.345 35.3275 211.636 35.2268C211.927 35.1261 212.24 35.0793 212.555 35.0895C213.105 35.0698 213.641 35.2348 214.049 35.5486C214.299 35.765 214.476 36.0348 214.56 36.3292L213.561 36.5326C213.51 36.3272 213.379 36.1423 213.189 36.0078C212.995 35.8803 212.754 35.8131 212.508 35.8176C212.337 35.8124 212.166 35.8404 212.009 35.8995C211.852 35.9586 211.713 36.0473 211.602 36.1587C211.343 36.4796 211.223 36.8666 211.262 37.2542C211.217 37.6565 211.337 38.0596 211.602 38.3956C211.709 38.5055 211.844 38.5933 211.997 38.6524C212.15 38.7115 212.317 38.7403 212.485 38.7367C212.739 38.7413 212.985 38.6639 213.174 38.5202C213.404 38.3383 213.561 38.0996 213.623 37.838Z" fill="#D1D1D1"/>
<path d="M217.659 39.4736V35.8288H216.352V35.0876H219.855V35.8288H218.541V39.4736H217.659Z" fill="#D1D1D1"/>
<path d="M222.48 35.089H224.151C224.398 35.0838 224.644 35.0974 224.889 35.1298C225.047 35.1582 225.197 35.2208 225.329 35.3136C225.461 35.4091 225.569 35.5349 225.647 35.6813C225.733 35.836 225.778 36.0126 225.776 36.192C225.778 36.3942 225.723 36.5925 225.618 36.762C225.514 36.9316 225.364 37.0649 225.187 37.1452C225.42 37.2074 225.627 37.3486 225.776 37.547C225.919 37.7417 225.992 37.9824 225.983 38.2278C225.982 38.4315 225.936 38.6321 225.848 38.8134C225.763 38.992 225.639 39.1462 225.485 39.2628C225.318 39.3843 225.124 39.4572 224.922 39.4739C224.779 39.4739 224.442 39.4739 223.905 39.4739H222.48V35.089ZM223.322 35.8175V36.832H223.879C224.209 36.832 224.41 36.832 224.488 36.832C224.617 36.826 224.739 36.7702 224.831 36.6754C224.873 36.6308 224.906 36.5775 224.927 36.5189C224.948 36.4603 224.957 36.3976 224.954 36.335C224.96 36.2141 224.923 36.0953 224.85 36.0013C224.766 35.9119 224.653 35.8586 224.533 35.8515C224.449 35.8515 224.209 35.8515 223.808 35.8515L223.322 35.8175ZM223.322 37.5674V38.7385H224.106C224.297 38.7555 224.49 38.7555 224.682 38.7385C224.801 38.7215 224.911 38.6613 224.993 38.5683C225.074 38.4628 225.116 38.3295 225.109 38.1938C225.113 38.0754 225.081 37.9588 225.019 37.8602C224.954 37.7632 224.861 37.6914 224.753 37.6559C224.509 37.6021 224.258 37.5815 224.009 37.5946L223.322 37.5674Z" fill="#D1D1D1"/>
<path d="M228.618 37.3037C228.607 36.9327 228.678 36.5636 228.828 36.2201C228.927 36.0036 229.07 35.8073 229.249 35.6421C229.411 35.4761 229.61 35.344 229.83 35.2547C230.14 35.1393 230.471 35.0835 230.805 35.0905C231.099 35.0763 231.394 35.1205 231.669 35.22C231.945 35.3196 232.195 35.4724 232.403 35.6684C232.785 36.1294 232.993 36.6968 232.993 37.2807C232.993 37.8647 232.785 38.432 232.403 38.893C232.195 39.0882 231.947 39.2405 231.673 39.34C231.399 39.4396 231.105 39.4842 230.812 39.4709C230.516 39.486 230.22 39.4423 229.943 39.3427C229.667 39.2431 229.416 39.0899 229.207 38.893C229.001 38.678 228.843 38.4268 228.742 38.1539C228.64 37.881 228.598 37.592 228.618 37.3037ZM229.557 37.3037C229.528 37.6961 229.655 38.0847 229.915 38.3939C230.028 38.511 230.167 38.6046 230.321 38.6686C230.476 38.7326 230.643 38.7657 230.812 38.7657C230.981 38.7657 231.148 38.7326 231.302 38.6686C231.457 38.6046 231.595 38.511 231.709 38.3939C231.968 38.0772 232.093 37.6818 232.059 37.284C232.092 36.8964 231.972 36.5111 231.723 36.2004C231.605 36.0862 231.464 35.9953 231.308 35.9333C231.152 35.8713 230.985 35.8393 230.815 35.8393C230.646 35.8393 230.478 35.8713 230.322 35.9333C230.166 35.9953 230.025 36.0862 229.908 36.2004C229.656 36.5081 229.532 36.8906 229.557 37.2774V37.3037Z" fill="#D1D1D1"/>
</svg>
