<svg width="266" height="57" viewBox="0 0 266 57" fill="none" xmlns="http://www.w3.org/2000/svg">
<path d="M54.4248 22.5332C54.1794 21.297 53.8497 20.0805 53.4382 18.8928C52.6634 16.6529 51.6208 14.5228 50.3348 12.5525C48.8356 10.2457 47.023 8.17596 44.9531 6.40769C42.6712 4.48816 40.1059 2.96339 37.356 1.89219C34.5942 0.796681 31.681 0.168011 28.7274 0.0301227C26.6975 -0.0676814 24.6635 0.0728646 22.664 0.449087C21.0285 0.751666 19.4246 1.2162 17.8744 1.83632C16.2061 2.49118 14.5997 3.30463 13.0757 4.26632C11.3314 5.37539 9.71016 6.6805 8.24117 8.15803C6.97382 9.44459 5.8349 10.8607 4.84176 12.3849C4.14091 13.4386 3.50865 14.5396 2.9492 15.6808C1.91654 17.7755 1.15071 20.0007 0.670966 22.3004C0.413189 23.4615 0.239296 24.641 0.150739 25.829C0.00927474 27.155 -0.032709 28.4904 0.0251664 29.8231C0.13599 31.7584 0.436524 33.677 0.922111 35.549C1.34623 37.3732 1.94726 39.1481 2.716 40.8466C4.02415 43.6751 5.77613 46.2582 7.90034 48.4903C9.26587 49.9237 10.7685 51.209 12.3851 52.3262C14.987 54.086 17.8553 55.3795 20.8701 56.1527C23.0311 56.7194 25.2518 57.004 27.4806 57C28.3776 56.9441 29.2745 56.9441 30.1715 56.8603C32.0821 56.6812 33.9681 56.2847 35.7953 55.6779C38.3467 54.8504 40.7651 53.6329 42.9709 52.0655C44.6644 50.8841 46.2205 49.5032 47.6081 47.9503C49.304 46.1073 50.7467 44.0301 51.8954 41.7776C52.8948 39.8145 53.6599 37.7322 54.1737 35.5769C54.5254 34.0863 54.7712 32.5708 54.9092 31.0428C55.0303 29.4283 55.0303 27.8066 54.9092 26.1921C54.8374 24.9538 54.676 23.7435 54.4248 22.5332ZM39.3293 49.17C38.5403 50.008 37.6581 50.7456 36.7012 51.3672C35.3726 52.2576 33.9164 52.9237 32.3869 53.341C29.0632 54.2479 25.5519 54.079 22.3232 52.8569C20.3424 52.0959 18.5302 50.9273 16.9953 49.4214C16.502 48.9372 16.0984 48.4345 15.5961 47.9224C15.5154 47.8386 15.4347 47.7269 15.3181 47.5872C15.4002 47.5617 15.4842 47.543 15.5692 47.5314C18.0627 47.5314 20.5921 47.5314 23.0856 47.4755C23.5251 47.4755 23.9825 47.4755 24.4041 47.4755C24.8257 47.4755 24.7629 47.4196 24.736 46.9914C24.5656 46.9914 24.3772 46.9914 24.2157 46.9355C23.524 46.89 22.867 46.6048 22.3501 46.1255C21.8351 45.6151 21.5298 44.918 21.498 44.1796C21.4743 43.6235 21.4923 43.0663 21.5518 42.5131C21.5712 42.4359 21.5982 42.361 21.6326 42.2897L22.0721 42.541C22.4308 42.7924 22.7896 43.0531 23.1125 43.3045C23.9784 43.9243 24.9876 44.2938 26.0365 44.3752C27.6438 44.5346 29.2583 44.1597 30.6468 43.3045C31.2027 42.9795 31.7029 42.5611 32.1268 42.0662C32.1574 42.0316 32.1939 42.0032 32.2344 41.9824C32.2514 41.9811 32.2677 41.9753 32.2819 41.9655C32.296 41.9557 32.3075 41.9423 32.3152 41.9266C32.3531 41.9862 32.3805 42.0524 32.3959 42.1221C32.6089 43.0425 32.5904 44.0043 32.3421 44.9152C32.2189 45.3698 31.981 45.7821 31.6531 46.1094C31.3251 46.4367 30.9189 46.6673 30.4764 46.7772C30.0907 46.861 29.714 46.9169 29.3014 46.9727C29.2476 47.1496 29.3014 47.2614 29.4898 47.3452C29.6025 47.3985 29.7247 47.427 29.8486 47.429C30.2612 47.429 30.6737 47.429 31.0505 47.429L35.0867 47.4848C36.3435 47.5788 37.6049 47.5881 38.8628 47.5127C39.1409 47.5127 39.3831 47.429 39.6611 47.3731C39.9392 47.3172 40.0737 47.2055 40.1006 46.9448C40.236 46.2268 40.5916 45.5736 41.1142 45.0828C41.4 44.8208 41.5847 44.4603 41.6344 44.0679C41.6619 43.8236 41.6619 43.5767 41.6344 43.3324C41.6302 43.2598 41.6004 43.1913 41.5509 43.1398C41.5013 43.0884 41.4353 43.0575 41.3653 43.0531C41.0322 43.0035 40.7245 42.8402 40.4907 42.5891C40.2568 42.3379 40.1101 42.0131 40.0737 41.6659C39.9163 40.993 39.8708 40.2971 39.9392 39.6083C39.993 38.7331 40.0199 37.8673 40.0468 36.9642C40.0468 36.4242 40.0468 35.9214 39.993 35.3814C39.993 34.4504 39.9392 33.5193 39.9392 32.5883C39.9632 32.1886 40.0263 31.7924 40.1275 31.4059C40.1542 31.2249 40.2457 31.0611 40.3837 30.9471C40.5217 30.8332 40.6961 30.7776 40.872 30.7914C40.9527 30.7914 41.0065 30.7914 41.0873 30.7914C41.168 30.7914 41.3115 30.7076 41.3115 30.5587C41.3154 30.5226 41.3118 30.486 41.3008 30.4516C41.2898 30.4171 41.2718 30.3855 41.2479 30.359C41.224 30.3324 41.1949 30.3116 41.1625 30.2978C41.1302 30.2841 41.0953 30.2778 41.0604 30.2793C40.7285 30.2793 40.4056 30.2793 40.0468 30.2793H38.4861C38.1543 30.2793 37.8224 30.2793 37.5174 30.3352C37.4517 30.3408 37.3877 30.3598 37.3291 30.3911C37.2753 30.4469 37.1676 30.5307 37.1676 30.5866C37.1775 30.6313 37.1972 30.6731 37.2252 30.7086C37.2532 30.7442 37.2888 30.7725 37.3291 30.7914C37.4893 30.8598 37.6542 30.9158 37.8224 30.959C37.9686 30.9785 38.1035 31.0507 38.2035 31.1631C38.3035 31.2754 38.3623 31.4207 38.3695 31.5735C38.4233 32.0018 38.513 32.4207 38.5399 32.849C38.6207 34.618 38.5399 36.4242 38.5399 38.2024C38.5399 39.4128 38.5399 40.6231 38.4772 41.8335V42.0941C38.4809 42.1235 38.479 42.1534 38.4716 42.182C38.4641 42.2106 38.4512 42.2374 38.4337 42.2608C38.4162 42.2842 38.3943 42.3037 38.3695 42.3183C38.3446 42.3328 38.3172 42.3421 38.2888 42.3455C37.8078 42.4289 37.3227 42.4849 36.8358 42.5131C36.3963 42.5131 36.2617 42.3735 36.2348 41.9172C36.2028 41.6078 36.2028 41.2957 36.2348 40.9862C36.329 39.1813 36.329 37.3725 36.2348 35.5676C36.172 34.1617 36.1451 32.7745 36.1451 31.3407C36.1708 30.5679 36.2367 29.7972 36.3424 29.0318C36.3826 28.7577 36.4848 28.4975 36.6407 28.2725C36.7967 28.0476 37.0018 27.8642 37.2394 27.7376C37.5209 27.5905 37.824 27.493 38.1363 27.449C38.3527 27.4073 38.5714 27.3794 38.7911 27.3652C38.8955 27.3493 38.9978 27.3212 39.0961 27.2814C39.4459 27.1697 39.5356 27.0021 39.392 26.5738C38.8987 26.5738 38.4054 26.518 37.9121 26.518H31.6245C31.185 26.518 30.7276 26.518 30.306 26.518C30.0823 26.5183 29.8595 26.5464 29.6423 26.6018C29.4001 26.6669 29.3463 26.7507 29.3463 26.9742C29.3463 27.1976 29.4539 27.2814 29.6423 27.3094C30.0549 27.3931 30.4405 27.449 30.8531 27.5049C30.9611 27.5377 31.0726 27.5565 31.185 27.5607C31.4207 27.5888 31.6438 27.686 31.828 27.841C32.0123 27.996 32.1502 28.2024 32.2255 28.4359C32.3962 28.8582 32.4905 29.3095 32.5035 29.7673C32.5586 30.6589 32.5286 31.5539 32.4138 32.4393C32.4138 32.4393 32.4138 32.4952 32.36 32.5511C32.3062 32.6069 32.2255 32.4952 32.1986 32.4393C31.4588 31.484 30.4218 30.8257 29.2655 30.5773C27.7067 30.1582 26.0706 30.1582 24.5117 30.5773C23.6922 30.7956 22.9254 31.1888 22.2604 31.7318C22.099 31.8807 21.9644 32.0483 21.7402 32.2438C21.6948 32.1476 21.6674 32.0434 21.6595 31.9366C21.6595 31.2569 21.5787 30.6052 21.5787 29.9349C21.5972 29.5049 21.6695 29.0792 21.794 28.6687C21.8716 28.4208 21.9933 28.1903 22.1528 27.989C22.3432 27.7388 22.6198 27.5753 22.9242 27.5328L24.431 27.2535C24.5925 27.2535 24.7629 27.1976 24.7629 26.9742C24.785 26.8719 24.7685 26.7647 24.7168 26.6746C24.6651 26.5845 24.5821 26.5185 24.4848 26.49C24.2549 26.4141 24.017 26.3672 23.7762 26.3504C22.9054 26.3085 22.0328 26.3365 21.1661 26.4342C20.9011 26.4667 20.6347 26.4853 20.3679 26.49C19.1121 26.49 17.8474 26.49 16.5828 26.5459C16.2567 26.5781 15.928 26.5302 15.623 26.4063C15.7037 26.2945 15.7576 26.1828 15.8114 26.1269C16.9193 24.8364 18.2073 23.7255 19.6324 22.8311C21.4158 21.7287 23.3907 21.0011 25.4446 20.6897C26.4929 20.4774 27.5612 20.39 28.6287 20.429C29.9887 20.4874 31.3359 20.7252 32.6381 21.1366C33.8025 21.5325 34.931 22.0341 36.0106 22.6356C37.5329 23.5012 38.8914 24.6463 40.0199 26.0152C40.9921 27.1948 41.8372 28.481 42.5403 29.8511C43.2006 31.1282 43.655 32.5088 43.8857 33.9383C44.1803 35.5926 44.2557 37.281 44.11 38.9566C43.8937 41.5335 43.0411 44.009 41.6344 46.1441C41.0019 47.2566 40.2263 48.2746 39.3293 49.17ZM17.8474 31.8342C17.8474 33.0445 17.9013 34.2549 17.9013 35.4652C17.9013 36.6755 17.9013 37.8393 17.8474 39.0497C17.8414 39.2184 17.8234 39.3864 17.7936 39.5524C16.6235 39.6502 15.4477 39.6502 14.2776 39.5524C14.2981 39.4391 14.325 39.3272 14.3583 39.2173C15.0759 37.2155 15.7845 35.1859 16.502 33.1842C16.6438 32.7893 16.8086 32.4038 16.9953 32.0297C17.0809 31.8596 17.193 31.7054 17.3272 31.5735C17.3808 31.5196 17.4483 31.483 17.5215 31.4681C17.5948 31.4532 17.6706 31.4607 17.7398 31.4897C17.8744 31.5455 17.8474 31.6852 17.8474 31.8342ZM17.5425 30.1956L15.9818 30.028C15.7307 30.028 15.4885 29.9162 15.2373 29.8883C14.9862 29.8604 14.9144 29.8883 14.8786 30.1676V30.4469C14.8837 30.5245 14.9139 30.598 14.9644 30.6555C15.0149 30.713 15.0826 30.751 15.1566 30.7635C15.2223 30.7691 15.2863 30.7881 15.345 30.8193C15.4499 30.8502 15.542 30.9163 15.6069 31.0072C15.6718 31.0982 15.7059 31.2089 15.7037 31.3221C15.7179 31.605 15.6623 31.887 15.5423 32.1414C14.8098 33.6529 14.2094 35.2295 13.7484 36.8524C13.4165 37.8393 13.0039 38.8262 12.6272 39.8038C12.5945 39.9243 12.5387 40.0367 12.4632 40.1342C12.3877 40.2318 12.294 40.3126 12.1877 40.3717C12.1877 40.2879 12.098 40.2321 12.098 40.1483C11.8183 38.5855 11.7668 36.988 11.9456 35.4093C12.0771 34.3414 12.29 33.2861 12.5824 32.2531C13.0137 30.8272 13.6164 29.4634 14.3763 28.1938C14.5467 27.9145 14.7351 27.6631 14.8965 27.3745C14.9485 27.294 15.0175 27.227 15.0984 27.1786C15.1793 27.1301 15.2698 27.1016 15.3629 27.0952C15.9146 27.035 16.4695 27.1732 16.9348 27.4867C17.4001 27.8002 17.7476 28.27 17.9192 28.8176C18.0001 29.1507 18.0001 29.4994 17.9192 29.8324C17.8474 30.1676 17.7936 30.2235 17.5425 30.1956ZM13.291 41.3679C13.291 41.3679 13.3448 41.3121 13.3448 41.2841C13.4646 41.089 13.6327 40.9308 13.8315 40.826C14.0302 40.7212 14.2524 40.6736 14.4749 40.6883C15.044 40.6835 15.6115 40.6243 16.1702 40.5114C16.5529 40.4416 16.9445 40.4416 17.3272 40.5114C17.8205 40.5952 17.9013 40.7069 17.9282 41.219V42.9972C17.9282 43.5559 17.9282 44.1238 17.9282 44.6824C17.8923 45.0347 17.8293 45.3834 17.7398 45.7252C17.6611 45.9701 17.4939 46.1737 17.2734 46.2931C16.6795 46.6237 16.037 46.8502 15.3719 46.9634C15.2384 46.9986 15.0974 46.9843 14.973 46.9231C14.8485 46.862 14.7486 46.7577 14.6902 46.6283C14.4391 46.2093 14.17 45.781 13.9457 45.3341C13.6497 44.7383 13.3717 44.1238 13.1026 43.4721C12.9346 43.1384 12.863 42.7614 12.8965 42.3865C12.9299 42.0116 13.0669 41.6547 13.291 41.3586V41.3679ZM22.0182 37.6997C24.2427 37.6997 26.4312 37.6159 28.6556 37.6159C29.7858 37.6159 30.907 37.6717 32.0371 37.6997C32.1178 37.6997 32.2255 37.6997 32.3331 37.6997C32.3801 38.1188 32.3435 38.5435 32.2255 38.9473C32.0591 39.6713 31.728 40.3433 31.2598 40.9071C30.7916 41.4708 30.2 41.9098 29.5346 42.1872C28.0809 42.8666 26.4327 42.9465 24.9243 42.4107C24.3053 42.2339 23.7312 41.9179 23.2429 41.4851C22.7547 41.0522 22.3641 40.5132 22.099 39.9062C21.7895 39.2174 21.6567 38.4574 21.7133 37.6997C21.8209 37.7183 21.9375 37.6904 22.0182 37.6904V37.6997ZM21.8209 35.9586C21.8655 35.5179 21.9776 35.0873 22.1528 34.6831C22.5102 33.8863 23.0595 33.1987 23.7477 32.6866C24.4359 32.1745 25.2397 31.8552 26.0814 31.7597C27.197 31.5638 28.3436 31.7194 29.3732 32.2066C30.3938 32.6717 31.2408 33.4691 31.786 34.4783C31.9642 34.8236 32.0941 35.1935 32.1716 35.5769C32.2524 35.9773 32.1716 36.089 31.7591 36.1169C31.3465 36.1448 31.185 36.1169 30.8621 36.1169C29.0682 36.0052 27.1577 36.1169 25.2921 36.0611L22.1348 35.9773C22.0295 35.9916 21.9224 35.9821 21.8209 35.9493V35.9586ZM39.114 46.4327V46.6841C39.0602 46.6841 39.0333 46.74 39.0064 46.74C38.2083 46.8014 37.4181 46.5413 36.7999 46.0138C36.6072 45.8306 36.4632 45.5991 36.3815 45.3415C36.2998 45.0839 36.2833 44.8089 36.3335 44.5428C36.3335 44.2914 36.4142 44.2355 36.6653 44.2076C37.447 44.0907 38.2439 44.1575 38.9974 44.4031C39.1662 44.4774 39.3308 44.5613 39.4907 44.6545C39.5234 44.6733 39.5519 44.6992 39.5741 44.7304C39.5963 44.7616 39.6118 44.7975 39.6194 44.8354C39.6271 44.8734 39.6268 44.9127 39.6185 44.9506C39.6102 44.9884 39.5942 45.024 39.5714 45.0548C39.5506 45.1049 39.5235 45.1518 39.4907 45.1945C39.2541 45.5616 39.1234 45.9912 39.114 46.4327ZM36.6115 10.9697C35.6454 10.3476 34.4984 10.1003 33.3736 10.2715C32.9605 10.3388 32.5651 10.4933 32.2118 10.7255C31.8585 10.9577 31.5548 11.2627 31.3195 11.6215C31.064 12.0096 30.9379 12.474 30.9608 12.9435V13.5953C30.665 13.6528 30.3647 13.6809 30.0638 13.679C29.436 13.679 28.8081 13.679 28.1982 13.6232C27.8215 13.6232 27.7587 13.5115 27.7587 13.1111C27.7354 12.6952 27.83 12.2813 28.0309 11.9206C28.2317 11.5599 28.53 11.2682 28.8888 11.0815C28.9696 11.0815 29.0234 10.9977 29.1041 10.9697C29.1886 10.938 29.2586 10.8744 29.3001 10.7916C29.3416 10.7089 29.3517 10.613 29.3283 10.5229C29.3273 10.4796 29.3177 10.4371 29.3002 10.3978C29.2826 10.3586 29.2576 10.3235 29.2265 10.2947C29.1954 10.2659 29.1589 10.244 29.1193 10.2304C29.0798 10.2168 29.038 10.2118 28.9965 10.2156C28.6992 10.1692 28.3968 10.1692 28.0995 10.2156C27.5793 10.2994 27.086 10.4391 26.5657 10.5508C26.1875 10.6623 25.7869 10.6623 25.4087 10.5508C24.9719 10.408 24.5015 10.4222 24.0735 10.5912C23.6454 10.7601 23.2848 11.0739 23.0497 11.4818C22.8017 11.9432 22.7071 12.4766 22.7806 12.9994C22.8345 13.3718 22.8345 13.3718 22.5026 13.4277C21.5148 13.616 20.4948 13.4657 19.5965 12.9994C19.1643 12.7675 18.8023 12.4161 18.5506 11.9839C18.2989 11.5518 18.1673 11.0558 18.1703 10.5508C18.1222 9.94298 18.2602 9.33491 18.5646 8.81329C18.869 8.29168 19.3243 7.88315 19.8656 7.64596C20.767 7.18349 21.7323 6.86939 22.7268 6.71493C24.5991 6.4356 26.4983 6.40743 28.3776 6.63114C29.2424 6.71916 30.0961 6.90013 30.9249 7.17114C31.6697 7.43395 32.367 7.82416 32.9879 8.32562C33.4812 8.71665 34.0014 9.08906 34.4947 9.45216C35.0209 9.83339 35.647 10.0381 36.2886 10.0387C37.3291 10.0387 38.3785 10.1318 39.419 10.1877C39.7419 10.1877 40.0468 10.2715 40.3787 10.3273C40.7106 10.3832 40.7913 10.6066 40.567 10.858C40.388 11.0954 40.1867 11.3137 39.9661 11.5097L38.5938 12.748C37.9608 13.2314 37.2074 13.5158 36.4232 13.5673C36.0875 13.6232 35.7453 13.6232 35.4096 13.5673C35.0508 13.4835 34.9701 13.2322 35.1585 12.9156C35.3956 12.6143 35.7049 12.3831 36.0554 12.2453C36.2527 12.1522 36.4411 12.0404 36.6025 11.9566C36.6893 11.9099 36.7622 11.8396 36.8134 11.7532C36.8645 11.6667 36.892 11.5674 36.893 11.466C36.8939 11.3645 36.8682 11.2648 36.8186 11.1773C36.769 11.0899 36.6974 11.0181 36.6115 10.9697ZM34.9163 11.398C34.9163 11.5097 34.9163 11.5935 34.8625 11.6494C34.4561 12.3891 34.154 13.1855 33.9655 14.0142C33.7951 14.5822 33.6068 15.1408 33.4184 15.7087C33.3726 15.759 33.3333 15.8153 33.3018 15.8763C33.1673 15.6808 33.0327 15.5132 32.9161 15.3456C32.5433 14.8062 32.2417 14.2176 32.0192 13.5953C31.9606 13.4002 31.9157 13.2011 31.8846 12.9994C31.8199 12.6719 31.8762 12.3312 32.0424 12.0449C32.2086 11.7585 32.4724 11.5476 32.7816 11.4539C33.2144 11.3362 33.6623 11.289 34.109 11.3142C34.375 11.3681 34.6453 11.3962 34.9163 11.398ZM26.9335 11.8728C26.8707 12.6363 26.8169 13.4277 26.7362 14.1818C26.6881 14.663 26.538 15.1272 26.2967 15.5411C26.2495 15.6205 26.1954 15.6953 26.1352 15.7646C26.1053 15.7965 26.0687 15.8207 26.0283 15.8355C25.9878 15.8503 25.9447 15.8552 25.9021 15.8498C25.8596 15.8444 25.8188 15.8288 25.783 15.8044C25.7472 15.7799 25.7173 15.7471 25.6957 15.7087C25.3517 15.0449 24.9166 14.4365 24.4041 13.9025C24.0882 13.5433 23.8876 13.0911 23.8301 12.6084C23.8301 12.5246 23.8301 12.4687 23.8301 12.3849C23.8301 11.817 23.9646 11.6494 24.4848 11.5656C24.879 11.5377 25.2746 11.5377 25.6688 11.5656H26.6285C26.9335 11.5377 26.9335 11.5935 26.9335 11.8728ZM19.2736 15.597C19.3501 15.3091 19.443 15.0262 19.5516 14.7497C19.6072 14.5741 19.7177 14.4229 19.8656 14.32C20.0135 14.2171 20.1903 14.1684 20.3679 14.1818C20.8881 14.1818 21.4173 14.2749 21.9375 14.3028C22.4577 14.3308 22.8345 14.3866 23.3637 14.3866C23.4751 14.3832 23.5861 14.4037 23.6895 14.447C23.7929 14.4903 23.8866 14.5553 23.9646 14.638C24.2679 14.965 24.5111 15.3468 24.6822 15.7646C24.8436 16.0997 24.9782 16.4721 25.1486 16.8073C25.2636 17.029 25.412 17.2301 25.5881 17.4032C25.6319 17.4563 25.6862 17.4989 25.7474 17.5281C25.8085 17.5573 25.875 17.5724 25.9424 17.5724C26.0097 17.5724 26.0762 17.5573 26.1374 17.5281C26.1985 17.4989 26.2529 17.4563 26.2967 17.4032C26.4919 17.1984 26.6499 16.9587 26.7631 16.6956C27.0411 16.0997 27.3102 15.5132 27.5614 14.9173C27.5958 14.8142 27.6641 14.7269 27.7543 14.6708C27.8445 14.6146 27.9508 14.5931 28.0547 14.6101C28.6556 14.6101 29.2925 14.5542 29.8486 14.5542C30.2429 14.5494 30.6366 14.5868 31.0236 14.6659C31.215 14.6952 31.3966 14.7724 31.5529 14.8908C31.7091 15.0092 31.8353 15.1653 31.9205 15.3456C32.1178 15.7646 32.2793 16.1835 32.4407 16.6118C32.5573 16.8911 32.6381 17.1983 32.7457 17.487C32.7723 17.6024 32.8281 17.7084 32.9071 17.7942C32.952 17.8653 33.0132 17.9236 33.0853 17.964C33.1573 18.0044 33.2379 18.0256 33.3197 18.0256C33.4016 18.0256 33.4822 18.0044 33.5542 17.964C33.6262 17.9236 33.6875 17.8653 33.7323 17.7942C33.8531 17.6212 33.9469 17.4295 34.0104 17.2263C34.1449 16.8352 34.2256 16.4163 34.3422 16.0159C34.4171 15.7195 34.5069 15.4274 34.6113 15.1408C34.666 15.0011 34.7525 14.8773 34.8634 14.78C34.9743 14.6827 35.1064 14.6148 35.2482 14.5822C35.9136 14.424 36.6027 14.405 37.2753 14.5263C37.3853 14.5344 37.4906 14.5757 37.5783 14.6452C37.6659 14.7147 37.7321 14.8093 37.7686 14.9173C37.9031 15.2897 38.0197 15.6808 38.1274 16.0718C38.4861 17.4032 38.8628 18.6973 39.1947 20.0194C39.3562 20.6711 39.4997 21.3135 39.6342 21.9652C39.648 22.0671 39.648 22.1706 39.6342 22.2725L38.8898 21.6859C37.7749 20.8334 36.5487 20.1499 35.2482 19.6563C34.0146 19.144 32.7301 18.7755 31.4182 18.5577C29.8026 18.2337 28.1524 18.1366 26.5119 18.269C25.4393 18.3688 24.3752 18.5492 23.3278 18.809C21.7722 19.259 20.2684 19.8833 18.8431 20.6711C18.3509 20.9323 17.8746 21.2246 17.4169 21.5463C17.3278 21.6001 17.2348 21.6467 17.1389 21.6859C17.1389 21.5463 17.1389 21.4625 17.1389 21.3694C17.5831 19.7258 18.1623 18.1248 18.87 16.5839C19.0478 16.2759 19.1837 15.9437 19.2736 15.597ZM52.3977 29.7487C52.321 31.4207 52.0806 33.0802 51.6802 34.7017C51.1895 36.7325 50.4605 38.693 49.5096 40.5393C48.5842 42.3315 47.4615 44.0062 46.164 45.5296C45.1556 46.6945 44.0545 47.769 42.8722 48.7417L42.2174 49.2538C42.2174 49.2538 42.1546 49.2538 42.1546 49.1979C42.1546 49.1421 42.2981 48.9652 42.3789 48.8814C43.3976 47.5911 44.237 46.1589 44.8724 44.6265C45.3903 43.3088 45.8394 41.9631 46.2178 40.5952C46.4225 39.8637 46.5163 39.1035 46.4958 38.3421C46.5544 35.9313 46.2116 33.528 45.4823 31.2383C45.1442 30.0188 44.6842 28.8393 44.11 27.719C43.7152 26.9348 43.2137 26.2136 42.621 25.5776C42.3789 25.289 42.1277 25.0097 41.8586 24.7304C41.4727 24.335 41.1889 23.8451 41.0335 23.3059C40.6209 21.9001 40.2083 20.5128 39.7957 19.0511C39.3831 17.5894 38.8987 15.9787 38.4861 14.3959C38.4613 14.3417 38.4404 14.2857 38.4233 14.2284C38.3426 14.0515 38.4233 13.9397 38.5669 13.828C39.0871 13.4649 39.6342 13.0646 40.1275 12.6456C40.7504 12.1792 41.2728 11.583 41.6613 10.8953C41.8304 10.6168 41.9176 10.2933 41.9125 9.96423C41.9255 9.84598 41.8999 9.7266 41.8397 9.62529C41.7795 9.52397 41.6882 9.4466 41.5806 9.40561C41.3312 9.31455 41.0766 9.23991 40.8182 9.18217C39.9854 9.11235 39.1485 9.11235 38.3157 9.18217C37.7148 9.18217 37.1138 9.18217 36.5218 9.09837C36.0892 9.05526 35.6794 8.87668 35.3468 8.5863C34.6831 8.11148 34.0552 7.65527 33.4274 7.12458C32.8296 6.6607 32.1454 6.33096 31.4182 6.15631C28.9564 5.50262 26.4109 5.25442 23.8749 5.4208C22.7377 5.47117 21.6123 5.681 20.5293 6.04459C19.8728 6.25199 19.2522 6.56624 18.6906 6.97562C18.3298 7.25765 18.0278 7.61256 17.8028 8.01899C17.5777 8.42541 17.4342 8.87493 17.381 9.34044C17.2599 10.0834 17.3088 10.8455 17.5238 11.5653C17.7388 12.285 18.1139 12.9421 18.6188 13.4835C18.6815 13.5419 18.7234 13.6204 18.7381 13.7065C18.7527 13.7926 18.7391 13.8812 18.6995 13.9584C17.9913 15.6055 17.3919 17.3008 16.9057 19.0325C16.525 20.3107 16.0481 21.5559 15.4795 22.7566C15.1771 23.3354 14.8196 23.8812 14.4122 24.3859C12.5346 26.5532 11.1627 29.1399 10.4028 31.9459C9.83043 34.0639 9.62692 36.2709 9.80186 38.4631C9.93008 40.2456 10.2984 42.0006 10.8961 43.6769C11.5798 45.5929 12.5715 47.3747 13.8291 48.9465C14.316 49.5902 14.8595 50.1856 15.4526 50.7248C15.529 50.7856 15.5931 50.8615 15.641 50.9482C15.641 50.9482 15.641 50.9482 15.641 51.0041C15.5064 50.9203 15.336 50.8645 15.2015 50.7807C13.9472 49.9879 12.7483 49.1043 11.6137 48.1365C6.76856 44.0658 3.58926 38.2407 2.716 31.8342C2.47392 29.7282 2.47392 27.5998 2.716 25.4938C3.20009 20.8968 4.87375 16.5214 7.5595 12.8318C9.73442 9.83853 12.5142 7.37572 15.7037 5.61631C17.8423 4.42672 20.1353 3.56435 22.5116 3.05598C24.0453 2.72316 25.6088 2.56086 27.1757 2.57184C28.2207 2.56268 29.2655 2.6093 30.306 2.71149C33.0104 3.02825 35.6448 3.81179 38.1004 5.02976C43.1162 7.48335 47.214 11.5831 49.7607 16.6956C50.7497 18.6676 51.4683 20.7735 51.8954 22.9521C52.3401 25.1863 52.5089 27.4702 52.3977 29.7487Z" fill="#F22A2A"/>
<path d="M65 31V15H68.2746V21.2989H74.7254V15H78V31H74.7254V24.003H68.2991V31H65Z" fill="#323232"/>
<path d="M80.0125 23.5984C79.9709 22.1587 80.2109 20.7255 80.7174 19.3896C81.0679 18.5549 81.5558 17.7934 82.1582 17.1411C82.7192 16.5071 83.3968 16.0024 84.149 15.6586C85.2075 15.2084 86.3399 14.9872 87.4798 15.0079C88.4877 14.9594 89.4939 15.135 90.4343 15.5236C91.3746 15.9122 92.2284 16.5052 92.9409 17.2646C94.3042 18.7637 94.9859 20.8502 94.9859 23.5243C95.0487 24.6518 94.9017 25.7813 94.5535 26.8484C94.2052 27.9154 93.6625 28.8989 92.9564 29.7427C92.2496 30.4983 91.4023 31.0886 90.4685 31.4758C89.5348 31.863 88.5353 32.0386 87.534 31.9912C86.5256 32.0422 85.5182 31.8702 84.5756 31.486C83.6329 31.1018 82.7755 30.5138 82.0575 29.7592C81.3506 28.927 80.8059 27.954 80.4549 26.8965C80.1038 25.839 79.9535 24.718 80.0125 23.5984ZM83.2272 23.4913C83.1236 25.0103 83.5542 26.5161 84.4356 27.7166C84.8253 28.169 85.2992 28.5302 85.8273 28.7774C86.3554 29.0245 86.9261 29.1521 87.5031 29.1521C88.08 29.1521 88.6507 29.0245 89.1788 28.7774C89.7069 28.5302 90.1808 28.169 90.5705 27.7166C91.4513 26.4942 91.8762 24.9689 91.7635 23.4337C91.8727 21.9269 91.4594 20.4298 90.6015 19.2249C90.1987 18.7846 89.717 18.4346 89.1848 18.1956C88.6526 17.9566 88.0808 17.8334 87.5031 17.8334C86.9253 17.8334 86.3535 17.9566 85.8213 18.1956C85.2891 18.4346 84.8074 18.7846 84.4046 19.2249C83.5283 20.4427 83.1087 21.9632 83.2272 23.4913Z" fill="#323232"/>
<path d="M97 15.0036H103.667C104.65 14.9849 105.633 15.0386 106.608 15.1642C107.234 15.2552 107.831 15.4825 108.352 15.8288C108.873 16.1751 109.306 16.6313 109.616 17.1627C109.96 17.7297 110.136 18.3764 110.125 19.0328C110.131 19.7646 109.914 20.4819 109.5 21.0956C109.096 21.7102 108.518 22.2005 107.833 22.5082C108.754 22.7322 109.573 23.2395 110.166 23.9529C110.716 24.6433 111.009 25.4911 111 26.3608C110.998 27.0969 110.819 27.8224 110.475 28.4798C110.15 29.1411 109.653 29.7106 109.033 30.1332C108.361 30.5631 107.587 30.8226 106.783 30.8876C106.225 30.9438 104.875 30.9839 102.742 31H97.0833L97 15.0036ZM100.333 17.6684V21.3685H102.525C103.833 21.3685 104.65 21.3685 104.967 21.3123C105.471 21.2775 105.948 21.0762 106.317 20.7424C106.484 20.578 106.614 20.3817 106.699 20.1662C106.784 19.9506 106.821 19.7205 106.808 19.4903C106.827 19.0521 106.675 18.6229 106.383 18.2864C106.051 17.955 105.602 17.7547 105.125 17.7245C104.792 17.7245 103.833 17.6684 102.258 17.6684H100.333ZM100.333 24.0332V28.3112H103.433C104.201 28.3341 104.97 28.3019 105.733 28.2149C106.203 28.1416 106.633 27.9149 106.95 27.5728C107.282 27.1954 107.452 26.7102 107.425 26.2163C107.438 25.7827 107.31 25.356 107.058 24.9963C106.802 24.651 106.436 24.3947 106.017 24.266C105.04 24.0628 104.04 23.9845 103.042 24.0332H100.333Z" fill="#323232"/>
<path d="M112.01 23.5982C111.972 22.1589 112.212 20.7265 112.713 19.3895C113.068 18.5581 113.554 17.7977 114.15 17.1411C114.71 16.5048 115.389 16 116.142 15.6585C117.195 15.208 118.322 14.9867 119.456 15.0079C120.461 14.9594 121.464 15.135 122.402 15.5236C123.339 15.9122 124.191 16.5052 124.901 17.2646C126.291 18.7856 126.986 20.8721 126.986 23.5241C127.048 24.6521 126.9 25.782 126.552 26.8491C126.203 27.9161 125.661 28.8993 124.955 29.7424C124.252 30.4997 123.407 31.0911 122.476 31.4784C121.544 31.8657 120.547 32.0403 119.548 31.9909C118.543 32.0429 117.538 31.8714 116.598 31.4871C115.658 31.1029 114.803 30.5143 114.088 29.7589C113.376 28.9297 112.826 27.9582 112.47 26.9007C112.113 25.8431 111.957 24.7206 112.01 23.5982ZM115.215 23.4912C115.112 25.0101 115.542 26.5158 116.42 27.7163C116.803 28.1855 117.279 28.5581 117.813 28.8074C118.347 29.0566 118.927 29.1763 119.51 29.1577C120.093 29.1832 120.674 29.0675 121.209 28.8193C121.744 28.5711 122.219 28.1968 122.599 27.7246C123.48 26.5034 123.907 24.978 123.797 23.4417C123.905 21.935 123.493 20.4379 122.638 19.2331C122.236 18.7937 121.755 18.4446 121.225 18.2063C120.694 17.9679 120.124 17.8452 119.548 17.8452C118.973 17.8452 118.403 17.9679 117.872 18.2063C117.342 18.4446 116.861 18.7937 116.459 19.2331C115.566 20.44 115.123 21.9568 115.215 23.4912Z" fill="#323232"/>
<path d="M129 31.949V15.016H134.497C135.861 14.9614 137.227 15.0468 138.574 15.2707C139.56 15.539 140.423 16.139 141.016 16.9691C141.702 17.9241 142.047 19.0815 141.995 20.2555C142.024 21.1601 141.831 22.058 141.433 22.8711C141.096 23.5456 140.599 24.1284 139.986 24.5695C139.455 24.9492 138.853 25.2204 138.216 25.3677C137.041 25.5577 135.85 25.6401 134.659 25.614H132.43V32L129 31.949ZM132.404 17.8863V22.6843H134.276C135.186 22.7371 136.099 22.6483 136.982 22.421C137.421 22.2592 137.797 21.9617 138.055 21.5718C138.317 21.1832 138.453 20.7239 138.446 20.2555C138.463 19.6984 138.269 19.1554 137.901 18.7355C137.539 18.3372 137.054 18.0712 136.523 17.9797C135.704 17.8826 134.879 17.8457 134.055 17.8693L132.404 17.8863Z" fill="#323232"/>
<path d="M143.012 23.5984C142.971 22.1587 143.211 20.7255 143.717 19.3896C144.068 18.5549 144.556 17.7934 145.158 17.1411C145.719 16.5071 146.397 16.0024 147.149 15.6586C148.208 15.2084 149.34 14.9872 150.48 15.0079C151.488 14.9594 152.494 15.135 153.434 15.5236C154.375 15.9122 155.228 16.5052 155.941 17.2646C157.304 18.7637 157.986 20.8502 157.986 23.5243C158.049 24.6518 157.902 25.7813 157.553 26.8484C157.205 27.9154 156.663 28.8989 155.956 29.7427C155.25 30.4983 154.402 31.0886 153.469 31.4758C152.535 31.863 151.535 32.0386 150.534 31.9912C149.526 32.0422 148.518 31.8702 147.576 31.486C146.633 31.1018 145.775 30.5138 145.057 29.7592C144.351 28.927 143.806 27.954 143.455 26.8965C143.104 25.839 142.953 24.718 143.012 23.5984ZM146.227 23.4913C146.124 25.0103 146.554 26.5161 147.436 27.7166C147.825 28.169 148.299 28.5302 148.827 28.7774C149.355 29.0245 149.926 29.1521 150.503 29.1521C151.08 29.1521 151.651 29.0245 152.179 28.7774C152.707 28.5302 153.181 28.169 153.571 27.7166C154.451 26.4942 154.876 24.9689 154.763 23.4337C154.873 21.9269 154.459 20.4298 153.602 19.2249C153.199 18.7846 152.717 18.4346 152.185 18.1956C151.653 17.9566 151.081 17.8334 150.503 17.8334C149.925 17.8334 149.353 17.9566 148.821 18.1956C148.289 18.4346 147.807 18.7846 147.405 19.2249C146.528 20.4427 146.109 21.9632 146.227 23.4913Z" fill="#323232"/>
<path d="M170.858 25.669L174 26.6916C173.655 28.2622 172.804 29.6683 171.583 30.6831C170.342 31.5955 168.839 32.057 167.313 31.9944C166.333 32.0241 165.357 31.8402 164.452 31.4549C163.546 31.0696 162.731 30.4917 162.06 29.7595C160.625 28.0772 159.89 25.8866 160.013 23.6568C160.013 20.9079 160.704 18.7829 162.084 17.282C162.78 16.5257 163.626 15.9311 164.566 15.5384C165.505 15.1457 166.516 14.9641 167.53 15.0059C169.294 14.9317 171.015 15.5751 172.316 16.7954C173.113 17.6347 173.671 18.6814 173.927 19.822L170.705 20.6467C170.557 19.8473 170.132 19.1291 169.51 18.6234C168.887 18.1177 168.107 17.8582 167.313 17.8923C166.766 17.8747 166.221 17.9835 165.721 18.2104C165.22 18.4374 164.776 18.7768 164.42 19.2035C163.679 20.0777 163.309 21.4879 163.309 23.4506C163.309 25.4134 163.671 27.005 164.404 27.8874C164.748 28.3165 165.183 28.6593 165.676 28.8895C166.169 29.1197 166.707 29.2311 167.248 29.2152C168.065 29.2387 168.86 28.9439 169.472 28.3905C170.209 27.6605 170.695 26.7056 170.858 25.669Z" fill="#323232"/>
<path d="M176 15H179.207V28.6599H185.462V15H188.669V28.6599H190V35H187.322V31.4183H176V15Z" fill="#323232"/>
<path d="M192 30.984V15H203.661V17.7094H195.211V21.2525H203.101V23.9539H195.211V28.3066H204V31L192 30.984Z" fill="#323232"/>
<path d="M206 31V15H210.987L213.996 25.9127L217.013 15H222V31H218.891V18.4102L215.608 31H212.383L209.109 18.4102V31H206Z" fill="#323232"/>
<path d="M224 30.984V15H236.674V17.7094H227.456V21.2525H236.031V23.9539H227.456V28.3066H237V31L224 30.984Z" fill="#323232"/>
<path d="M239 31V15H242.273V21.2989H248.727V15H252V31H248.727V24.003H242.273V31H239Z" fill="#323232"/>
<path d="M257.853 31V17.7121H253V15H266V17.7121H261.155V31H257.853Z" fill="#323232"/>
<path d="M65.0053 42.526C64.9923 42.1031 65.0741 41.6823 65.2453 41.2907C65.358 41.0439 65.5211 40.8201 65.7255 40.6318C65.9112 40.4425 66.1375 40.292 66.3896 40.1901C66.7432 40.0587 67.1214 39.995 67.5018 40.0029C67.8383 39.9868 68.1747 40.0371 68.489 40.1507C68.8033 40.2642 69.0886 40.4383 69.3263 40.6618C69.7629 41.1874 70 41.8341 70 42.4998C70 43.1655 69.7629 43.8123 69.3263 44.3378C69.0895 44.5603 68.8056 44.7339 68.4927 44.8474C68.1798 44.9609 67.845 45.0117 67.5098 44.9967C67.172 45.0139 66.8342 44.9641 66.5184 44.8505C66.2026 44.737 65.916 44.5623 65.6774 44.3378C65.4424 44.0928 65.2619 43.8063 65.1464 43.4952C65.031 43.1841 64.9831 42.8547 65.0053 42.526ZM66.0775 42.526C66.0438 42.9733 66.1893 43.4164 66.4856 43.7688C66.6154 43.9023 66.7735 44.009 66.9499 44.082C67.1263 44.155 67.317 44.1927 67.5098 44.1927C67.7027 44.1927 67.8934 44.155 68.0698 44.082C68.2462 44.009 68.4043 43.9023 68.5341 43.7688C68.8435 43.3941 68.9868 42.9222 68.9342 42.4511C68.9712 42.0093 68.8346 41.5701 68.5501 41.2158C68.4157 41.0856 68.2548 40.9821 68.0767 40.9113C67.8987 40.8406 67.7073 40.8042 67.5139 40.8042C67.3204 40.8042 67.129 40.8406 66.951 40.9113C66.7729 40.9821 66.612 41.0856 66.4776 41.2158C66.1773 41.5805 66.0345 42.0375 66.0775 42.4961V42.526Z" fill="#323232"/>
<path d="M73.8652 45V40.845H72V40H77V40.845H75.1348V45H73.8652Z" fill="#323232"/>
<path d="M79 40.0355H80.0879V42.1521C80.2706 42.1515 80.4466 42.0884 80.5816 41.9751C80.7472 41.7336 80.882 41.4753 80.9833 41.2054C81.0999 40.8189 81.3352 40.4714 81.6611 40.2048C82.0007 40.0497 82.3791 39.9806 82.7573 40.0047H82.9163V40.7744H82.7573C82.5913 40.7666 82.4255 40.7929 82.272 40.8513C82.1627 40.9042 82.0747 40.9878 82.0209 41.0899C81.9076 41.2955 81.8125 41.5092 81.7364 41.7288C81.6787 41.8784 81.6059 42.0227 81.5188 42.1598C81.4136 42.2973 81.2726 42.4085 81.1088 42.4831C81.3509 42.5456 81.563 42.6812 81.7113 42.8679C81.9136 43.1204 82.0875 43.3912 82.2301 43.6761L83 45H81.6862L81.0418 43.7146L80.9833 43.6145L80.841 43.3759C80.7604 43.2052 80.6438 43.0509 80.4979 42.9218C80.3752 42.8522 80.2317 42.8198 80.0879 42.8295V45H79V40.0355Z" fill="#323232"/>
<path d="M86 45V40.0055H87.6916C88.1115 39.9875 88.5322 40.0135 88.9462 40.083C89.2496 40.1551 89.5164 40.328 89.6989 40.5708C89.909 40.8524 90.0144 41.1931 89.9984 41.5387C90.0076 41.8061 89.9493 42.0718 89.8284 42.313C89.7203 42.5078 89.5682 42.6771 89.3833 42.8086C89.2172 42.9193 89.0303 42.9981 88.8329 43.0409C88.4724 43.1024 88.1062 43.1284 87.7402 43.1184H87.0522V45H86ZM87.0522 40.8495V42.2666H87.635C87.9074 42.2813 88.1805 42.2552 88.4444 42.1892C88.5802 42.1432 88.6966 42.0562 88.7762 41.9414C88.8587 41.8279 88.9012 41.6923 88.8976 41.5542C88.9034 41.3892 88.8425 41.2283 88.7277 41.1051C88.6169 40.9881 88.469 40.9092 88.3068 40.8805C88.0534 40.8669 87.7994 40.8669 87.5459 40.8805L87.0522 40.8495Z" fill="#323232"/>
<path d="M93 40H94.0484V41.999H95.4516C95.7775 41.9921 96.1021 42.0393 96.4113 42.1385C96.682 42.2422 96.9128 42.4235 97.0726 42.6576C97.2518 42.9109 97.3448 43.2114 97.3387 43.5177C97.3481 43.8303 97.2519 44.1375 97.0645 44.3932C96.9094 44.6088 96.6942 44.7779 96.4436 44.8814C96.1216 44.9713 95.7866 45.0106 95.4516 44.9976H93.0323L93 40ZM94.0484 44.1608H95.0726C95.3021 44.1688 95.5319 44.1532 95.7581 44.1143C95.8927 44.0792 96.0135 44.0064 96.1048 43.9051C96.2032 43.7925 96.2549 43.6491 96.25 43.5022C96.2559 43.4067 96.2369 43.3113 96.1946 43.2247C96.1524 43.1381 96.0882 43.063 96.0081 43.0063C95.7353 42.8693 95.4275 42.8102 95.121 42.8358H94.0484V44.1608ZM97.9436 40H99V44.9976H97.9436V40Z" fill="#323232"/>
<path d="M102.492 45V40.845H101V40H105V40.845H103.516V45H102.492Z" fill="#323232"/>
<path d="M108.005 42.5272C107.992 42.1041 108.074 41.6831 108.245 41.2913C108.358 41.0444 108.521 40.8205 108.725 40.6321C108.911 40.4427 109.137 40.2921 109.39 40.1902C109.743 40.0587 110.121 39.995 110.502 40.0029C110.838 39.9868 111.175 40.0372 111.489 40.1507C111.803 40.2643 112.089 40.4385 112.326 40.6621C112.763 41.1879 113 41.835 113 42.501C113 43.167 112.763 43.8141 112.326 44.3399C111.827 44.7646 111.177 45 110.502 45C109.827 45 109.177 44.7646 108.677 44.3399C108.442 44.0947 108.262 43.8081 108.146 43.4969C108.031 43.1856 107.983 42.856 108.005 42.5272ZM109.078 42.5272C109.044 42.9747 109.189 43.418 109.486 43.7706C109.615 43.9042 109.773 44.0109 109.95 44.0839C110.126 44.157 110.317 44.1947 110.51 44.1947C110.703 44.1947 110.893 44.157 111.07 44.0839C111.246 44.0109 111.404 43.9042 111.534 43.7706C111.827 43.4078 111.969 42.9581 111.934 42.5047C111.973 42.0614 111.833 41.6206 111.542 41.2688C111.414 41.1321 111.255 41.0242 111.076 40.9529C110.897 40.8816 110.704 40.8487 110.51 40.8568C110.316 40.8508 110.123 40.8846 109.945 40.9558C109.767 41.027 109.607 41.1338 109.478 41.2688C109.191 41.6198 109.048 42.056 109.078 42.4972V42.5272Z" fill="#323232"/>
<path d="M116 45V40H119.902V40.845H117.061V41.9535H119.706V42.7984H117.061V44.155H120V45H116Z" fill="#323232"/>
<path d="M131 45H129.904L129.472 43.8605H127.481L127.073 45H126L127.944 40H129.002L131 45ZM129.148 43.0233L128.461 41.1628L127.79 43.0233H129.148Z" fill="#323232"/>
<path d="M134 40.0352H135.095V42.1357C135.279 42.1366 135.457 42.0738 135.592 41.96C135.765 41.724 135.902 41.4669 135.996 41.1962C136.113 40.8126 136.35 40.4678 136.678 40.2032C137.02 40.0493 137.4 39.9808 137.781 40.0046H137.941V40.7685H137.781C137.614 40.7615 137.447 40.7876 137.293 40.8448C137.186 40.9016 137.099 40.9834 137.04 41.0816C136.926 41.2856 136.83 41.4977 136.754 41.7156C136.699 41.8654 136.626 42.0089 136.535 42.1433C136.431 42.2814 136.288 42.3921 136.122 42.4641C136.366 42.5262 136.579 42.6607 136.728 42.846C136.932 43.0981 137.11 43.3666 137.259 43.648L138 45H136.703L136.055 43.7244C136.038 43.6899 136.018 43.6567 135.996 43.6251C135.996 43.6251 135.937 43.5258 135.861 43.3883C135.774 43.2221 135.657 43.0698 135.516 42.9377C135.389 42.868 135.242 42.8359 135.095 42.846V45H134V40.0352Z" fill="#323232"/>
<path d="M140 40H141.148V44.0992H143.375V40H144.532V44.0992H145V46H144.046V44.9237H140V40Z" fill="#323232"/>
<path d="M148 40H148.951V43.3256L150.986 40H152V45H151.057V41.7364L149.021 45H148.008L148 40Z" fill="#323232"/>
<path d="M155.005 42.5276C154.994 42.1052 155.072 41.685 155.237 41.2915C155.355 41.0476 155.518 40.8246 155.717 40.6322C155.906 40.4426 156.135 40.2921 156.389 40.1902C156.743 40.0581 157.121 39.9944 157.502 40.0029C157.838 39.9868 158.174 40.0372 158.489 40.1508C158.803 40.2643 159.089 40.4386 159.326 40.6622C159.763 41.1881 160 41.8352 160 42.5014C160 43.1675 159.763 43.8146 159.326 44.3406C158.828 44.7649 158.179 45 157.506 45C156.832 45 156.183 44.7649 155.685 44.3406C155.448 44.0959 155.266 43.8096 155.15 43.4983C155.033 43.187 154.984 42.857 155.005 42.5276ZM156.077 42.5276C156.045 42.9739 156.187 43.4159 156.477 43.7712C156.608 43.905 156.767 44.0118 156.944 44.085C157.121 44.1581 157.312 44.1958 157.506 44.1958C157.699 44.1958 157.891 44.1581 158.068 44.085C158.245 44.0118 158.403 43.905 158.534 43.7712C158.826 43.4083 158.969 42.9586 158.934 42.5051C158.973 42.0617 158.833 41.6208 158.542 41.269C158.414 41.1323 158.255 41.0243 158.076 40.953C157.897 40.8817 157.704 40.8489 157.51 40.857C157.315 40.8509 157.121 40.8846 156.941 40.9558C156.761 41.0269 156.6 41.1338 156.469 41.269C156.185 41.6211 156.046 42.0573 156.077 42.4976V42.5276Z" fill="#323232"/>
<path d="M163 45V40H164.01V41.969H165.99V40H167V45H165.99V42.814H164.01V45H163Z" fill="#323232"/>
<path d="M170 45V40H173.902V40.845H171.067V41.9535H173.707V42.7984H171.067V44.155H174V45H170Z" fill="#323232"/>
<path d="M177 45V40.0055H178.692C179.112 39.9875 179.532 40.0135 179.946 40.083C180.25 40.1551 180.516 40.328 180.699 40.5708C180.909 40.8524 181.014 41.1931 180.998 41.5387C181.01 41.8072 180.949 42.0741 180.82 42.313C180.718 42.509 180.568 42.6788 180.383 42.8086C180.217 42.9193 180.03 42.9981 179.833 43.0409C179.472 43.1024 179.106 43.1284 178.74 43.1184H178.052V45H177ZM178.052 40.8495V42.2666H178.627C178.899 42.281 179.172 42.2548 179.436 42.1892C179.572 42.1432 179.689 42.0562 179.768 41.9414C179.851 41.8279 179.893 41.6923 179.89 41.5542C179.895 41.3892 179.834 41.2283 179.72 41.1051C179.614 41.0023 179.479 40.9322 179.331 40.9038C179.078 40.8901 178.824 40.8901 178.57 40.9038L178.052 40.8495Z" fill="#323232"/>
<path d="M184 45V40H185.038V41.969H187V40H188V45H187V42.814H185.038V45H184Z" fill="#323232"/>
<path d="M191.005 42.526C190.992 42.1031 191.074 41.6823 191.245 41.2907C191.358 41.0439 191.521 40.8201 191.725 40.6318C191.911 40.4425 192.137 40.292 192.39 40.1901C192.743 40.0587 193.121 39.995 193.502 40.0029C193.838 39.9868 194.175 40.0371 194.489 40.1507C194.803 40.2642 195.089 40.4383 195.326 40.6618C195.763 41.1874 196 41.8341 196 42.4998C196 43.1655 195.763 43.8123 195.326 44.3378C195.09 44.5603 194.806 44.7339 194.493 44.8474C194.18 44.9609 193.845 45.0117 193.51 44.9967C193.172 45.0139 192.834 44.9641 192.518 44.8505C192.203 44.737 191.916 44.5623 191.677 44.3378C191.442 44.0928 191.262 43.8063 191.146 43.4952C191.031 43.1841 190.983 42.8547 191.005 42.526ZM192.078 42.526C192.044 42.9733 192.189 43.4164 192.486 43.7688C192.615 43.9023 192.773 44.009 192.95 44.082C193.126 44.155 193.317 44.1927 193.51 44.1927C193.703 44.1927 193.893 44.155 194.07 44.082C194.246 44.009 194.404 43.9023 194.534 43.7688C194.83 43.4078 194.972 42.9571 194.934 42.5036C194.971 42.0618 194.835 41.6225 194.55 41.2682C194.416 41.138 194.255 41.0345 194.077 40.9638C193.899 40.893 193.707 40.8566 193.514 40.8566C193.32 40.8566 193.129 40.893 192.951 40.9638C192.773 41.0345 192.612 41.138 192.478 41.2682C192.191 41.6191 192.048 42.0551 192.078 42.4961V42.526Z" fill="#323232"/>
<path d="M198 45V40H201.903V40.845H199.079V41.9535H201.708V42.7984H199.079V44.155H202V45H198Z" fill="#323232"/>
<path d="M209.005 42.5278C208.99 42.1052 209.069 41.6842 209.237 41.2918C209.355 41.0479 209.518 40.8249 209.717 40.6326C209.906 40.443 210.135 40.2924 210.389 40.1906C210.74 40.0591 211.116 39.9954 211.494 40.0033C211.831 39.9861 212.169 40.036 212.485 40.1496C212.801 40.2632 213.088 40.438 213.326 40.6625C213.763 41.1884 214 41.8355 214 42.5016C214 43.1676 213.763 43.8147 213.326 44.3406C212.828 44.7649 212.179 45 211.506 45C210.832 45 210.183 44.7649 209.685 44.3406C209.448 44.096 209.266 43.8097 209.15 43.4984C209.033 43.1871 208.984 42.8571 209.005 42.5278ZM210.077 42.5278C210.045 42.974 210.187 43.416 210.477 43.7713C210.608 43.9051 210.767 44.0119 210.944 44.085C211.121 44.1581 211.312 44.1959 211.506 44.1959C211.699 44.1959 211.891 44.1581 212.068 44.085C212.245 44.0119 212.403 43.9051 212.534 43.7713C212.826 43.4084 212.969 42.9587 212.934 42.5053C212.969 42.0623 212.829 41.6227 212.542 41.2693C212.414 41.1326 212.255 41.0246 212.076 40.9533C211.897 40.882 211.704 40.8492 211.51 40.8573C211.315 40.8512 211.121 40.8849 210.941 40.9561C210.761 41.0272 210.6 41.1341 210.469 41.2693C210.185 41.6214 210.046 42.0575 210.077 42.4978V42.5278Z" fill="#323232"/>
<path d="M217 40H220.576V40.8369H217.965V41.9992H219.256C219.557 41.992 219.858 42.0365 220.146 42.1309C220.391 42.231 220.6 42.4067 220.747 42.6346C220.918 42.888 221.007 43.1924 220.999 43.5025C221.009 43.8129 220.92 44.1179 220.747 44.3703C220.604 44.5876 220.406 44.7593 220.176 44.8663C219.879 44.9658 219.567 45.0104 219.256 44.998H217.03L217 40ZM217.965 44.1611H218.907C219.118 44.1686 219.329 44.153 219.538 44.1146C219.663 44.0834 219.775 44.0099 219.857 43.9054C219.947 43.7925 219.994 43.6493 219.99 43.5025C219.998 43.4028 219.98 43.3028 219.939 43.2128C219.897 43.1228 219.833 43.0462 219.753 42.991C219.503 42.8681 219.227 42.8147 218.951 42.8361H217.965V44.1611Z" fill="#323232"/>
<path d="M224 40H225.095V44.0992H226.662V40H227.757V44.0992H229.383V40H230.511V44.0992H231V46H230.09V44.9237H224.034L224 40Z" fill="#323232"/>
<path d="M234 45V40H237.894V40.845H235.059V41.9535H237.699V42.7984H235.059V44.155H238V45H234Z" fill="#323232"/>
<path d="M243.886 43.1351L245 43.4342C244.871 43.8989 244.559 44.3129 244.116 44.6083C243.603 44.9052 242.983 45.0402 242.364 44.9896C241.746 44.939 241.168 44.7061 240.731 44.3316C240.22 43.8372 239.96 43.1925 240.007 42.5369C239.954 41.8566 240.217 41.1859 240.74 40.6673C240.987 40.4467 241.286 40.2731 241.618 40.1583C241.951 40.0435 242.308 39.9902 242.667 40.0018C243.295 39.9794 243.908 40.1675 244.373 40.5253C244.658 40.7719 244.86 41.0794 244.956 41.4151L243.816 41.647C243.758 41.4128 243.608 41.202 243.391 41.0487C243.169 40.9033 242.895 40.8268 242.614 40.8319C242.418 40.8259 242.223 40.8579 242.044 40.9253C241.864 40.9926 241.706 41.0937 241.58 41.2207C241.284 41.5866 241.146 42.0278 241.191 42.4696C241.14 42.9282 241.277 43.3877 241.58 43.7707C241.702 43.896 241.856 43.9961 242.03 44.0635C242.205 44.1309 242.395 44.1638 242.587 44.1596C242.877 44.1649 243.158 44.0767 243.374 43.9128C243.637 43.7055 243.816 43.4334 243.886 43.1351Z" fill="#323232"/>
<path d="M248.492 45V40.845H247V40H251V40.845H249.5V45H248.492Z" fill="#323232"/>
<path d="M254 40.0012H255.907C256.189 39.9953 256.47 40.0109 256.75 40.0478C256.93 40.0801 257.101 40.1515 257.253 40.2574C257.402 40.3662 257.526 40.5095 257.615 40.6765C257.714 40.8529 257.765 41.0541 257.763 41.2587C257.765 41.4892 257.702 41.7152 257.582 41.9085C257.463 42.1018 257.291 42.2538 257.09 42.3454C257.356 42.4163 257.592 42.5772 257.763 42.8033C257.925 43.0253 258.009 43.2998 257.999 43.5795C257.998 43.8117 257.945 44.0404 257.844 44.2471C257.748 44.4507 257.606 44.6265 257.43 44.7594C257.24 44.8979 257.018 44.981 256.787 45C256.624 45 256.24 45 255.626 45H254V40.0012ZM254.961 40.8318V41.9883H255.597C255.974 41.9883 256.203 41.9883 256.292 41.9883C256.439 41.9814 256.578 41.9178 256.683 41.8098C256.731 41.759 256.769 41.6982 256.793 41.6313C256.817 41.5645 256.828 41.4931 256.824 41.4217C256.831 41.2839 256.788 41.1484 256.706 41.0413C256.609 40.9394 256.48 40.8786 256.343 40.8706C256.247 40.8706 255.974 40.8706 255.515 40.8706L254.961 40.8318ZM254.961 42.8266V44.1617H255.855C256.074 44.1811 256.294 44.1811 256.513 44.1617C256.65 44.1423 256.775 44.0736 256.868 43.9676C256.961 43.8474 257.009 43.6954 257.001 43.5407C257.005 43.4058 256.969 43.2729 256.898 43.1604C256.824 43.0498 256.717 42.968 256.595 42.9275C256.315 42.8662 256.03 42.8427 255.745 42.8577L254.961 42.8266Z" fill="#323232"/>
<path d="M261.005 42.526C260.992 42.1031 261.074 41.6823 261.245 41.2907C261.358 41.0439 261.521 40.8201 261.725 40.6318C261.911 40.4425 262.137 40.292 262.39 40.1901C262.743 40.0587 263.121 39.995 263.502 40.0029C263.838 39.9868 264.175 40.0371 264.489 40.1507C264.803 40.2642 265.089 40.4383 265.326 40.6618C265.763 41.1874 266 41.8341 266 42.4998C266 43.1655 265.763 43.8123 265.326 44.3378C265.09 44.5603 264.806 44.7339 264.493 44.8474C264.18 44.9609 263.845 45.0117 263.51 44.9967C263.172 45.0139 262.834 44.9641 262.518 44.8505C262.203 44.737 261.916 44.5623 261.677 44.3378C261.442 44.0928 261.262 43.8063 261.146 43.4952C261.031 43.1841 260.983 42.8547 261.005 42.526ZM262.078 42.526C262.044 42.9733 262.189 43.4164 262.486 43.7688C262.615 43.9023 262.773 44.009 262.95 44.082C263.126 44.155 263.317 44.1927 263.51 44.1927C263.703 44.1927 263.893 44.155 264.07 44.082C264.246 44.009 264.404 43.9023 264.534 43.7688C264.83 43.4078 264.972 42.9571 264.934 42.5036C264.971 42.0618 264.835 41.6225 264.55 41.2682C264.416 41.138 264.255 41.0345 264.077 40.9638C263.899 40.893 263.707 40.8566 263.514 40.8566C263.32 40.8566 263.129 40.893 262.951 40.9638C262.773 41.0345 262.612 41.138 262.478 41.2682C262.191 41.6191 262.048 42.0551 262.078 42.4961V42.526Z" fill="#323232"/>
</svg>
