<svg width="550" height="550" viewBox="0 0 550 550" fill="none" xmlns="http://www.w3.org/2000/svg">
<path d="M524.764 275.175C524.773 218.831 505.731 164.139 470.733 119.983C435.734 75.8264 386.833 44.8006 331.975 31.9449C330.761 31.6255 329.579 31.4338 328.365 31.1144C328.365 31.1144 328.046 30.9227 327.854 30.9227C327.662 30.9227 326.672 30.763 326.161 30.6032C325.675 30.3958 325.156 30.2768 324.628 30.2518C323.254 29.9005 321.721 29.7407 320.347 29.3893C320.011 29.3104 319.661 29.3104 319.325 29.3893C317.804 29.0772 316.269 28.8426 314.725 28.6865C314.451 28.6182 314.174 28.5649 313.894 28.5268C312.329 28.5268 310.987 28.0157 309.454 27.856H308.943C306.898 27.5046 304.854 27.3448 302.777 27.1532C302.777 27.1532 302.266 27.1532 302.106 27.1532C293.104 26.1013 284.049 25.568 274.985 25.5559C269.363 25.5559 263.9 25.7476 258.437 26.067H256.393C256.073 26.067 255.371 26.067 255.211 26.2587L248.822 26.7698C248.189 26.7447 247.556 26.7984 246.937 26.9296C245.084 26.9296 243.199 27.4407 241.506 27.6004H241.315C240.859 27.5552 240.398 27.621 239.973 27.7921C233.584 28.6226 227.195 29.8366 221.03 31.2102H220.838L214.449 32.7436C171.624 43.4854 132.409 65.3812 100.795 96.2025C69.1818 127.024 46.2979 165.67 34.4728 208.209C22.6477 250.748 22.3034 295.66 33.475 338.375C44.6466 381.09 66.9352 420.083 98.0726 451.385L98.5837 451.896C98.7754 452.088 98.9351 452.248 99.0948 452.248C107.082 460.18 115.622 467.535 124.651 474.258H124.811C126.213 475.495 127.697 476.637 129.251 477.676C131.296 479.209 133.532 480.583 135.64 481.925C136.151 482.276 136.503 482.627 137.014 482.979C139.058 484.32 141.103 486.173 143.403 487.387C146.821 489.432 150.239 491.508 153.817 493.361C157.395 495.214 160.973 497.29 164.55 499.175C167.457 500.549 170.364 501.731 173.271 503.104C176.178 504.478 179.054 505.82 181.961 507.033C183.686 507.704 185.379 508.375 186.912 508.886C190.65 510.26 194.579 511.793 198.348 512.975C200.596 513.926 202.942 514.623 205.344 515.052C208.06 515.371 210.456 516.905 213.171 517.096C214.815 517.447 216.421 517.96 217.963 518.63C218.634 518.63 219.496 518.63 220.359 518.949C221.221 519.268 221.892 519.3 222.563 519.46C224.412 520.178 226.399 520.473 228.377 520.323H228.696C228.811 520.286 228.933 520.286 229.048 520.323C229.719 521.185 230.741 521.025 231.603 521.025C232.243 521.051 232.876 521.159 233.488 521.345L235.533 521.856C238.727 522.207 241.666 522.367 244.733 522.719C244.924 522.719 245.084 522.91 245.436 522.91C246.458 523.07 247.64 523.421 248.854 523.581C250.269 523.661 251.687 523.661 253.102 523.581C253.773 523.581 254.284 523.741 254.987 523.741C255.868 524.021 256.78 524.192 257.703 524.252H275.464C277.668 524.252 279.872 524.252 282.109 524.092H290.702C292.746 524.092 294.791 524.603 296.484 523.421C296.835 523.23 297.187 523.421 297.506 523.421C299.106 523.453 300.706 523.389 302.298 523.23C302.998 523.146 303.685 522.975 304.342 522.719C304.953 522.522 305.587 522.404 306.227 522.367C309.312 522.216 312.385 521.875 315.427 521.345C316.915 520.876 318.468 520.65 320.028 520.674C320.028 520.674 320.379 520.674 320.379 520.514C321.401 519.3 322.935 519.812 324.117 519.652C324.704 519.609 325.284 519.491 325.842 519.3L327.886 518.789C328.397 518.63 328.908 518.63 329.26 518.47C330.795 517.851 332.39 517.391 334.02 517.096C335.651 516.941 337.259 516.598 338.811 516.074C339.523 515.863 340.208 515.574 340.856 515.211C344.434 514.189 348.012 513.327 351.589 512.304C352.26 512.145 352.771 511.793 353.474 511.634L359.863 509.589C363.473 508.215 367.051 506.682 370.629 505.149C374.207 503.615 378.487 501.954 382.225 500.197C383.761 499.507 385.245 498.706 386.665 497.801C428.164 477.276 463.092 445.547 487.497 406.204C511.902 366.861 524.811 321.473 524.764 275.175ZM494.544 356.188C487.572 375.405 478.179 393.654 466.592 410.495C455.983 425.56 443.737 439.402 430.079 451.768C418.601 462.073 406.159 471.251 392.926 479.177C377.443 488.325 360.957 495.656 343.795 501.028C334.765 503.742 325.594 505.96 316.322 507.672C307.952 509.206 299.615 510.068 291.245 510.867C289.94 511 288.628 511.053 287.316 511.027C281.693 511.186 276.071 511.538 270.417 511.378C264.762 511.218 259.012 510.867 253.358 510.356C248.247 509.845 243.136 509.333 237.833 508.471C227.885 507.1 218.074 504.877 208.507 501.826C201.351 499.59 194.164 497.194 187.359 494.479C181.386 492.083 175.572 489.368 169.789 486.461C161.353 482.211 153.201 477.42 145.383 472.117C137.893 467.105 130.713 461.643 123.884 455.761C113.461 446.905 103.84 437.145 95.1336 426.596C88.4409 418.486 82.2838 409.949 76.7013 401.039C68.5715 388.161 61.7645 374.493 56.3841 360.245C53.3093 352.113 50.6544 343.829 48.4298 335.424C46.3853 327.725 44.8519 319.899 43.4783 311.88C42.2562 304.018 41.467 296.094 41.1143 288.145C40.9227 281.756 40.6032 275.367 40.7629 269.234C40.9227 263.1 41.4338 256.935 42.1366 250.642C42.895 242.839 44.0895 235.086 45.7144 227.417C49.857 208.882 56.0387 190.861 64.1468 173.686C70.2239 160.933 77.4748 148.773 85.8056 137.364C91.9311 128.971 98.6007 120.989 105.771 113.469C113.86 104.764 122.642 96.7301 132.03 89.4462C147.463 77.3482 164.37 67.2581 182.344 59.4178C195.718 53.5978 209.626 49.0936 223.873 45.9689C233.185 43.8501 242.631 42.3666 252.144 41.5285C260.235 40.6144 268.376 40.209 276.518 40.3146C283.866 40.5062 291.021 41.1771 298.369 41.6882C307.976 42.4467 317.506 43.9851 326.864 46.2883C335.042 48.3328 343.22 50.569 351.078 53.2843C358.937 55.9997 365.933 59.0983 373.248 62.3248C382.901 66.7304 392.203 71.8672 401.072 77.6904C411.632 84.5976 421.61 92.354 430.909 100.883C443.608 112.415 455.045 125.265 465.027 139.217C475.775 154.296 484.657 170.622 491.477 187.837C496.127 199.632 499.833 211.778 502.562 224.159C504.287 232.177 505.757 240.387 506.683 248.725C507.194 253.325 507.354 258.117 507.705 262.717C508.057 267.317 508.216 271.406 508.376 276.869C507.865 283.545 507.514 291.372 506.843 299.23C506.056 308.834 504.518 318.362 502.243 327.725C500.481 337.412 497.905 346.934 494.544 356.188Z" fill="white" fill-opacity="0.05"/>
<path d="M442.186 239.589C440.664 232.117 438.615 224.761 436.053 217.579C425.568 188.07 407.287 161.951 383.152 141.996C354.576 118.651 319.201 105.2 282.333 103.662C269.711 103.043 257.06 103.901 244.638 106.218C234.493 107.975 224.543 110.714 214.929 114.396C204.557 118.363 194.569 123.271 185.092 129.059C174.264 135.803 164.196 143.696 155.063 152.602C147.191 160.405 140.108 168.965 133.916 178.158C129.559 184.552 125.621 191.221 122.128 198.124C115.731 210.868 110.976 224.371 107.976 238.311C106.399 245.338 105.331 252.47 104.782 259.65C104.005 267.644 103.834 275.686 104.271 283.705C104.774 295.446 106.487 307.104 109.382 318.493C112.149 329.509 116.035 340.213 120.978 350.439C129.116 367.579 140.052 383.245 153.338 396.791C161.888 405.488 171.32 413.272 181.482 420.015C197.636 430.652 215.466 438.492 234.223 443.207C247.661 446.62 261.473 448.337 275.337 448.319C280.8 447.967 286.422 447.967 291.885 447.456C303.76 446.355 315.48 443.955 326.833 440.3C369.898 426.38 405.829 396.201 426.981 356.189C433.137 344.299 437.794 331.691 440.845 318.653C443.068 309.634 444.616 300.462 445.477 291.212C446.227 281.441 446.227 271.626 445.477 261.855C444.742 254.348 443.72 247 442.186 239.589ZM348.364 400.784C343.469 405.881 337.965 410.355 331.976 414.105C323.749 419.494 314.711 423.528 305.206 426.053C294.092 429.081 282.538 430.161 271.056 429.247C261.323 428.579 251.737 426.513 242.593 423.114C230.28 418.557 219.021 411.547 209.498 402.509C206.303 399.602 203.684 396.536 200.777 393.469C200.266 392.926 199.755 392.255 199.084 391.392C199.584 391.24 200.098 391.133 200.617 391.073C216.143 390.881 231.828 390.881 247.353 390.722C250.1 390.722 252.816 390.722 255.531 390.562C257.607 390.37 257.767 390.21 257.607 387.655C256.585 387.655 255.371 387.655 254.413 387.303C250.081 386.997 245.981 385.229 242.785 382.288C239.576 379.204 237.667 375.01 237.45 370.564C237.381 367.255 237.552 363.945 237.961 360.661C238.086 360.188 238.258 359.728 238.472 359.287C239.494 359.799 240.357 360.31 241.219 360.821C243.424 362.386 245.66 364.015 247.609 365.453C252.969 369.135 259.206 371.339 265.689 371.842C275.71 372.848 285.789 370.608 294.44 365.453C297.92 363.438 301.031 360.846 303.64 357.786C303.837 357.569 304.076 357.395 304.343 357.275C304.438 357.288 304.534 357.277 304.623 357.244C304.712 357.21 304.792 357.155 304.854 357.083C305.091 357.457 305.264 357.867 305.365 358.297C306.624 363.81 306.504 369.549 305.014 375.005C304.3 377.793 302.845 380.337 300.804 382.367C298.763 384.397 296.211 385.838 293.418 386.537C291.022 387.048 288.658 387.399 286.07 387.719C285.751 388.741 286.262 389.444 287.284 389.955C287.976 390.275 288.727 390.449 289.489 390.466C292.044 390.626 294.6 390.626 296.996 390.626C305.365 390.626 313.735 390.626 322.073 390.977C329.867 391.371 337.678 391.254 345.457 390.626C347.122 390.429 348.775 390.141 350.408 389.763C351.941 389.444 352.964 388.741 353.123 387.208C354.004 382.876 356.242 378.937 359.512 375.963C361.273 374.363 362.406 372.189 362.707 369.829C362.887 368.355 362.887 366.864 362.707 365.389C362.677 364.941 362.486 364.52 362.168 364.203C361.851 363.885 361.43 363.694 360.982 363.664C358.92 363.337 357.02 362.346 355.573 360.841C354.126 359.336 353.209 357.4 352.964 355.326C352.001 351.248 351.72 347.038 352.133 342.868C352.453 337.565 352.644 332.294 352.804 326.895C352.804 323.701 352.804 320.506 352.453 317.312C352.453 311.657 352.133 306.035 352.133 300.413C352.275 297.992 352.671 295.594 353.315 293.257C353.457 292.184 353.995 291.204 354.822 290.507C355.649 289.81 356.706 289.446 357.787 289.487C358.298 289.487 358.65 289.328 359.161 289.328C359.672 289.328 360.535 288.816 360.535 287.954C360.535 287.091 360.024 286.261 359.001 286.261C356.957 286.069 354.912 286.069 352.612 286.069H343.029C340.984 286.069 338.94 286.261 337.055 286.421C336.64 286.448 336.236 286.568 335.873 286.772C335.522 287.091 334.851 287.602 334.851 287.954C334.916 288.221 335.043 288.47 335.22 288.68C335.397 288.891 335.621 289.058 335.873 289.168C336.912 289.586 337.979 289.927 339.068 290.19C339.957 290.346 340.768 290.796 341.37 291.468C341.973 292.14 342.332 292.995 342.39 293.896C342.709 296.451 343.22 299.007 343.412 301.563C343.923 312.328 343.412 323.253 343.22 333.987C343.22 341.334 343.22 348.65 342.901 355.997V357.53C342.928 357.712 342.917 357.897 342.87 358.074C342.822 358.251 342.739 358.416 342.626 358.56C342.512 358.703 342.37 358.822 342.208 358.909C342.047 358.996 341.87 359.048 341.687 359.064C338.696 359.578 335.677 359.919 332.647 360.086C329.931 360.086 329.069 359.224 328.909 356.508C328.734 354.638 328.734 352.756 328.909 350.886C329.484 339.968 329.484 329.028 328.909 318.11C328.568 309.591 328.387 301.073 328.366 292.554C328.518 287.872 328.923 283.201 329.58 278.562C329.806 276.943 330.399 275.397 331.312 274.04C332.225 272.684 333.436 271.554 334.851 270.735C336.686 269.859 338.648 269.277 340.665 269.01C342.038 268.691 343.38 268.691 344.754 268.499C345.404 268.423 346.039 268.251 346.639 267.988C348.843 267.317 349.354 266.295 348.523 263.739C345.329 263.548 342.358 263.388 339.291 263.388H300.286C297.571 263.388 294.823 263.388 292.108 263.388C290.718 263.385 289.334 263.556 287.987 263.899C286.454 264.251 286.134 264.762 286.134 266.103C286.102 266.363 286.126 266.627 286.205 266.877C286.284 267.127 286.416 267.356 286.592 267.55C286.768 267.744 286.984 267.898 287.224 268.001C287.465 268.104 287.725 268.154 287.987 268.148C290.575 268.659 292.939 269.01 295.494 269.362C296.172 269.546 296.869 269.653 297.571 269.681C299.028 269.87 300.403 270.468 301.534 271.407C302.665 272.345 303.506 273.586 303.96 274.984C305.053 277.519 305.639 280.243 305.685 283.002C306.025 288.405 305.854 293.828 305.174 299.199C305.174 299.39 305.174 299.55 304.822 299.901C304.503 299.71 303.96 299.55 303.8 299.199C299.232 293.421 292.773 289.44 285.559 287.954C275.886 285.399 265.715 285.399 256.042 287.954C250.923 289.236 246.147 291.624 242.05 294.95C241.028 295.78 240.165 296.835 238.856 298.144C238.579 297.55 238.406 296.912 238.344 296.26C238.185 292.171 237.833 288.241 237.833 284.152C237.964 281.549 238.426 278.973 239.207 276.486C239.681 274.981 240.44 273.582 241.443 272.365C242.019 271.622 242.736 270.999 243.553 270.533C244.37 270.067 245.27 269.767 246.203 269.649C249.397 269.138 252.592 268.467 255.595 267.956C256.617 267.765 257.639 267.605 257.639 266.231C257.764 265.623 257.66 264.991 257.348 264.454C257.035 263.918 256.536 263.516 255.946 263.324C254.506 262.864 253.015 262.585 251.506 262.494C246.091 262.233 240.665 262.404 235.278 263.005C233.585 263.164 232.083 263.324 230.326 263.324C222.5 263.516 214.641 263.516 206.783 263.676C204.762 263.864 202.725 263.568 200.841 262.813C201.352 262.142 201.671 261.471 202.023 261.12C208.888 253.194 216.925 246.364 225.854 240.867C236.918 234.216 249.184 229.809 261.952 227.897C268.474 226.635 275.119 226.121 281.758 226.364C290.216 226.687 298.594 228.127 306.675 230.644C313.933 232.997 320.967 235.991 327.695 239.589C337.181 244.837 345.625 251.777 352.612 260.066C358.654 267.214 363.913 274.989 368.297 283.258C372.385 291.002 375.211 299.349 376.667 307.984C378.498 318.001 378.96 328.221 378.041 338.363C376.737 353.945 371.445 368.928 362.675 381.873C358.803 388.838 353.987 395.234 348.364 400.88V400.784ZM214.769 295.972C214.769 303.32 215.12 310.635 215.12 317.982C215.12 325.33 214.929 332.326 214.769 339.641C214.745 340.714 214.627 341.783 214.417 342.836C207.157 343.443 199.859 343.443 192.599 342.836C192.731 342.145 192.902 341.463 193.11 340.791C197.55 328.684 201.991 316.417 206.399 304.278C207.316 301.891 208.383 299.565 209.594 297.314C210.111 296.287 210.803 295.357 211.638 294.567C211.936 294.243 212.318 294.009 212.741 293.89C213.164 293.772 213.612 293.774 214.034 293.896C214.929 294.279 214.769 295.301 214.769 295.972ZM212.884 286.069L203.301 285.047C201.767 285.047 200.106 284.376 198.7 284.216C197.295 284.057 196.656 284.216 196.464 285.909V287.507C196.489 287.972 196.675 288.414 196.989 288.758C197.304 289.102 197.728 289.326 198.189 289.391C198.601 289.439 199.001 289.558 199.371 289.743C200.044 289.954 200.629 290.381 201.033 290.959C201.438 291.537 201.64 292.233 201.607 292.937C201.687 294.647 201.335 296.35 200.585 297.889C196.065 307.049 192.346 316.583 189.468 326.384C187.424 332.358 184.868 338.331 182.472 344.273C182.274 344.997 181.931 345.673 181.464 346.26C180.998 346.847 180.417 347.334 179.757 347.691C179.757 347.18 179.246 346.861 179.246 346.35C177.46 336.872 177.116 327.179 178.224 317.599C178.957 311.121 180.207 304.711 181.961 298.432C184.618 289.808 188.353 281.554 193.078 273.866C194.1 272.173 195.282 270.672 196.273 268.915C196.585 268.419 197.013 268.007 197.519 267.712C198.025 267.417 198.595 267.249 199.18 267.221C202.636 266.839 206.118 267.668 209.031 269.568C211.944 271.467 214.108 274.319 215.152 277.636C215.742 279.63 215.808 281.742 215.344 283.769C214.769 285.909 214.417 286.261 212.884 286.069ZM186.465 353.633C186.625 353.633 186.785 353.314 186.785 353.122C187.522 351.952 188.561 351.003 189.792 350.373C191.023 349.744 192.401 349.457 193.781 349.544C197.362 349.551 200.936 349.209 204.451 348.522C206.827 348.091 209.262 348.091 211.638 348.522C214.833 349.033 215.216 349.704 215.376 352.771V363.536C215.376 366.922 215.376 370.341 215.376 373.759C215.129 375.915 214.723 378.051 214.162 380.148C213.941 380.879 213.572 381.558 213.077 382.14C212.583 382.723 211.973 383.197 211.287 383.534C207.617 385.559 203.632 386.952 199.499 387.655C198.664 387.86 197.783 387.768 197.008 387.395C196.232 387.022 195.611 386.391 195.25 385.61C193.717 383.023 192.056 380.467 190.618 377.752C188.766 374.174 187.04 370.404 185.347 366.667C184.254 364.619 183.778 362.298 183.976 359.984C184.175 357.671 185.039 355.465 186.465 353.633ZM240.772 331.463C254.573 331.304 268.245 330.952 282.045 330.952C289.041 330.952 296.037 331.304 303.033 331.463C303.544 331.463 304.215 331.463 304.918 331.463C305.227 333.987 304.987 336.548 304.215 338.97C303.229 343.368 301.195 347.463 298.286 350.905C295.377 354.348 291.679 357.037 287.508 358.744C278.462 362.9 268.158 363.392 258.757 360.118C254.897 359.029 251.322 357.105 248.287 354.483C245.251 351.861 242.827 348.605 241.188 344.944C239.258 340.783 238.433 336.195 238.792 331.623C239.59 331.623 240.197 331.463 240.708 331.463H240.772ZM239.59 320.889C239.842 318.234 240.544 315.642 241.667 313.223C243.845 308.406 247.236 304.236 251.508 301.123C255.781 298.01 260.788 296.059 266.041 295.461C272.988 294.304 280.122 295.261 286.518 298.208C292.896 301.044 298.169 305.892 301.532 312.009C302.649 314.096 303.456 316.334 303.928 318.653C304.439 321.049 303.736 321.848 301.372 321.848C299.008 321.848 297.794 321.848 295.91 321.848C284.473 321.177 272.877 321.848 261.281 321.496L241.667 320.985C240.977 321.123 240.264 321.09 239.59 320.889ZM347.086 384.332V385.898C346.734 385.898 346.575 386.217 346.415 386.217C341.454 386.567 336.551 384.975 332.742 381.777C331.551 380.668 330.662 379.273 330.159 377.725C329.656 376.177 329.556 374.526 329.867 372.928C329.867 371.395 330.378 371.043 331.912 370.884C336.773 370.171 341.733 370.576 346.415 372.066C347.512 372.507 348.579 373.02 349.609 373.599C349.816 373.708 349.996 373.861 350.137 374.048C350.278 374.234 350.376 374.449 350.425 374.677C350.473 374.906 350.471 375.142 350.419 375.37C350.366 375.598 350.264 375.811 350.121 375.995C349.975 376.286 349.804 376.564 349.609 376.825C348.054 379.035 347.147 381.635 346.99 384.332H347.086ZM331.56 169.725C325.171 166.53 318.782 163.943 311.435 165.476C308.861 165.898 306.4 166.841 304.202 168.247C302.005 169.653 300.118 171.493 298.657 173.654C297.075 176.018 296.302 178.832 296.453 181.672V185.602C294.703 185.922 292.929 186.093 291.15 186.113C287.221 186.113 283.323 186.113 279.554 185.761C277.158 185.761 276.838 185.09 276.838 182.567C276.67 180.061 277.244 177.561 278.488 175.379C279.732 173.197 281.592 171.431 283.834 170.3C284.345 170.108 284.665 169.789 285.176 169.597C285.696 169.389 286.123 168.999 286.376 168.499C286.629 167.999 286.691 167.424 286.55 166.882C286.546 166.622 286.489 166.365 286.383 166.127C286.277 165.89 286.124 165.676 285.932 165.5C285.741 165.324 285.516 165.188 285.271 165.102C285.025 165.015 284.765 164.98 284.505 164.997C282.747 164.741 280.961 164.741 279.202 164.997C276.008 165.508 272.813 166.371 269.619 167.041C267.282 167.723 264.8 167.723 262.463 167.041C259.746 166.174 256.817 166.241 254.143 167.231C251.468 168.221 249.202 170.077 247.704 172.504C246.1 175.332 245.492 178.617 245.979 181.832C246.331 184.068 246.331 184.068 244.286 184.42C238.138 185.545 231.791 184.637 226.205 181.832C223.492 180.424 221.219 178.296 219.636 175.681C218.052 173.066 217.219 170.066 217.229 167.009C216.91 163.339 217.761 159.663 219.661 156.507C221.56 153.35 224.41 150.876 227.803 149.44C233.399 146.697 239.393 144.854 245.564 143.977C257.203 142.257 269.019 142.085 280.704 143.466C286.12 144 291.471 145.07 296.676 146.66C301.286 148.286 305.601 150.649 309.454 153.656C312.649 156.052 315.843 158.257 318.846 160.493C322.125 162.838 326.06 164.09 330.091 164.071C336.48 164.23 343.061 164.582 349.546 164.933C351.59 164.933 353.475 165.444 355.519 165.764C357.564 166.083 358.075 167.489 356.701 168.958C355.591 170.39 354.339 171.707 352.964 172.887C349.769 175.443 346.83 177.839 343.731 180.395C339.813 183.294 335.146 185.012 330.283 185.346C328.167 185.688 326.009 185.688 323.894 185.346C321.689 184.835 321.178 183.302 322.36 181.417C323.782 179.589 325.669 178.177 327.823 177.328C329.005 176.817 330.219 176.114 331.241 175.603C331.771 175.327 332.218 174.915 332.537 174.411C332.857 173.906 333.037 173.326 333.06 172.729C333.082 172.132 332.947 171.54 332.667 171.012C332.386 170.484 331.972 170.04 331.465 169.725H331.56ZM320.987 172.28C320.987 172.983 320.987 173.494 320.635 173.814C318.089 178.303 316.196 183.133 315.013 188.157C313.991 191.575 312.809 194.993 311.595 198.38C311.347 198.715 311.123 199.068 310.924 199.434C310.061 198.22 309.199 197.198 308.528 196.239C306.099 193.008 304.142 189.447 302.714 185.665C302.329 184.494 302.02 183.299 301.788 182.088C301.305 180.073 301.622 177.951 302.67 176.164C303.718 174.378 305.416 173.066 307.41 172.504C310.073 171.784 312.833 171.492 315.588 171.642C317.329 172.036 319.106 172.25 320.891 172.28H320.987ZM271.344 175.187C270.992 179.788 270.641 184.579 270.13 189.179C269.835 192.071 268.908 194.863 267.415 197.357C267.113 197.843 266.771 198.303 266.392 198.731C266.209 198.932 265.98 199.085 265.725 199.179C265.47 199.272 265.197 199.303 264.927 199.269C264.658 199.234 264.401 199.135 264.178 198.981C263.954 198.826 263.772 198.62 263.645 198.38C261.516 194.362 258.791 190.689 255.563 187.486C253.618 185.279 252.373 182.544 251.985 179.628C251.985 179.117 251.825 178.765 251.825 178.254C251.825 174.836 252.688 173.814 255.914 173.303C258.361 173.143 260.815 173.143 263.262 173.303H269.235C271.056 173.143 271.535 173.494 271.248 175.187H271.344ZM223.745 197.549C224.257 195.856 224.768 194.131 225.439 192.438C225.786 191.379 226.478 190.466 227.404 189.846C228.331 189.227 229.438 188.936 230.55 189.02C233.744 189.179 236.939 189.531 240.133 189.691C243.328 189.85 245.915 190.202 249.014 190.202C249.713 190.18 250.408 190.309 251.053 190.579C251.698 190.849 252.277 191.254 252.752 191.767C254.645 193.737 256.152 196.045 257.192 198.571C258.214 200.616 259.077 202.852 260.099 204.96C260.81 206.288 261.727 207.496 262.814 208.538C263.09 208.856 263.431 209.111 263.814 209.286C264.197 209.461 264.614 209.551 265.035 209.551C265.456 209.551 265.872 209.461 266.255 209.286C266.638 209.111 266.979 208.856 267.255 208.538C268.455 207.283 269.438 205.836 270.162 204.258C271.855 200.68 273.58 197.102 275.113 193.524C275.32 192.872 275.761 192.319 276.35 191.971C276.94 191.623 277.637 191.505 278.308 191.639C282.045 191.639 285.975 191.288 289.744 191.288C292.2 191.27 294.652 191.505 297.06 191.991C298.199 192.218 299.27 192.705 300.19 193.414C301.11 194.123 301.853 195.036 302.363 196.08C303.544 198.635 304.567 201.191 305.557 203.746C306.26 205.44 306.771 207.324 307.442 209.049C307.608 209.748 307.962 210.389 308.464 210.902C308.746 211.31 309.12 211.647 309.555 211.886C309.991 212.125 310.476 212.259 310.972 212.277C311.468 212.296 311.961 212.199 312.413 211.993C312.865 211.788 313.263 211.48 313.575 211.094C314.31 210.036 314.881 208.873 315.268 207.644C316.099 205.248 316.61 202.692 317.313 200.296C317.771 198.455 318.336 196.641 319.006 194.866C319.34 194.046 319.875 193.324 320.562 192.766C321.249 192.207 322.065 191.831 322.935 191.671C327.126 190.687 331.474 190.568 335.713 191.32C336.426 191.348 337.113 191.592 337.684 192.02C338.255 192.448 338.681 193.039 338.908 193.716C339.77 195.92 340.441 198.316 341.144 200.712C343.348 208.73 345.744 216.684 347.789 224.607C348.811 228.504 349.673 232.433 350.504 236.362C350.602 236.987 350.602 237.623 350.504 238.247C348.811 236.874 347.309 235.692 345.904 234.669C338.967 229.512 331.329 225.371 323.223 222.37C315.638 219.311 307.744 217.083 299.679 215.726C289.528 213.764 279.157 213.195 268.852 214.033C262.222 214.604 255.644 215.671 249.174 217.227C239.47 219.894 230.087 223.611 221.19 228.312C218.134 229.914 215.169 231.684 212.309 233.615C211.761 233.923 211.195 234.201 210.616 234.446C210.616 233.615 210.616 233.104 210.616 232.593C213.328 222.625 216.92 212.919 221.35 203.587C222.333 201.723 223.095 199.75 223.618 197.709L223.745 197.549ZM429.568 283.354C429.115 293.488 427.627 303.55 425.128 313.382C422.09 325.654 417.562 337.509 411.647 348.682C405.869 359.51 398.882 369.648 390.819 378.902C384.553 385.931 377.715 392.427 370.374 398.324L366.253 401.519C366.093 401.359 365.933 401.359 365.933 401.2C366.365 400.537 366.846 399.907 367.371 399.315C373.647 391.476 378.817 382.812 382.737 373.567C385.959 365.587 388.753 357.44 391.106 349.161C392.338 344.722 392.908 340.126 392.799 335.52C393.141 320.928 390.98 306.385 386.41 292.522C384.31 285.134 381.452 277.983 377.881 271.183C375.401 266.522 372.295 262.223 368.649 258.405C367.115 256.68 365.454 254.986 363.889 253.261C361.557 250.873 359.855 247.942 358.937 244.732C356.382 236.203 353.826 227.673 351.239 218.984C348.523 209.592 345.808 200.392 343.061 191C343.061 190.649 343.061 190.329 342.709 189.978C342.198 188.956 342.709 188.285 343.572 187.582C346.766 185.378 350.216 182.982 353.155 180.426C357.022 177.575 360.281 173.98 362.739 169.853C363.76 168.156 364.291 166.21 364.272 164.23C364.369 163.513 364.219 162.785 363.848 162.164C363.477 161.543 362.905 161.066 362.228 160.812C360.658 160.264 359.058 159.805 357.436 159.438C352.27 159.007 347.077 159.007 341.911 159.438C338.173 159.438 334.404 159.247 330.666 158.927C327.951 158.628 325.389 157.514 323.319 155.733C319.23 152.826 315.3 149.919 311.371 146.852C307.746 143.915 303.545 141.771 299.04 140.559C283.741 136.61 267.913 135.112 252.145 136.118C245.065 136.443 238.061 137.711 231.316 139.888C227.208 141.252 223.347 143.269 219.88 145.862C215.49 149.251 212.61 154.231 211.862 159.726C211.12 164.217 211.43 168.818 212.765 173.169C214.101 177.52 216.427 181.502 219.561 184.803C219.958 185.161 220.224 185.642 220.317 186.168C220.41 186.695 220.323 187.238 220.072 187.71C215.749 197.688 212.099 207.944 209.147 218.409C206.804 226.208 203.834 233.803 200.266 241.122C198.406 244.638 196.179 247.947 193.621 250.993C181.935 264.142 173.412 279.789 168.704 296.739C165.162 309.548 163.897 322.88 164.966 336.127C165.762 346.912 168.052 357.534 171.771 367.689C176.028 379.287 182.205 390.086 190.043 399.634C193.076 403.5 196.444 407.092 200.106 410.368C200.59 410.74 200.993 411.207 201.288 411.741C201.288 411.741 201.288 411.741 201.288 412.093C200.425 411.582 199.403 411.23 198.541 410.719C190.72 405.928 183.248 400.59 176.179 394.747C146.143 369.93 126.532 334.732 121.233 296.132C119.533 283.42 119.362 270.55 120.722 257.798C122.104 244.886 125.142 232.206 129.763 220.07C143.087 184.762 168.636 155.404 201.767 137.332C215.037 130.13 229.285 124.9 244.063 121.807C253.603 119.83 263.326 118.866 273.069 118.932C279.564 118.874 286.057 119.151 292.523 119.763C309.339 121.668 325.712 126.399 340.952 133.755C372.191 148.687 397.626 173.516 413.308 204.385C419.453 216.346 423.925 229.094 426.597 242.272C429.312 255.787 430.311 269.589 429.568 283.354Z" fill="white" fill-opacity="0.05"/>
<path d="M470.33 182.695C472.726 181.161 472.885 180.65 471.352 178.094C470.33 176.21 469.148 174.325 467.934 172.472C466.401 169.916 465.889 169.725 462.982 170.236C457.36 171.45 451.897 172.632 446.275 173.654C445.649 173.734 445.016 173.734 444.39 173.654C444.375 173.533 444.318 173.42 444.231 173.335L445.764 171.29L456.498 158.512C458.223 156.627 458.223 155.605 456.849 153.401C455.475 151.197 454.293 149.12 453.111 147.012C451.929 144.903 451.386 144.967 449.342 145.99C449.342 146.181 448.831 146.341 448.671 146.501C442.282 150.43 435.701 154.199 429.216 158.097C428.034 158.8 426.821 159.662 425.447 160.333C425.227 160.448 425.033 160.609 424.878 160.803C424.724 160.998 424.611 161.222 424.548 161.463C424.485 161.703 424.472 161.954 424.512 162.2C424.551 162.445 424.641 162.68 424.776 162.889C425.287 163.911 425.798 164.773 426.309 165.604C427.683 167.84 428.034 168 430.239 166.626C435.03 163.911 439.631 161.004 444.39 158.288L447.968 156.244L448.32 156.563C447.809 157.266 447.297 158.097 446.786 158.8C442.697 163.751 438.608 168.862 434.328 173.814C433.876 174.246 433.544 174.788 433.365 175.388C433.186 175.987 433.165 176.622 433.305 177.232C433.79 179.045 434.927 180.616 436.5 181.64C436.993 181.809 437.514 181.874 438.033 181.832C438.676 181.81 439.311 181.692 439.918 181.481C446.307 180.299 452.696 178.925 458.862 177.743C459.203 177.569 459.581 177.478 459.964 177.478C460.347 177.478 460.724 177.569 461.066 177.743C460.555 178.062 460.235 178.414 459.884 178.574L450.843 184.036C448.288 185.57 445.732 187.231 443.336 188.636C441.611 189.659 441.611 190.361 442.474 192.054C442.828 192.908 443.29 193.713 443.847 194.45C445.029 196.335 445.732 196.495 447.777 195.473C449.821 194.45 451.706 193.077 453.75 191.895C459.085 189.339 464.707 186.113 470.33 182.695Z" fill="white" fill-opacity="0.05"/>
<path d="M161.707 100.116C164.901 105.77 167.68 111.233 170.939 116.855C171.961 118.9 172.632 119.06 174.517 117.878C180.65 114.683 186.784 111.233 192.757 107.815C195.148 106.483 196.924 104.271 197.709 101.649C198.091 100.505 198.238 99.2951 198.138 98.0926C198.039 96.8902 197.697 95.7203 197.133 94.654C196.568 93.5877 195.793 92.6471 194.854 91.8892C193.916 91.1314 192.833 90.572 191.671 90.245C189.786 89.8936 189.978 89.7339 190.138 88.0089C190.381 86.8824 190.381 85.7172 190.138 84.5907C189.67 82.8459 188.612 81.3169 187.145 80.263C185.677 79.2091 183.891 78.6953 182.088 78.8087C179.379 78.8967 176.734 79.654 174.389 81.0129C169.469 83.7602 164.326 86.4755 159.407 89.2228C157.17 90.4047 157.011 91.0756 158.033 93.3118C159.055 95.5479 160.525 97.9119 161.707 100.116ZM190.202 100.116C190.311 100.773 190.224 101.448 189.951 102.057C189.678 102.665 189.232 103.179 188.668 103.534C184.931 105.579 181.161 107.623 177.232 109.668C177.232 109.859 176.913 109.668 176.401 109.668C175.379 107.623 174.165 105.579 172.983 103.279C173.332 102.88 173.729 102.525 174.165 102.224C177.36 100.372 180.554 98.6466 184.068 96.7938C184.669 96.4126 185.36 96.1986 186.07 96.1739C186.781 96.1493 187.486 96.3148 188.111 96.6535C188.736 96.9922 189.26 97.4917 189.627 98.1005C189.995 98.7092 190.193 99.405 190.202 100.116ZM168.032 91.2673C171.226 89.5422 174.165 87.8491 177.232 86.3158C179.628 85.1018 181.321 85.613 182.343 87.8491C182.532 88.1829 182.651 88.5513 182.693 88.9322C182.735 89.3132 182.7 89.6987 182.59 90.0658C182.48 90.4328 182.296 90.7737 182.051 91.068C181.805 91.3623 181.503 91.604 181.161 91.7784C180.81 91.9381 180.49 92.2895 180.139 92.4492C176.945 94.1743 173.75 96.0271 170.236 97.9119C169.054 95.8674 168.192 93.9826 167.042 92.0978C167.28 91.7269 167.625 91.4372 168.032 91.2673Z" fill="white" fill-opacity="0.05"/>
<path d="M67.725 292.905L79.8322 296.1C82.2281 296.611 84.5921 297.314 86.9879 297.825C88.8727 298.144 89.3838 297.825 89.3838 295.94C89.3838 294.566 89.2241 293.385 89.2241 292.011C89.2634 291.407 89.0754 290.81 88.6972 290.337C88.319 289.864 87.7777 289.55 87.1796 289.455L83.4101 288.433C81.3656 287.922 81.2059 287.922 81.2059 285.686C81.2059 281.597 81.0142 277.508 81.0142 273.419C80.9976 272.732 81.062 272.046 81.2059 271.374H83.9212C84.9435 271.374 86.1574 271.183 87.1157 271.183C88.0741 271.183 88.8088 270.512 88.8088 269.33C88.8088 268.148 88.6491 267.094 88.6491 265.912C88.4574 263.164 88.2977 263.005 85.4546 263.005H84.7837C78.81 263.005 73.0279 263.005 67.0542 263.356C64.3069 263.356 61.3999 263.356 58.6845 263.356C56.64 263.356 56.1289 264.059 56.1289 265.912C56.1289 270.512 56.1289 274.952 56.4803 279.552C56.6732 281.728 57.1236 283.872 57.822 285.941C58.315 287.402 59.1532 288.723 60.2655 289.79C61.3778 290.858 62.7312 291.642 64.211 292.075C65.6805 292.394 66.7028 292.554 67.725 292.905ZM63.1249 279.424C62.9332 277.22 62.9332 275.176 62.7735 273.035C62.7408 272.827 62.7578 272.613 62.8233 272.412C62.8888 272.211 63.0008 272.028 63.1503 271.879C63.2998 271.729 63.4824 271.617 63.6834 271.552C63.8844 271.486 64.098 271.469 64.3069 271.502H73.4751C74.3377 271.502 75.0085 271.853 75.0085 272.876V285.334C75.0085 285.334 74.8488 285.334 74.6571 286.005C71.9418 285.334 69.1945 284.632 66.6389 283.801C65.6523 283.561 64.7727 283.002 64.1371 282.211C63.5015 281.419 63.1456 280.439 63.1249 279.424Z" fill="white" fill-opacity="0.05"/>
<path d="M134.171 139.377C136.117 140.506 138.311 141.142 140.56 141.23C142.064 141.001 143.548 140.66 145 140.207C151.218 137.838 156.369 133.299 159.503 127.429C160.412 125.864 160.948 124.11 161.07 122.304C161.192 120.498 160.896 118.689 160.206 117.015C158.635 113.278 156.166 109.986 153.018 107.432C151.086 105.503 148.595 104.233 145.899 103.803C143.203 103.373 140.44 103.804 138.004 105.036C133.014 107.355 128.767 111.016 125.737 115.61C124.513 117.367 123.763 119.411 123.562 121.544C123.36 123.676 123.714 125.825 124.587 127.781C126.417 132.596 129.786 136.673 134.171 139.377ZM132.318 117.015C133.613 115.417 135.105 113.989 136.758 112.766C138.065 111.725 139.687 111.157 141.358 111.157C143.03 111.157 144.652 111.725 145.959 112.766C148.826 114.604 151.058 117.281 152.348 120.433C152.847 121.573 153.18 122.777 153.338 124.011C153.172 125.48 152.646 126.885 151.804 128.1C150.101 130.44 147.793 132.273 145.128 133.403C144.344 133.733 143.502 133.902 142.652 133.902C141.802 133.902 140.96 133.733 140.176 133.403C137.868 132.374 135.833 130.817 134.235 128.859C132.638 126.9 131.521 124.594 130.976 122.126C130.789 120.307 131.291 118.483 132.382 117.015H132.318Z" fill="white" fill-opacity="0.05"/>
<path d="M204.194 91.587C205.348 93.7182 207.083 95.4775 209.199 96.6597C211.314 97.8418 213.722 98.3981 216.142 98.2635C221.602 98.2945 226.945 96.6804 231.475 93.6314C233.134 92.7065 234.555 91.408 235.625 89.8389C236.695 88.2697 237.385 86.473 237.641 84.591C238.038 81.452 237.756 78.2643 236.814 75.2439C235.871 72.2235 234.29 69.441 232.178 67.085C230.299 64.9436 227.668 63.6057 224.831 63.3474C218.525 62.7395 212.202 64.3063 206.91 67.7878C204.941 68.904 203.323 70.5484 202.239 72.5354C201.155 74.5223 200.649 76.7728 200.776 79.0325C200.791 83.4452 201.97 87.7758 204.194 91.587ZM209.305 76.2533C209.531 75.2476 209.966 74.3009 210.582 73.4751C211.199 72.6493 211.983 71.9631 212.883 71.4615C214.785 70.4114 216.885 69.7694 219.049 69.5767C220.708 69.3443 222.397 69.6502 223.869 70.4495C225.341 71.2488 226.518 72.4993 227.227 74.0171C228.747 76.5974 229.51 79.5529 229.431 82.5465C229.695 84.3211 229.306 86.1313 228.337 87.6411C227.368 89.1509 225.884 90.2578 224.16 90.7564C222.349 91.4062 220.457 91.804 218.538 91.9384C217.621 92.0582 216.689 91.9487 215.824 91.6198C214.96 91.2909 214.191 90.7527 213.586 90.0536C211.798 88.279 210.473 86.0928 209.727 83.6867C208.98 81.2807 208.836 78.7282 209.305 76.2533Z" fill="white" fill-opacity="0.05"/>
<path d="M295.973 89.7339C300.321 91.6362 305.082 92.395 309.806 91.9382C313.064 91.9052 316.202 90.6984 318.643 88.5391C321.084 86.3798 322.665 83.4128 323.095 80.1823C323.499 78.8431 323.735 77.4589 323.798 76.0614C324.468 68.2348 322.264 63.2833 315.588 60.0888C310.632 57.6781 305.038 56.9062 299.615 57.8846C297.394 58.1714 295.286 59.0282 293.494 60.3718C291.703 61.7153 290.29 63.4998 289.393 65.5514C287.945 68.8339 287.184 72.378 287.157 75.9656C286.957 78.9023 287.706 81.8255 289.294 84.3043C290.881 86.7831 293.223 88.6865 295.973 89.7339ZM295.622 74.7197C295.776 73.3441 296.01 71.9787 296.325 70.6307C296.781 68.4433 298.068 66.5182 299.915 65.2609C301.762 64.0036 304.026 63.5122 306.228 63.8903C306.739 63.8903 307.058 64.05 307.57 64.05C308.774 64.1113 309.955 64.4097 311.044 64.928C312.133 65.4464 313.109 66.1745 313.916 67.0707C314.723 67.9669 315.346 69.0135 315.748 70.1507C316.15 71.2878 316.323 72.4931 316.259 73.6975C315.807 76.0703 315.188 78.4082 314.406 80.6934C313.768 82.4666 312.533 83.9624 310.912 84.9241C309.292 85.8859 307.387 86.2537 305.525 85.9644L302.778 85.4533C297.092 84.431 294.951 80.1823 295.622 74.7197Z" fill="white" fill-opacity="0.05"/>
<path d="M68.0433 252.367C70.6864 253.38 73.4435 254.067 76.2533 254.411C79.3429 254.934 82.5184 254.382 85.2504 252.847C87.9825 251.313 90.1062 248.888 91.2675 245.978C92.9524 242.164 93.8229 238.04 93.8231 233.87V233.008C93.9641 230.088 93.161 227.2 91.5327 224.772C89.9045 222.344 87.5376 220.505 84.7826 219.527C81.6774 218.312 78.3737 217.684 75.0393 217.674C72.5203 217.545 70.0182 218.153 67.8394 219.424C65.6607 220.695 63.8998 222.574 62.7724 224.83C60.0108 229.673 58.8168 235.253 59.3543 240.803C59.5028 243.372 60.4067 245.84 61.9525 247.897C63.4983 249.954 65.6172 251.509 68.0433 252.367ZM65.9989 232.752C66.3757 230.57 67.5863 228.62 69.3748 227.315C71.1633 226.009 73.3893 225.45 75.5824 225.756C78.6938 225.78 81.7285 226.725 84.3034 228.472C85.2582 229.119 86.0457 229.983 86.601 230.994C87.1564 232.005 87.4638 233.133 87.4979 234.286C87.6953 236.717 87.2663 239.159 86.2521 241.378C85.782 242.498 85.0334 243.479 84.0773 244.228C83.1212 244.977 81.9894 245.47 80.7895 245.658C76.4403 246.376 71.9839 245.342 68.3947 242.783C67.4915 242.236 66.7476 241.461 66.2375 240.536C65.7274 239.611 65.4689 238.568 65.4877 237.512C65.6794 236.107 65.6794 234.382 65.9989 232.689V232.752Z" fill="white" fill-opacity="0.05"/>
<path d="M79.8639 305.012C75.1713 304.806 70.5296 306.056 66.5748 308.59C64.877 309.584 63.4462 310.976 62.4056 312.645C61.365 314.315 60.7457 316.212 60.601 318.174C60.1023 323.828 61.2096 329.509 63.7955 334.562C64.8161 336.903 66.5151 338.885 68.6732 340.252C70.8313 341.619 73.3495 342.307 75.9028 342.228C79.2371 342.219 82.5408 341.59 85.646 340.376C88.6213 339.317 91.1595 337.299 92.8601 334.638C94.5607 331.977 95.327 328.826 95.0379 325.681C94.7933 320.893 93.4487 316.225 91.1086 312.04C90.0741 309.939 88.4734 308.167 86.4869 306.925C84.5003 305.684 82.2066 305.021 79.8639 305.012ZM81.2376 332.837C79.5445 333.348 77.6597 333.507 75.9347 333.859C74.027 333.939 72.148 333.374 70.6006 332.256C69.0532 331.137 67.9277 329.53 67.4053 327.693C66.8934 326.028 66.5509 324.316 66.3831 322.582C66.2519 321.324 66.4829 320.054 67.0488 318.922C67.6147 317.79 68.492 316.843 69.5776 316.193C71.3131 314.885 73.3085 313.962 75.4297 313.489C77.551 313.015 79.7491 313 81.8765 313.446C83.1308 313.663 84.3077 314.2 85.2929 315.006C86.2781 315.812 87.038 316.859 87.4988 318.046C87.8502 318.749 88.01 319.42 88.3614 320.091C90.2461 326.863 87.8502 330.952 81.3654 332.837H81.2376Z" fill="white" fill-opacity="0.05"/>
<path d="M367.625 113.948C372.928 117.526 378.39 121.296 383.597 124.874C386.792 126.918 389.571 128.963 392.638 130.847C394.363 131.87 395.034 131.87 396.216 130.145C396.575 129.677 396.865 129.161 397.078 128.611C397.589 127.269 397.589 126.758 396.407 125.704C395.896 125.193 395.385 124.874 394.682 124.171C395.058 123.628 395.399 123.063 395.705 122.478C397.941 119.06 400.305 115.833 402.541 112.415L407.652 104.748C408.834 103.023 408.674 102.352 407.141 101.138C406.301 100.431 405.391 99.8098 404.426 99.2855C402.701 98.2632 402.03 98.423 400.816 100.116C397.621 104.748 394.427 109.508 391.456 114.108C390.242 115.993 388.9 117.686 387.527 119.922C383.246 116.728 378.838 114.3 374.749 110.882C375.42 109.859 375.771 109.157 376.282 108.326C379.86 103.023 383.438 97.7521 387.016 92.6089C387.485 91.9683 387.892 91.2836 388.23 90.5645C388.435 90.173 388.497 89.7218 388.403 89.2897C388.31 88.8576 388.067 88.472 387.718 88.2005C386.526 87.2475 385.267 86.3827 383.949 85.6129C382.767 84.9421 382.064 85.1018 381.234 86.3157L379.7 88.3602C375.26 94.7493 370.819 101.49 366.379 107.975C364.398 111.233 364.558 111.808 367.625 113.948Z" fill="white" fill-opacity="0.05"/>
<path d="M400.369 133.562C398.835 135.096 398.835 135.798 400.369 137.332C401.902 138.865 403.116 140.207 404.49 141.74C407.684 144.935 410.879 148.417 414.073 151.643C415.415 153.017 416.629 154.39 418.003 155.572C418.514 156.084 419.344 156.754 420.047 156.084C421.03 155.26 421.939 154.351 422.762 153.368C423.114 153.017 422.762 152.154 422.603 151.483C422.443 150.813 421.9 150.621 421.58 150.11C418.003 146.372 414.233 142.603 410.655 138.673C410.033 138.033 409.457 137.35 408.93 136.629L413.882 132.189C414.233 132.54 414.744 132.891 415.255 133.402L425.478 143.625C426.851 144.999 427.203 144.999 428.672 143.817C431.388 141.74 431.388 140.91 429.183 138.514C425.989 135.319 423.05 132.125 419.983 128.93C419.426 128.341 418.913 127.711 418.45 127.045C420.143 125.512 421.644 124.33 423.369 122.605C424.583 123.819 425.765 125.161 427.139 126.534L436.339 136.278C437.042 136.948 437.872 137.811 438.895 137.46C440.299 136.945 441.445 135.902 442.089 134.553C442.6 133.53 441.546 132.668 440.875 131.997C435.413 126.375 429.95 120.561 424.328 114.938C421.932 112.383 421.772 112.383 419.216 114.938C414.776 119.219 410.336 123.468 405.736 127.716C404.134 129.829 402.337 131.786 400.369 133.562Z" fill="white" fill-opacity="0.05"/>
<path d="M461.449 229.782C460.427 226.363 459.405 222.945 458.255 219.719C457.392 217.163 456.721 214.608 455.859 211.701C457.743 211.189 459.277 210.519 460.81 210.007C462.344 209.496 462.535 209.656 463.046 211.189C463.558 212.723 464.228 214.767 464.739 216.492C465.762 219.687 466.624 222.434 467.646 225.533C467.998 226.363 468.317 227.226 469.531 227.226C472.726 227.226 473.94 225.693 473.109 222.626C472.279 219.559 471.224 216.652 470.202 213.585C469.691 211.701 469.02 209.816 468.317 207.612L474.706 205.567C475.058 206.589 475.218 207.1 475.409 207.771C476.943 212.883 478.604 218.026 480.169 222.945C481.191 226.14 482.054 226.555 485.28 225.341C485.516 225.289 485.739 225.189 485.937 225.05C486.134 224.91 486.301 224.732 486.429 224.527C486.557 224.322 486.643 224.093 486.681 223.855C486.72 223.616 486.711 223.372 486.654 223.137C486.461 221.976 486.172 220.833 485.791 219.719C484.45 215.47 483.076 211.03 481.702 206.749C480.84 203.842 480.009 200.775 478.987 197.868C478.284 196.015 477.773 195.664 475.793 196.175C474.396 196.561 473.02 197.019 471.672 197.549C464.676 199.753 457.871 201.798 450.875 203.938C447.297 205.12 447.106 205.28 448.32 208.698C449.693 213.489 451.227 218.281 452.76 222.849C453.591 225.756 454.453 228.663 455.475 231.57C455.635 232.241 456.146 233.104 456.657 233.104C457.403 233.248 458.17 233.231 458.908 233.055C459.646 232.878 460.338 232.547 460.938 232.082C462.312 231.826 461.641 230.804 461.449 229.782Z" fill="white" fill-opacity="0.05"/>
<path d="M247.704 86.827C247.704 87.3381 247.704 87.8492 247.704 88.3604C247.895 89.5423 248.406 90.0534 249.588 90.0534C250.9 90.08 252.212 90.0266 253.518 89.8937C255.562 89.734 255.913 89.2229 255.913 87.1784V82.3866C257.095 82.2269 257.958 82.2269 259.108 82.0352C262.686 81.7158 266.423 81.7158 270.001 81.2046C272.59 80.9264 274.989 79.7167 276.753 77.8008C278.516 75.8849 279.522 73.3935 279.585 70.7905C279.696 69.3612 279.632 67.9235 279.393 66.5099C279.298 65.0792 278.915 63.6825 278.266 62.4037C277.618 61.125 276.717 59.9905 275.619 59.0685C274.521 58.1464 273.248 57.4559 271.877 57.0384C270.505 56.6209 269.063 56.485 267.637 56.6388C263.037 56.7985 258.437 56.9583 253.805 57.3097C251.952 57.3097 249.908 57.3097 248.023 57.6611C246.138 58.0125 246.138 58.1722 245.979 59.8653V60.6958C246.681 69.5766 247.192 78.1379 247.704 86.827ZM255.019 63.8904C255.211 63.8904 255.211 63.8904 255.37 63.8904C259.268 63.263 263.23 63.1449 267.158 63.539C268.037 63.6137 268.87 63.9621 269.541 64.5351C270.211 65.1082 270.685 65.877 270.896 66.7335C271.141 67.3941 271.312 68.0798 271.407 68.778C271.758 73.7295 269.874 75.167 266.296 75.774C262.718 76.3809 259.459 76.2851 255.882 76.6365C255.079 72.4383 254.79 68.1583 255.019 63.8904Z" fill="white" fill-opacity="0.05"/>
<path d="M114.301 176.721C114.53 176.876 114.79 176.982 115.062 177.032C115.335 177.083 115.615 177.076 115.885 177.013C116.155 176.95 116.409 176.832 116.631 176.666C116.853 176.5 117.038 176.291 117.176 176.05C118.038 175.028 118.741 174.005 119.572 172.855C119.774 172.623 119.923 172.348 120.008 172.052C120.093 171.755 120.111 171.443 120.063 171.139C120.014 170.834 119.899 170.544 119.726 170.288C119.553 170.033 119.325 169.819 119.06 169.661C117.687 168.639 116.505 167.616 115.131 166.466C113.758 165.316 111.745 163.911 109.86 162.537C113.055 158.288 115.994 154.008 119.252 149.759C120.274 150.43 120.945 150.941 121.616 151.452C124.012 153.177 126.216 154.87 128.612 156.563C129.986 157.426 130.657 157.426 131.519 156.244C132.382 155.062 133.212 154.008 133.915 153.049C134.618 152.091 134.586 151.005 133.404 149.855C132.941 149.402 132.426 149.005 131.87 148.673C127.781 145.478 123.501 142.539 119.412 139.441L111.042 133.307C109.509 132.285 108.838 132.285 107.848 133.818C107.166 134.629 106.536 135.483 105.963 136.374C104.589 138.259 104.781 138.93 106.634 140.303C108.487 141.677 109.828 142.539 111.426 143.721C112.448 144.392 113.31 145.255 114.62 146.117C111.426 150.366 108.231 154.455 105.228 158.895L103.535 157.681C101.491 156.148 99.4461 154.487 97.1461 153.081C95.6127 152.059 94.9419 152.251 93.7279 153.592L92.1946 155.637C90.6612 157.873 90.6612 158.544 92.7057 160.077L114.045 175.794C113.79 176.401 113.949 176.561 114.301 176.721Z" fill="white" fill-opacity="0.05"/>
<path d="M489.592 262.525C487.036 262.877 484.48 263.036 481.925 263.388C481.417 263.466 480.9 263.466 480.392 263.388C479.88 258.277 479.369 253.133 478.858 247.862L482.436 247.351L488.25 246.84C490.646 246.489 490.806 246.329 490.806 243.933C490.885 243.083 490.885 242.228 490.806 241.378C490.614 238.822 489.943 238.471 487.611 238.63L466.4 240.547C464.355 240.547 462.311 241.058 460.426 241.218C458.541 241.378 458.541 241.729 458.541 243.422C458.582 244.494 458.7 245.561 458.892 246.617C459.244 249.332 459.563 249.524 462.311 249.172C464.163 249.172 466.208 248.661 468.093 248.501C469.742 248.405 471.395 248.405 473.044 248.501C473.396 253.613 474.226 258.724 474.418 264.027C473.362 264.208 472.294 264.315 471.223 264.346C468.476 264.698 465.569 265.049 462.854 265.209C461.672 265.209 461.161 265.72 461.161 266.902C461.108 268.506 461.215 270.111 461.48 271.694C461.672 273.067 462.183 273.387 463.524 273.387C464.866 273.387 465.569 273.387 466.719 273.387C474.194 272.716 481.701 271.853 489.081 270.991C489.877 271.071 490.68 271.071 491.476 270.991C493.361 270.639 493.521 270.288 493.521 268.595C493.501 267.449 493.394 266.306 493.201 265.177C492.499 262.525 491.956 262.206 489.592 262.525Z" fill="white" fill-opacity="0.05"/>
<path d="M337.789 100.116C341.071 101.659 344.43 103.035 347.852 104.237C349.35 104.683 350.892 104.962 352.452 105.068C353.529 105.14 354.611 105.021 355.646 104.716C357.119 104.497 358.507 103.894 359.673 102.969C360.839 102.044 361.742 100.829 362.291 99.4453C362.579 98.9688 362.671 98.3985 362.545 97.8557C362.42 97.3129 362.088 96.8403 361.62 96.5383C361.168 96.0382 360.616 95.6385 360 95.3649C359.383 95.0913 358.717 94.9499 358.042 94.9499C357.368 94.9499 356.701 95.0913 356.085 95.3649C355.469 95.6385 354.917 96.0382 354.464 96.5383C353.923 96.9323 353.345 97.2746 352.739 97.5606C352.232 97.8699 351.661 98.062 351.07 98.1227C350.479 98.1835 349.881 98.1115 349.321 97.912C346.351 96.8446 343.45 95.5964 340.632 94.1744C339.623 93.6592 338.811 92.8269 338.32 91.8055C337.83 90.7841 337.688 89.6299 337.917 88.5201C338.446 84.6246 339.964 80.9295 342.325 77.7865C342.89 76.9456 343.711 76.3085 344.666 75.9692C345.62 75.6298 346.659 75.6062 347.628 75.9018C350.535 76.7643 353.25 77.7865 355.998 78.8088C356.705 79.1424 357.321 79.6419 357.794 80.2649C358.267 80.8878 358.582 81.6157 358.713 82.3866C358.91 82.9974 359.028 83.6307 359.065 84.2714C359.129 84.8407 359.331 85.3858 359.654 85.8591C359.977 86.3323 360.411 86.7195 360.917 86.9867C361.62 87.3381 362.131 87.6895 362.802 88.009C364.847 88.8715 366.22 88.2006 366.731 86.1562C367.339 84.0195 367.098 81.731 366.06 79.7671C364.905 77.5283 363.146 75.658 360.981 74.3684C356.816 72.0543 352.325 70.3849 347.66 69.4169C345.152 68.8534 342.532 69.0754 340.154 70.0527C337.777 71.0299 335.758 72.7151 334.371 74.8795C332.078 78.1946 330.56 81.9832 329.93 85.9645C329.689 87.4347 329.689 88.9346 329.93 90.4049C330.3 92.5608 331.216 94.586 332.592 96.2864C333.968 97.9867 335.757 99.3054 337.789 100.116Z" fill="white" fill-opacity="0.05"/>
<path d="M247.001 464.515C245.918 463.958 244.784 463.509 243.614 463.173C241.518 462.612 239.382 462.206 237.225 461.959C234.927 461.526 232.552 461.77 230.389 462.662C229.514 463.008 228.723 463.537 228.068 464.212C227.412 464.887 226.908 465.694 226.588 466.579C226.268 467.464 226.139 468.407 226.211 469.345C226.282 470.283 226.552 471.196 227.003 472.022C227.003 472.533 227.322 472.884 227.514 473.395C227.163 473.747 226.811 473.907 226.492 474.258C225.435 474.897 224.552 475.787 223.923 476.85C223.294 477.913 222.939 479.116 222.888 480.35C222.837 481.584 223.093 482.811 223.633 483.922C224.173 485.033 224.979 485.993 225.981 486.717C227.508 487.84 229.247 488.644 231.092 489.081L239.43 490.646C241.448 490.932 243.506 490.69 245.403 489.943C246.496 489.523 247.474 488.853 248.26 487.986C249.045 487.119 249.617 486.079 249.927 484.951C250.238 483.823 250.28 482.638 250.049 481.491C249.818 480.344 249.321 479.267 248.598 478.347C248.394 477.994 248.17 477.652 247.927 477.325C248.598 476.814 249.109 476.462 249.269 475.951C250.047 475.009 250.634 473.924 250.994 472.757C251.372 471.133 251.181 469.429 250.455 467.929C249.728 466.429 248.509 465.224 247.001 464.515ZM243.103 482.787C242.752 484.48 241.57 485.183 238.663 485.183C237.13 484.832 234.574 484.321 232.274 483.65C230.549 483.139 230.038 481.925 230.389 480.04C230.4 479.657 230.497 479.282 230.674 478.942C230.851 478.603 231.103 478.308 231.411 478.08C231.719 477.852 232.074 477.697 232.451 477.628C232.827 477.558 233.215 477.574 233.584 477.676C236.114 477.952 238.622 478.401 241.091 479.018C241.833 479.287 242.449 479.821 242.82 480.517C243.192 481.212 243.293 482.021 243.103 482.787ZM244.285 471.511C244.231 472.113 243.956 472.673 243.514 473.086C243.072 473.498 242.494 473.734 241.889 473.747C239.243 473.92 236.598 473.391 234.223 472.213C233.041 471.702 232.849 470.84 233.041 469.466C233.232 468.093 233.711 467.613 235.085 467.262C235.596 467.102 236.267 467.262 236.778 467.102V466.911C238.663 467.422 240.707 467.773 242.592 468.444C242.906 468.532 243.199 468.682 243.455 468.884C243.71 469.087 243.923 469.338 244.08 469.623C244.238 469.908 244.337 470.222 244.372 470.546C244.407 470.87 244.378 471.198 244.285 471.511Z" fill="white" fill-opacity="0.05"/>
<path d="M215.469 455.825C212.357 454.467 209.155 453.325 205.886 452.407C204.357 452.136 202.787 452.201 201.286 452.599C200.381 452.81 199.534 453.216 198.802 453.788C198.07 454.361 197.472 455.086 197.05 455.913C196.627 456.74 196.39 457.65 196.354 458.578C196.319 459.506 196.487 460.431 196.845 461.288C196.845 461.639 196.845 462.15 197.197 462.662C196.774 462.851 196.368 463.075 195.983 463.332C194.845 463.813 193.841 464.563 193.057 465.517C192.272 466.472 191.731 467.602 191.48 468.812C191.229 470.021 191.275 471.274 191.614 472.461C191.953 473.649 192.575 474.737 193.427 475.631C194.457 476.621 195.605 477.479 196.845 478.187C199.329 479.417 201.89 480.484 204.512 481.381C206.593 481.942 208.75 482.168 210.901 482.052C212.13 481.988 213.323 481.617 214.371 480.972C215.419 480.327 216.288 479.429 216.899 478.36C217.509 477.292 217.842 476.087 217.865 474.857C217.889 473.626 217.604 472.41 217.035 471.319C216.875 470.808 216.715 470.456 216.524 469.945C216.943 469.6 217.405 469.311 217.897 469.083C218.725 468.531 219.423 467.805 219.942 466.956C220.461 466.107 220.788 465.155 220.9 464.166C221.013 463.177 220.908 462.176 220.594 461.232C220.279 460.288 219.762 459.424 219.079 458.7C218.159 457.432 216.912 456.438 215.469 455.825ZM210.518 474.769C210.332 475.289 209.983 475.736 209.522 476.041C209.061 476.346 208.514 476.494 207.962 476.462C207.667 476.474 207.372 476.419 207.1 476.302C204.488 475.488 201.928 474.517 199.433 473.395C199.093 473.27 198.785 473.071 198.532 472.811C198.279 472.552 198.088 472.239 197.971 471.896C197.855 471.553 197.817 471.188 197.859 470.829C197.902 470.469 198.025 470.123 198.219 469.817C198.286 469.433 198.441 469.069 198.671 468.753C198.901 468.437 199.2 468.179 199.545 467.997C199.891 467.815 200.273 467.714 200.664 467.703C201.054 467.692 201.442 467.77 201.797 467.933C204.296 468.707 206.75 469.625 209.144 470.68C209.52 470.838 209.858 471.075 210.136 471.374C210.414 471.673 210.624 472.027 210.754 472.414C210.884 472.801 210.93 473.211 210.89 473.617C210.849 474.023 210.722 474.416 210.518 474.769ZM210.518 465.185C208.132 464.979 205.842 464.153 203.873 462.789C203.303 462.454 202.88 461.915 202.69 461.281C202.501 460.647 202.558 459.965 202.851 459.371C203.009 458.766 203.4 458.248 203.939 457.931C204.478 457.614 205.12 457.523 205.726 457.678C208.008 458.376 210.238 459.23 212.403 460.234C213.087 460.726 213.565 461.455 213.744 462.278C213.778 462.67 213.726 463.064 213.592 463.434C213.458 463.803 213.246 464.139 212.969 464.419C212.693 464.698 212.359 464.914 211.991 465.052C211.623 465.19 211.229 465.246 210.837 465.217L210.518 465.185Z" fill="white" fill-opacity="0.05"/>
<path d="M265.433 486.205L270.033 484.672C272.766 483.944 275.446 483.026 278.051 481.925C279.801 481.235 281.229 479.914 282.051 478.222C282.874 476.53 283.031 474.591 282.492 472.789C282.268 471.13 281.49 469.595 280.283 468.435C279.077 467.275 277.513 466.558 275.847 466.4C273.035 465.885 270.171 465.714 267.318 465.888C264.555 465.965 261.904 466.992 259.81 468.795C259.144 469.306 258.62 469.98 258.29 470.753C257.96 471.525 257.835 472.369 257.926 473.204C258.001 473.817 258.31 474.378 258.788 474.769C259.774 475.104 260.838 475.134 261.841 474.855C262.844 474.575 263.74 474 264.411 473.204C264.922 472.693 265.273 472.022 265.944 471.67C267.21 471.125 268.574 470.843 269.953 470.843C271.332 470.843 272.696 471.125 273.962 471.67C274.509 471.94 274.973 472.353 275.304 472.865C275.636 473.376 275.824 473.968 275.847 474.577C275.942 475.158 275.822 475.754 275.511 476.254C275.2 476.753 274.717 477.122 274.154 477.293C273.039 477.763 271.898 478.168 270.736 478.507C268.5 479.178 266.295 479.529 264.347 480.2C262.023 480.812 260.015 482.275 258.719 484.299C257.423 486.322 256.935 488.759 257.351 491.125C257.351 492.307 257.862 492.818 259.044 492.818C260.397 493.029 261.763 493.146 263.133 493.17C267.573 493.329 272.013 493.329 276.294 493.329C277.476 493.329 278.658 493.521 279.872 493.521C280.301 493.591 280.741 493.507 281.115 493.285C281.488 493.063 281.772 492.717 281.916 492.307C282.779 489.751 281.916 488.218 279.009 488.218C274.92 488.218 270.64 488.218 266.551 488.218C265.745 488.155 264.945 488.037 264.155 487.867C264.762 486.876 264.922 486.365 265.433 486.205Z" fill="white" fill-opacity="0.05"/>
<path d="M489.272 282.172H488.569C488.194 282.169 487.83 282.304 487.547 282.551C487.265 282.798 487.083 283.141 487.036 283.513C486.853 284.354 486.746 285.209 486.716 286.069C486.365 288.657 486.205 291.212 485.854 293.928H483.298C478.858 293.416 474.258 292.905 469.817 292.554C467.102 292.234 464.515 292.043 461.799 291.883C460.266 291.723 459.755 292.234 459.403 293.768C459.244 294.598 459.244 295.461 459.084 296.323C458.732 299.518 458.892 299.742 462.278 300.253C462.79 300.253 463.301 300.412 463.812 300.412C470.201 301.083 476.781 301.594 483.266 302.297C485.119 302.457 485.311 302.808 485.119 304.693C485.119 305.012 485.119 305.204 485.119 305.524C484.959 307.76 484.608 310.124 484.448 312.36C484.289 314.596 484.959 314.915 487.004 315.075H488.026C489.879 315.075 490.23 314.756 490.39 312.871C490.933 308.782 491.444 304.501 491.764 300.412C492.275 295.621 492.467 290.829 493.297 286.261C493.521 282.331 492.179 282.172 489.272 282.172Z" fill="white" fill-opacity="0.05"/>
<path d="M377.177 463.684C375.292 459.755 373.44 455.985 371.555 452.088C371.044 451.066 370.533 449.852 370.022 448.894C369.551 448.955 369.09 449.073 368.648 449.245C365.453 450.778 362.259 452.439 359.064 454.005C357.376 454.777 356.037 456.151 355.31 457.859C354.583 459.567 354.521 461.485 355.135 463.237C355.646 465.792 356.157 468.508 356.86 471.063C356.86 472.277 357.371 473.108 355.998 473.811C355.831 473.922 355.696 474.075 355.606 474.254C355.516 474.433 355.475 474.633 355.486 474.833C355.486 477.229 356.668 478.027 358.905 477.037C359.387 476.892 359.841 476.665 360.246 476.366L377.145 468.188C378.679 467.326 378.87 467.166 378.168 465.601C377.887 464.938 377.556 464.297 377.177 463.684ZM362.866 470.073C362.514 469.402 362.163 469.051 362.163 468.731C361.652 466.144 361.141 463.429 360.63 460.873C360.424 460.101 360.501 459.281 360.847 458.561C361.193 457.84 361.784 457.267 362.514 456.944C362.931 456.644 363.396 456.417 363.888 456.273C365.933 455.251 366.092 455.251 367.083 457.455C368.073 459.659 369.478 462.247 370.501 464.611C370.66 465.122 370.852 465.633 371.172 466.495C368.296 467.613 365.581 468.795 362.866 469.977V470.073Z" fill="white" fill-opacity="0.05"/>
<path d="M401.584 446.785C399.859 444.23 398.166 441.482 396.281 438.927C395.533 437.73 394.41 436.814 393.086 436.323C391.763 435.831 390.314 435.792 388.966 436.212C384.699 437.368 380.964 439.964 378.392 443.559C377.875 444.231 377.566 445.04 377.504 445.886C377.442 446.732 377.628 447.578 378.04 448.319C378.392 448.989 378.903 449.501 379.574 448.99C381.107 448.159 382.768 447.456 383.311 445.603C383.554 444.736 383.986 443.933 384.578 443.253C385.169 442.574 385.904 442.034 386.73 441.674C388.774 440.652 390.148 441.163 391.17 443.367C390.014 444.528 388.689 445.508 387.241 446.274C385.531 447.558 383.938 448.99 382.481 450.555C381.77 451.503 381.357 452.64 381.294 453.824C381.232 455.007 381.522 456.182 382.129 457.199C382.819 458.22 383.789 459.019 384.923 459.5C386.056 459.982 387.305 460.126 388.518 459.915C390.365 459.601 392.112 458.86 393.62 457.75C395.129 456.641 396.357 455.194 397.208 453.526C397.455 453.21 397.745 452.931 398.07 452.695C398.467 453.002 398.964 453.152 399.464 453.117C399.965 453.082 400.435 452.863 400.785 452.503C401.648 451.833 402.67 451.481 403.181 450.651C404.044 449.085 402.351 448.415 401.84 447.456C401.75 447.371 401.68 447.266 401.636 447.15C401.591 447.034 401.574 446.909 401.584 446.785ZM395.195 449.98C394.786 451.089 394.153 452.102 393.333 452.954C392.514 453.806 391.527 454.479 390.435 454.931C390.153 455.007 389.855 455.007 389.573 454.931C389.093 454.929 388.625 454.782 388.232 454.508C387.838 454.234 387.537 453.847 387.368 453.398C387.163 453.021 387.083 452.589 387.14 452.164C387.198 451.738 387.39 451.342 387.688 451.034C388.391 450.331 389.413 449.66 390.243 448.958C390.903 448.556 391.533 448.108 392.128 447.616C392.799 447.105 393.342 446.753 394.013 447.424C394.684 448.095 395.77 448.83 395.259 449.852L395.195 449.98Z" fill="white" fill-opacity="0.05"/>
<path d="M339.322 462.981C336.866 462.642 334.363 462.917 332.039 463.781C329.714 464.645 327.64 466.071 326.001 467.932C325.307 468.78 324.798 469.764 324.506 470.82C324.214 471.876 324.147 472.982 324.308 474.066C324.513 476.142 325.087 478.165 326.001 480.04C326.767 481.711 328.033 483.103 329.623 484.024C331.214 484.945 333.051 485.35 334.882 485.183C338.27 484.989 341.526 483.8 344.242 481.765C345.344 481.008 346.236 479.984 346.834 478.788C347.432 477.592 347.716 476.264 347.66 474.928C347.613 472.173 346.853 469.477 345.456 467.102C344.856 465.959 343.982 464.984 342.911 464.265C341.84 463.545 340.607 463.104 339.322 462.981ZM338.108 480.231C337.181 480.676 336.127 480.782 335.129 480.531C334.131 480.28 333.253 479.688 332.646 478.858C331.115 476.907 330.283 474.5 330.282 472.021C330.292 470.947 330.647 469.905 331.294 469.048C331.942 468.19 332.847 467.564 333.877 467.26C334.907 466.956 336.008 466.99 337.017 467.359C338.026 467.727 338.89 468.41 339.482 469.306C340.694 471.382 341.343 473.738 341.367 476.142C341.393 477.099 341.08 478.033 340.484 478.782C339.888 479.53 339.046 480.043 338.108 480.231Z" fill="white" fill-opacity="0.05"/>
<path d="M113.279 379.061C111.966 379.017 110.658 379.242 109.437 379.724C108.215 380.206 107.106 380.934 106.177 381.863C105.248 382.791 104.521 383.901 104.039 385.122C103.557 386.344 103.331 387.652 103.376 388.964C103.362 390.216 103.602 391.458 104.082 392.614C104.561 393.771 105.271 394.818 106.166 395.693C107.062 396.568 108.126 397.252 109.293 397.704C110.461 398.156 111.708 398.367 112.959 398.324C115.501 398.371 117.957 397.406 119.787 395.641C121.617 393.877 122.672 391.458 122.718 388.916C122.765 386.374 121.8 383.918 120.036 382.088C118.271 380.258 115.852 379.204 113.311 379.157L113.279 379.061Z" fill="white" fill-opacity="0.05"/>
<path d="M434.454 391.839C433.169 391.796 431.888 392.012 430.688 392.475C429.488 392.937 428.394 393.636 427.47 394.531C426.546 395.425 425.811 396.496 425.31 397.68C424.808 398.864 424.55 400.137 424.551 401.423C424.552 403.304 425.107 405.144 426.146 406.712C427.186 408.281 428.664 409.508 430.397 410.242C432.13 410.976 434.04 411.183 435.89 410.839C437.739 410.494 439.447 409.613 440.799 408.304C442.151 406.996 443.088 405.318 443.493 403.48C443.898 401.643 443.753 399.727 443.077 397.971C442.4 396.215 441.222 394.698 439.688 393.607C438.155 392.517 436.334 391.902 434.454 391.839Z" fill="white" fill-opacity="0.05"/>
<path d="M153.337 429.567C151.816 428.85 150.119 428.596 148.455 428.834C146.792 429.073 145.235 429.794 143.977 430.908C142.291 432.272 140.89 433.954 139.856 435.86C138.942 437.421 138.535 439.226 138.689 441.028C138.844 442.83 139.552 444.54 140.718 445.922C142.771 448.566 145.481 450.625 148.577 451.896C149.621 452.256 150.688 452.545 151.771 452.759C152.584 452.816 153.399 452.674 154.145 452.346C154.891 452.017 155.545 451.512 156.052 450.874C156.169 450.766 156.263 450.635 156.327 450.49C156.39 450.344 156.424 450.186 156.424 450.027C156.424 449.868 156.39 449.711 156.327 449.565C156.263 449.419 156.169 449.289 156.052 449.181C154.87 447.967 153.496 446.434 151.452 447.136C150.291 447.428 149.066 447.336 147.961 446.876C146.856 446.415 145.929 445.61 145.318 444.581C144.742 444.009 144.377 443.257 144.284 442.45C144.191 441.643 144.376 440.829 144.807 440.14C145.656 438.621 146.733 437.242 148.002 436.051C148.523 435.363 149.249 434.858 150.077 434.611C150.904 434.364 151.789 434.387 152.602 434.678C154.646 435.54 156.531 436.722 156.531 439.118C156.538 440.035 156.794 440.933 157.272 441.715C157.751 442.498 158.433 443.135 159.246 443.558C160.46 444.389 161.131 444.229 161.802 442.856C162.295 441.924 162.526 440.877 162.47 439.825C162.413 438.772 162.072 437.755 161.483 436.882C159.63 433.627 156.772 431.06 153.337 429.567Z" fill="white" fill-opacity="0.05"/>
<path d="M193.109 448.478C193.109 447.967 192.949 447.137 192.598 446.945C191.186 445.686 189.377 444.963 187.487 444.9C185.32 445.243 183.184 445.756 181.098 446.434C180.746 446.625 180.076 446.945 180.076 447.137C180.06 448.129 180.233 449.116 180.587 450.044C180.906 450.874 181.769 450.714 182.631 450.555H184.165C183.935 451.259 183.647 451.943 183.302 452.599C181.258 456.688 179.053 460.777 176.913 464.866C175.188 468.284 174.166 468.061 178.766 470.68C180.299 471.511 181.321 471.511 182.184 469.658L192.438 449.692C192.628 449.547 192.786 449.365 192.901 449.156C193.017 448.947 193.087 448.716 193.109 448.478Z" fill="white" fill-opacity="0.05"/>
<path d="M316.45 467.613L307.569 469.146L302.298 470.169C302.617 472.373 302.969 474.258 303.32 476.302C303.991 480.551 304.853 484.672 305.524 489.08C305.876 490.454 306.035 490.614 307.409 490.454C308.783 490.294 310.316 489.943 312.009 489.751C311.498 484.129 309.965 479.018 309.454 473.395C312.648 472.884 315.843 472.181 319.037 471.67V469.466C318.654 467.613 318.334 467.262 316.45 467.613Z" fill="white" fill-opacity="0.05"/>
<path d="M82.0366 187.997C82.7006 188.81 83.4503 189.549 84.2728 190.201C84.4376 190.402 84.6449 190.564 84.8796 190.675C85.1144 190.785 85.3708 190.843 85.6305 190.843C85.8901 190.843 86.1466 190.785 86.3813 190.675C86.6161 190.564 86.8233 190.402 86.9881 190.201C88.1628 188.854 88.9373 187.206 89.2243 185.441C89.0326 184.93 88.8729 184.068 88.3618 183.716C85.9659 181.832 83.4103 179.979 81.0144 178.094C80.8539 177.97 80.6674 177.884 80.4689 177.842C80.2704 177.801 80.065 177.805 79.8682 177.854C79.6714 177.903 79.4883 177.996 79.3327 178.126C79.1772 178.256 79.0531 178.42 78.9699 178.605C78.3116 179.431 77.9531 180.456 77.9531 181.512C77.9531 182.568 78.3116 183.593 78.9699 184.419C79.8644 185.601 81.0144 186.975 82.0366 187.997Z" fill="white" fill-opacity="0.05"/>
<path d="M484.32 322.933C482.276 321.911 480.231 320.889 477.931 320.026C475.631 319.164 475.216 319.867 474.737 321.911C474.754 322.374 474.7 322.838 474.577 323.285C474.474 323.929 474.583 324.589 474.889 325.165C475.194 325.742 475.679 326.203 476.27 326.479C477.963 327.661 479.464 328.875 481.221 330.057C484.416 332.261 485.47 331.75 486.492 328.172C487.035 325.329 486.716 324.307 484.32 322.933Z" fill="white" fill-opacity="0.05"/>
<path d="M88.7124 181.672C88.8611 181.871 89.0541 182.032 89.2758 182.143C89.4976 182.254 89.7422 182.311 89.9902 182.311C90.2381 182.311 90.4827 182.254 90.7045 182.143C90.9263 182.032 91.1192 181.871 91.268 181.672C92.5633 180.411 93.3481 178.716 93.4722 176.913C93.3466 176.304 93.1198 175.721 92.8013 175.188C90.4054 173.303 87.8498 171.45 85.4539 169.565C85.2013 169.379 84.8892 169.293 84.577 169.323C84.2648 169.352 83.9743 169.495 83.7608 169.725C83.0145 170.369 82.5307 171.265 82.4011 172.243C82.2716 173.22 82.5053 174.211 83.0581 175.028C84.5914 177.232 86.6679 179.468 88.7124 181.672Z" fill="white" fill-opacity="0.05"/>
<path d="M482.948 333.348C480.41 331.949 477.797 330.691 475.121 329.578C474.409 329.457 473.677 329.581 473.045 329.929C472.462 330.57 472.113 331.389 472.055 332.254C471.996 333.118 472.233 333.977 472.725 334.689C475.164 336.826 477.724 338.82 480.392 340.663C481.574 341.526 482.788 341.014 483.299 339.481C483.662 338.438 483.95 337.371 484.162 336.287C484.162 334.881 483.97 333.859 482.948 333.348Z" fill="white" fill-opacity="0.05"/>
</svg>
