<svg width="110" height="110" viewBox="0 0 110 110" fill="none" xmlns="http://www.w3.org/2000/svg">
<path d="M69.8077 46.1661C58.9558 46.1661 50.7693 41.6544 50.7693 35.6738C50.7693 29.6932 58.9558 25.1815 69.8077 25.1815C80.6597 25.1815 88.8462 29.6932 88.8462 35.6738C88.8462 41.6544 80.6597 46.1661 69.8077 46.1661ZM69.8077 29.3784C61.3462 29.3784 55.0001 32.7045 55.0001 35.6738C55.0001 38.6432 61.3462 41.9692 69.8077 41.9692C78.2693 41.9692 84.6154 38.6432 84.6154 35.6738C84.6154 32.7045 78.2693 29.3784 69.8077 29.3784Z" fill="#C5C5C0"/>
<path d="M69.8077 58.7569C69.0568 58.7569 68.3217 58.7569 67.5549 58.6835C66.9938 58.6473 66.4703 58.3915 66.0993 57.9724C65.7284 57.5533 65.5405 57.0051 65.577 56.4486C65.6134 55.892 65.8713 55.3727 66.2938 55.0047C66.7163 54.6367 67.2688 54.4504 67.8299 54.4865C68.5068 54.5285 69.152 54.5495 69.8077 54.5495C78.2693 54.5495 84.6154 51.2234 84.6154 48.2541C84.6154 47.6976 84.8383 47.1638 85.235 46.7703C85.6317 46.3767 86.1698 46.1556 86.7308 46.1556C87.2918 46.1556 87.8299 46.3767 88.2266 46.7703C88.6233 47.1638 88.8462 47.6976 88.8462 48.2541C88.8462 54.2452 80.6597 58.7569 69.8077 58.7569Z" fill="#C5C5C0"/>
<path d="M52.8847 50.363C52.3236 50.363 51.7856 50.1419 51.3889 49.7484C50.9922 49.3548 50.7693 48.8211 50.7693 48.2645V35.6738C50.7693 35.1172 50.9922 34.5835 51.3889 34.1899C51.7856 33.7964 52.3236 33.5753 52.8847 33.5753C53.4457 33.5753 53.9838 33.7964 54.3805 34.1899C54.7772 34.5835 55 35.1172 55 35.6738V48.2645C55 48.8211 54.7772 49.3548 54.3805 49.7484C53.9838 50.1419 53.4457 50.363 52.8847 50.363Z" fill="#C5C5C0"/>
<path d="M69.8076 71.3476C69.1465 71.3476 68.459 71.3476 67.7821 71.3004C67.5043 71.2815 67.233 71.2084 66.9836 71.0854C66.7343 70.9625 66.5118 70.792 66.3289 70.5838C66.1459 70.3755 66.0062 70.1335 65.9175 69.8717C65.8288 69.6098 65.793 69.3332 65.8121 69.0577C65.8312 68.7821 65.9048 68.5129 66.0288 68.2656C66.1528 68.0183 66.3246 67.7975 66.5345 67.6161C66.7445 67.4346 66.9884 67.2959 67.2523 67.208C67.5163 67.12 67.7951 67.0845 68.0729 67.1035C68.6018 67.1402 69.1888 67.1402 69.8076 67.1402C78.2691 67.1402 84.6153 63.8141 84.6153 60.8448V35.6738C84.6153 35.1172 84.8381 34.5835 85.2348 34.1899C85.6316 33.7964 86.1696 33.5753 86.7307 33.5753C87.2917 33.5753 87.8297 33.7964 88.2265 34.1899C88.6232 34.5835 88.846 35.1172 88.846 35.6738V60.8553C88.846 66.8359 80.6595 71.3476 69.8076 71.3476Z" fill="#C5C5C0"/>
<path d="M44.423 71.3476C33.5711 71.3476 25.3845 66.836 25.3845 60.8553C25.3845 54.8747 33.5711 50.363 44.423 50.363C55.2749 50.363 63.4615 54.8747 63.4615 60.8553C63.4615 66.836 55.2749 71.3476 44.423 71.3476ZM44.423 54.56C35.9614 54.56 29.6153 57.886 29.6153 60.8553C29.6153 63.8247 35.9614 67.1507 44.423 67.1507C52.8845 67.1507 59.2307 63.8247 59.2307 60.8553C59.2307 57.886 52.8845 54.56 44.423 54.56Z" fill="#C5C5C0"/>
<path d="M44.423 83.9385C33.5711 83.9385 25.3845 79.4268 25.3845 73.4462V60.8554C25.3845 60.2989 25.6074 59.7651 26.0041 59.3716C26.4008 58.978 26.9389 58.757 27.4999 58.757C28.0609 58.757 28.599 58.978 28.9957 59.3716C29.3924 59.7651 29.6153 60.2989 29.6153 60.8554V73.4462C29.6153 76.4155 35.9614 79.7416 44.423 79.7416C52.8845 79.7416 59.2307 76.4155 59.2307 73.4462V60.8554C59.2307 60.2989 59.4536 59.7651 59.8503 59.3716C60.247 58.978 60.785 58.757 61.3461 58.757C61.9071 58.757 62.4452 58.978 62.8419 59.3716C63.2386 59.7651 63.4615 60.2989 63.4615 60.8554V73.4462C63.4615 79.4268 55.2749 83.9385 44.423 83.9385Z" fill="#C5C5C0"/>
<path d="M55 109.12C40.4178 109.105 26.4373 103.352 16.1261 93.1229C5.81497 82.8942 0.015399 69.0255 0 54.56C0 54.0035 0.22287 53.4697 0.619582 53.0762C1.01629 52.6826 1.55435 52.4615 2.11538 52.4615C2.67642 52.4615 3.21448 52.6826 3.61119 53.0762C4.0079 53.4697 4.23077 54.0035 4.23077 54.56C4.23024 66.3883 8.42437 77.8398 16.0787 86.9092C23.733 95.9786 34.3596 102.088 46.0977 104.167C57.8358 106.246 69.937 104.163 80.2824 98.2816C90.6278 92.4005 98.5579 83.0965 102.684 71.9989C106.81 60.9014 106.869 48.7176 102.851 37.5812C98.8326 26.4448 90.9931 17.0655 80.7053 11.0859C70.4174 5.10635 58.3369 2.90754 46.5792 4.87457C34.8216 6.84159 24.1362 12.8491 16.3942 21.845C16.011 22.1879 15.5145 22.3801 14.9983 22.3851C14.4822 22.3902 13.982 22.2079 13.5919 21.8726C13.2019 21.5372 12.9489 21.072 12.8806 20.5644C12.8123 20.0569 12.9334 19.5421 13.2212 19.117C19.2162 12.157 26.8803 6.80529 35.5076 3.55485C44.1349 0.304408 53.448 -0.740282 62.5891 0.516999C71.7302 1.77428 80.4055 5.29311 87.8159 10.7494C95.2262 16.2057 101.133 23.424 104.993 31.7394C108.853 40.0549 110.542 49.2002 109.904 58.3331C109.266 67.4659 106.321 76.2926 101.342 84.0002C96.3618 91.7079 89.5071 98.0486 81.4087 102.438C73.3103 106.828 64.2286 109.126 55 109.12Z" fill="#C5C5C0"/>
<path d="M31.7307 25.1815C31.6234 25.1893 31.5155 25.1893 31.4081 25.1815L14.4851 22.5585C13.9816 22.4814 13.5231 22.2268 13.1937 21.8413C12.8644 21.4558 12.6863 20.9653 12.6923 20.46V2.09846C12.6923 1.54192 12.9152 1.00816 13.3119 0.614625C13.7086 0.221087 14.2466 0 14.8077 0C15.3687 0 15.9068 0.221087 16.3035 0.614625C16.7002 1.00816 16.9231 1.54192 16.9231 2.09846V18.6816L32.0533 21.0109C32.5779 21.0939 33.0518 21.3696 33.3808 21.7833C33.7098 22.1969 33.8699 22.7183 33.8293 23.2437C33.7886 23.769 33.5502 24.26 33.1614 24.6191C32.7726 24.9781 32.2619 25.1789 31.7307 25.1815Z" fill="#C5C5C0"/>
</svg>
