<svg width="76" height="76" viewBox="0 0 76 76" fill="none" xmlns="http://www.w3.org/2000/svg">
<path d="M38 7C25.8707 7 16 16.3179 16 27.774C16 44.0517 35.932 60.8587 36.7802 61.5646C37.1298 61.8556 37.5649 62 38 62C38.4351 62 38.8702 61.8556 39.2198 61.5669C40.068 60.8588 60 44.0517 60 27.774C60 16.3179 50.1293 7 38 7ZM38 39.0833C31.2607 39.0833 25.7778 33.9431 25.7778 27.625C25.7778 21.3069 31.2607 16.1667 38 16.1667C44.7393 16.1667 50.2222 21.3069 50.2222 27.625C50.2222 33.9431 44.7393 39.0833 38 39.0833Z" fill="#FF4848"/>
<circle cx="37" cy="30" r="20" fill="#FF4848"/>
<path d="M54.3167 25.6084C54.1627 24.8316 53.9558 24.0671 53.6976 23.3207C53.2114 21.913 52.5571 20.5744 51.7501 19.3362C50.8094 17.8865 49.6719 16.5858 48.373 15.4746C46.9411 14.2683 45.3313 13.3101 43.6057 12.6369C41.8726 11.9484 40.0445 11.5533 38.191 11.4667C36.9173 11.4052 35.6409 11.4935 34.3862 11.73C33.3598 11.9201 32.3534 12.2121 31.3806 12.6018C30.3337 13.0133 29.3257 13.5245 28.3693 14.1289C27.2748 14.8258 26.2574 15.646 25.3356 16.5746C24.5403 17.3831 23.8256 18.273 23.2024 19.2309C22.7626 19.893 22.3658 20.585 22.0147 21.3021C21.3667 22.6185 20.8862 24.0169 20.5851 25.4621C20.4233 26.1918 20.3142 26.9331 20.2587 27.6797C20.1699 28.513 20.1435 29.3522 20.1799 30.1897C20.2494 31.4059 20.438 32.6116 20.7427 33.788C21.0088 34.9344 21.386 36.0499 21.8684 37.1172C22.6893 38.8948 23.7887 40.5181 25.1217 41.9209C25.9786 42.8216 26.9215 43.6293 27.9359 44.3314C29.5687 45.4374 31.3686 46.2503 33.2605 46.7362C34.6165 47.0923 36.01 47.2711 37.4087 47.2686C37.9715 47.2335 38.5344 47.2335 39.0972 47.1809C40.2962 47.0683 41.4797 46.8191 42.6263 46.4378C44.2274 45.9178 45.745 45.1526 47.1291 44.1676C48.1919 43.4252 49.1683 42.5574 50.039 41.5815C51.1033 40.4233 52.0086 39.1179 52.7295 37.7023C53.3566 36.4686 53.8367 35.1601 54.1591 33.8056C54.3798 32.8688 54.5341 31.9164 54.6206 30.9562C54.6966 29.9416 54.6966 28.9224 54.6206 27.9078C54.5756 27.1297 54.4743 26.369 54.3167 25.6084ZM44.8439 42.348C44.3488 42.8746 43.7952 43.3381 43.1948 43.7288C42.361 44.2883 41.4473 44.707 40.4875 44.9692C38.4018 45.5391 36.1984 45.433 34.1723 44.665C32.9293 44.1867 31.7921 43.4524 30.829 42.506C30.5194 42.2017 30.2661 41.8858 29.9509 41.5639C29.9003 41.5113 29.8496 41.4411 29.7764 41.3533C29.828 41.3373 29.8807 41.3255 29.934 41.3182C31.4988 41.3182 33.086 41.3182 34.6507 41.2831C34.9265 41.2831 35.2136 41.2831 35.4781 41.2831C35.7427 41.2831 35.7033 41.248 35.6864 40.9789C35.5794 40.9789 35.4612 40.9789 35.3599 40.9438C34.9258 40.9152 34.5136 40.7359 34.1892 40.4347C33.866 40.114 33.6745 39.6759 33.6545 39.2119C33.6396 38.8624 33.6509 38.5122 33.6883 38.1646C33.7004 38.116 33.7174 38.069 33.7389 38.0241L34.0147 38.1821C34.2398 38.3401 34.465 38.5039 34.6676 38.6619C35.211 39.0514 35.8443 39.2836 36.5025 39.3347C37.5111 39.4349 38.5242 39.1993 39.3955 38.6619C39.7444 38.4577 40.0582 38.1947 40.3242 37.8837C40.3435 37.862 40.3664 37.8441 40.3918 37.831C40.4024 37.8302 40.4127 37.8266 40.4216 37.8204C40.4304 37.8143 40.4376 37.8058 40.4424 37.7959C40.4663 37.8334 40.4834 37.875 40.4931 37.9188C40.6268 38.4972 40.6152 39.1017 40.4593 39.6741C40.382 39.9598 40.2328 40.2189 40.027 40.4246C39.8212 40.6303 39.5663 40.7752 39.2886 40.8443C39.0466 40.8969 38.8102 40.932 38.5513 40.9672C38.5175 41.0783 38.5513 41.1485 38.6695 41.2012C38.7402 41.2347 38.8169 41.2527 38.8946 41.2539C39.1535 41.2539 39.4124 41.2539 39.6488 41.2539L42.1817 41.289C42.9703 41.348 43.7618 41.3539 44.5513 41.3065C44.7257 41.3065 44.8777 41.2538 45.0522 41.2187C45.2267 41.1836 45.3111 41.1134 45.328 40.9496C45.4129 40.4984 45.6361 40.0879 45.964 39.7794C46.1433 39.6148 46.2593 39.3882 46.2905 39.1417C46.3077 38.9881 46.3077 38.833 46.2905 38.6794C46.2878 38.6338 46.2691 38.5907 46.238 38.5584C46.2069 38.5261 46.1655 38.5067 46.1216 38.5039C45.9126 38.4727 45.7195 38.3701 45.5727 38.2123C45.426 38.0544 45.3339 37.8503 45.3111 37.6321C45.2123 37.2092 45.1838 36.7719 45.2267 36.3391C45.2604 35.7891 45.2773 35.2449 45.2942 34.6774C45.2942 34.338 45.2942 34.0221 45.2604 33.6827C45.2604 33.0976 45.2267 32.5125 45.2267 31.9274C45.2418 31.6762 45.2814 31.4273 45.3449 31.1844C45.3616 31.0706 45.419 30.9677 45.5056 30.8961C45.5922 30.8245 45.7017 30.7895 45.812 30.7982C45.8627 30.7982 45.8965 30.7982 45.9471 30.7982C45.9978 30.7982 46.0878 30.7456 46.0878 30.6519C46.0903 30.6293 46.088 30.6063 46.0811 30.5846C46.0742 30.563 46.0629 30.5431 46.0479 30.5264C46.0329 30.5098 46.0147 30.4967 45.9944 30.488C45.974 30.4794 45.9522 30.4754 45.9302 30.4764C45.722 30.4764 45.5194 30.4764 45.2942 30.4764H44.3149C44.1066 30.4764 43.8983 30.4764 43.707 30.5115C43.6657 30.515 43.6256 30.527 43.5888 30.5466C43.555 30.5817 43.4875 30.6344 43.4875 30.6695C43.4937 30.6976 43.506 30.7239 43.5236 30.7462C43.5412 30.7685 43.5635 30.7863 43.5888 30.7982C43.6893 30.8412 43.7928 30.8764 43.8983 30.9035C43.9901 30.9158 44.0747 30.9612 44.1375 31.0318C44.2003 31.1024 44.2372 31.1937 44.2417 31.2897C44.2755 31.5588 44.3317 31.8221 44.3486 32.0913C44.3993 33.2029 44.3486 34.338 44.3486 35.4556C44.3486 36.2162 44.3486 36.9768 44.3092 37.7374V37.9013C44.3116 37.9197 44.3104 37.9385 44.3057 37.9565C44.301 37.9744 44.2929 37.9913 44.2819 38.006C44.2709 38.0207 44.2572 38.033 44.2416 38.0421C44.226 38.0512 44.2088 38.0571 44.191 38.0592C43.8892 38.1117 43.5848 38.1468 43.2792 38.1646C43.0034 38.1646 42.919 38.0768 42.9021 37.7901C42.882 37.5956 42.882 37.3995 42.9021 37.205C42.9612 36.0707 42.9612 34.934 42.9021 33.7997C42.8627 32.9163 42.8458 32.0445 42.8458 31.1434C42.8619 30.6578 42.9033 30.1734 42.9696 29.6924C42.9948 29.5202 43.059 29.3567 43.1568 29.2153C43.2547 29.0739 43.3834 28.9587 43.5325 28.8791C43.7091 28.7866 43.8994 28.7253 44.0953 28.6977C44.2312 28.6715 44.3684 28.654 44.5062 28.6451C44.5717 28.6351 44.6359 28.6174 44.6976 28.5924C44.9171 28.5222 44.9734 28.4169 44.8833 28.1477C44.5738 28.1477 44.2642 28.1126 43.9546 28.1126H40.0091C39.7333 28.1126 39.4462 28.1126 39.1817 28.1126C39.0413 28.1128 38.9015 28.1305 38.7652 28.1653C38.6132 28.2062 38.5794 28.2589 38.5794 28.3993C38.5794 28.5397 38.647 28.5924 38.7652 28.61C39.0241 28.6626 39.2661 28.6977 39.525 28.7328C39.5927 28.7535 39.6627 28.7653 39.7333 28.7679C39.8811 28.7855 40.0211 28.8466 40.1368 28.9441C40.2524 29.0415 40.3389 29.1712 40.3862 29.3179C40.4933 29.5833 40.5525 29.8669 40.5606 30.1546C40.5952 30.7149 40.5764 31.2774 40.5044 31.8338C40.5044 31.8338 40.5044 31.8689 40.4706 31.904C40.4368 31.9391 40.3862 31.8689 40.3693 31.8338C39.9051 31.2335 39.2543 30.8198 38.5288 30.6636C37.5505 30.4003 36.5239 30.4003 35.5457 30.6636C35.0314 30.8008 34.5502 31.0479 34.1329 31.3892C34.0316 31.4828 33.9472 31.5881 33.8064 31.711C33.778 31.6505 33.7608 31.585 33.7558 31.5179C33.7558 31.0908 33.7051 30.6812 33.7051 30.2599C33.7167 29.9897 33.7621 29.7222 33.8402 29.4642C33.8889 29.3085 33.9653 29.1636 34.0654 29.0371C34.1848 28.8799 34.3584 28.7771 34.5494 28.7504L35.495 28.5749C35.5963 28.5749 35.7033 28.5397 35.7033 28.3993C35.7172 28.335 35.7068 28.2676 35.6743 28.211C35.6419 28.1544 35.5898 28.1129 35.5288 28.0951C35.3845 28.0474 35.2352 28.0179 35.0841 28.0073C34.5377 27.981 33.9901 27.9986 33.4462 28.06C33.2799 28.0804 33.1127 28.0921 32.9453 28.0951C32.1573 28.0951 31.3637 28.0951 30.5701 28.1302C30.3655 28.1504 30.1592 28.1203 29.9678 28.0424C30.0185 27.9722 30.0522 27.902 30.086 27.8669C30.7813 27.0559 31.5895 26.3577 32.4838 25.7957C33.6029 25.1029 34.8422 24.6456 36.131 24.4499C36.7889 24.3165 37.4593 24.2616 38.1291 24.2861C38.9825 24.3228 39.828 24.4722 40.6451 24.7308C41.3758 24.9795 42.0839 25.2948 42.7614 25.6728C43.7167 26.2168 44.5691 26.9364 45.2773 27.7967C45.8874 28.538 46.4177 29.3463 46.8589 30.2073C47.2733 31.0098 47.5584 31.8775 47.7032 32.7758C47.8881 33.8155 47.9354 34.8765 47.8439 35.9295C47.7082 37.5489 47.1732 39.1046 46.2905 40.4464C45.8935 41.1456 45.4069 41.7853 44.8439 42.348ZM31.3637 31.4535C31.3637 32.2141 31.3975 32.9748 31.3975 33.7354C31.3975 34.496 31.3975 35.2274 31.3637 35.988C31.3599 36.094 31.3486 36.1996 31.3299 36.304C30.5956 36.3654 29.8578 36.3654 29.1235 36.304C29.1364 36.2328 29.1533 36.1624 29.1742 36.0933C29.6245 34.8354 30.0691 33.5599 30.5194 32.3019C30.6084 32.0538 30.7118 31.8115 30.829 31.5764C30.8826 31.4695 30.953 31.3726 31.0372 31.2897C31.0709 31.2558 31.1132 31.2328 31.1592 31.2235C31.2051 31.2141 31.2527 31.2188 31.2961 31.237C31.3806 31.2721 31.3637 31.3599 31.3637 31.4535ZM31.1723 30.4237L30.193 30.3184C30.0354 30.3184 29.8834 30.2482 29.7258 30.2307C29.5682 30.2131 29.5232 30.2307 29.5006 30.4062V30.5817C29.5039 30.6305 29.5228 30.6767 29.5545 30.7128C29.5862 30.7489 29.6287 30.7728 29.6751 30.7807C29.7164 30.7842 29.7565 30.7961 29.7933 30.8158C29.8592 30.8351 29.917 30.8767 29.9577 30.9338C29.9985 30.991 30.0198 31.0606 30.0185 31.1317C30.0273 31.3095 29.9925 31.4867 29.9172 31.6466C29.4575 32.5965 29.0807 33.5873 28.7915 34.6072C28.5832 35.2274 28.3243 35.8476 28.0879 36.4619C28.0674 36.5376 28.0324 36.6083 27.985 36.6696C27.9376 36.7309 27.8788 36.7817 27.8121 36.8188C27.8121 36.7662 27.7558 36.7311 27.7558 36.6784C27.5802 35.6963 27.548 34.6924 27.6601 33.7003C27.7427 33.0292 27.8763 32.3659 28.0598 31.7168C28.3304 30.8207 28.7086 29.9636 29.1855 29.1658C29.2924 28.9903 29.4106 28.8323 29.5119 28.6509C29.5445 28.6003 29.5879 28.5582 29.6386 28.5278C29.6893 28.4973 29.7461 28.4794 29.8046 28.4754C30.1508 28.4375 30.499 28.5244 30.791 28.7214C31.083 28.9184 31.301 29.2137 31.4087 29.5578C31.4595 29.7671 31.4595 29.9862 31.4087 30.1956C31.3637 30.4062 31.3299 30.4413 31.1723 30.4237ZM28.5044 37.4449C28.5044 37.4449 28.5382 37.4098 28.5382 37.3922C28.6134 37.2696 28.7188 37.1702 28.8436 37.1043C28.9683 37.0385 29.1077 37.0086 29.2474 37.0178C29.6045 37.0148 29.9606 36.9776 30.3112 36.9066C30.5513 36.8628 30.797 36.8628 31.0372 36.9066C31.3468 36.9593 31.3975 37.0295 31.4143 37.3513V38.4688C31.4143 38.8199 31.4143 39.1768 31.4143 39.5278C31.3918 39.7492 31.3523 39.9683 31.2961 40.1831C31.2467 40.337 31.1418 40.465 31.0035 40.54C30.6307 40.7478 30.2276 40.8902 29.8102 40.9613C29.7265 40.9834 29.638 40.9744 29.5599 40.936C29.4818 40.8975 29.4191 40.832 29.3824 40.7507C29.2249 40.4874 29.056 40.2182 28.9153 39.9374C28.7295 39.5629 28.5551 39.1768 28.3862 38.7672C28.2808 38.5575 28.2359 38.3206 28.2568 38.085C28.2778 37.8494 28.3638 37.6251 28.5044 37.439V37.4449ZM33.9809 35.1396C35.3768 35.1396 36.7502 35.087 38.146 35.087C38.8552 35.087 39.5588 35.1221 40.268 35.1396C40.3186 35.1396 40.3862 35.1396 40.4537 35.1396C40.4832 35.403 40.4602 35.6699 40.3862 35.9236C40.2818 36.3786 40.074 36.801 39.7802 37.1553C39.4864 37.5095 39.1152 37.7854 38.6976 37.9598C37.7854 38.3867 36.7511 38.4369 35.8046 38.1002C35.4161 37.9891 35.0559 37.7905 34.7495 37.5185C34.4431 37.2465 34.198 36.9078 34.0316 36.5263C33.8374 36.0934 33.754 35.6158 33.7896 35.1396C33.8571 35.1513 33.9303 35.1338 33.9809 35.1338V35.1396ZM33.8571 34.0455C33.8851 33.7685 33.9554 33.4979 34.0654 33.2439C34.2897 32.7432 34.6344 32.311 35.0662 31.9892C35.4981 31.6674 36.0024 31.4668 36.5306 31.4067C37.2307 31.2836 37.9502 31.3814 38.5963 31.6876C39.2368 31.9798 39.7683 32.481 40.1104 33.1152C40.2222 33.3322 40.3037 33.5647 40.3524 33.8056C40.403 34.0572 40.3524 34.1274 40.0935 34.145C39.8346 34.1625 39.7333 34.145 39.5306 34.145C38.4049 34.0747 37.2061 34.145 36.0353 34.1098L34.0541 34.0572C33.988 34.0662 33.9208 34.0602 33.8571 34.0396V34.0455ZM44.7089 40.6278V40.7858C44.6751 40.7858 44.6582 40.8209 44.6413 40.8209C44.1405 40.8595 43.6446 40.696 43.2567 40.3645C43.1358 40.2494 43.0454 40.1039 42.9942 39.942C42.9429 39.7802 42.9325 39.6073 42.964 39.4401C42.964 39.2821 43.0147 39.247 43.1723 39.2294C43.6628 39.156 44.1629 39.198 44.6357 39.3523C44.7416 39.399 44.8449 39.4517 44.9452 39.5103C44.9658 39.5221 44.9836 39.5383 44.9976 39.558C45.0115 39.5776 45.0212 39.6001 45.026 39.624C45.0308 39.6479 45.0306 39.6726 45.0254 39.6963C45.0202 39.7201 45.0102 39.7425 44.9959 39.7619C44.9828 39.7933 44.9658 39.8228 44.9452 39.8496C44.7967 40.0803 44.7147 40.3503 44.7089 40.6278ZM43.1385 18.3415C42.5323 17.9506 41.8125 17.7951 41.1066 17.9027C40.8474 17.945 40.5993 18.0422 40.3776 18.1881C40.1559 18.334 39.9653 18.5256 39.8177 18.7511C39.6573 18.995 39.5782 19.2869 39.5925 19.5819V19.9915C39.407 20.0277 39.2185 20.0453 39.0297 20.0442C38.6357 20.0442 38.2417 20.0442 37.859 20.0091C37.6226 20.0091 37.5832 19.9389 37.5832 19.6873C37.5686 19.4259 37.628 19.1658 37.754 18.9391C37.88 18.7124 38.0672 18.5291 38.2924 18.4118C38.343 18.4118 38.3768 18.3591 38.4274 18.3415C38.4805 18.3216 38.5244 18.2816 38.5504 18.2296C38.5765 18.1776 38.5828 18.1173 38.5682 18.0607C38.5675 18.0335 38.5615 18.0068 38.5505 17.9821C38.5395 17.9575 38.5237 17.9354 38.5042 17.9173C38.4847 17.8992 38.4618 17.8855 38.437 17.8769C38.4122 17.8684 38.386 17.8652 38.3599 17.8676C38.1733 17.8384 37.9836 17.8384 37.7971 17.8676C37.4706 17.9203 37.161 18.008 36.8346 18.0783C36.5973 18.1483 36.3458 18.1483 36.1085 18.0783C35.8344 17.9885 35.5392 17.9975 35.2706 18.1036C35.002 18.2098 34.7757 18.407 34.6282 18.6633C34.4726 18.9533 34.4132 19.2885 34.4594 19.6171C34.4931 19.8511 34.4931 19.8511 34.2849 19.8862C33.665 20.0045 33.0249 19.9101 32.4612 19.6171C32.19 19.4713 31.9629 19.2505 31.805 18.9789C31.647 18.7073 31.5644 18.3956 31.5663 18.0783C31.5361 17.6963 31.6227 17.3142 31.8137 16.9864C32.0047 16.6585 32.2904 16.4018 32.6301 16.2528C33.1958 15.9621 33.8015 15.7647 34.4256 15.6677C35.6005 15.4921 36.7923 15.4744 37.9715 15.615C38.5142 15.6703 39.0499 15.7841 39.57 15.9544C40.0374 16.1195 40.475 16.3647 40.8646 16.6799C41.1742 16.9256 41.5006 17.1597 41.8102 17.3878C42.1404 17.6274 42.5332 17.7561 42.9359 17.7565C43.5888 17.7565 44.2473 17.815 44.9002 17.8501C45.1028 17.8501 45.2942 17.9027 45.5025 17.9378C45.7107 17.9729 45.7614 18.1134 45.6207 18.2713C45.5083 18.4205 45.382 18.5577 45.2436 18.6809L44.3824 19.4591C43.9852 19.7629 43.5124 19.9416 43.0203 19.974C42.8096 20.0091 42.5949 20.0091 42.3843 19.974C42.1591 19.9213 42.1085 19.7633 42.2267 19.5644C42.3755 19.375 42.5696 19.2297 42.7895 19.1431C42.9134 19.0846 43.0316 19.0144 43.1329 18.9617C43.1873 18.9324 43.233 18.8882 43.2652 18.8339C43.2973 18.7795 43.3145 18.7172 43.3151 18.6534C43.3157 18.5897 43.2996 18.5269 43.2684 18.472C43.2373 18.4171 43.1924 18.372 43.1385 18.3415ZM42.0747 18.6107C42.0747 18.6809 42.0747 18.7336 42.0409 18.7687C41.7859 19.2335 41.5964 19.734 41.4781 20.2548C41.3712 20.6117 41.253 20.9628 41.1348 21.3197C41.106 21.3513 41.0814 21.3867 41.0616 21.425C40.9772 21.3021 40.8927 21.1968 40.8196 21.0915C40.5856 20.7525 40.3963 20.3826 40.2567 19.9915C40.22 19.869 40.1918 19.7438 40.1723 19.6171C40.1317 19.4113 40.167 19.1971 40.2713 19.0172C40.3756 18.8373 40.5412 18.7047 40.7351 18.6458C41.0067 18.5718 41.2878 18.5422 41.5681 18.558C41.7351 18.5919 41.9047 18.6095 42.0747 18.6107ZM37.0653 18.9091C37.0259 19.3889 36.9922 19.8862 36.9415 20.3601C36.9114 20.6625 36.8172 20.9543 36.6657 21.2144C36.6361 21.2643 36.6022 21.3113 36.5644 21.3548C36.5457 21.3748 36.5227 21.3901 36.4973 21.3994C36.4719 21.4087 36.4448 21.4117 36.4181 21.4083C36.3914 21.4049 36.3658 21.3952 36.3434 21.3798C36.3209 21.3644 36.3022 21.3438 36.2886 21.3197C36.0727 20.9025 35.7997 20.5202 35.4781 20.1846C35.2798 19.9589 35.154 19.6747 35.1179 19.3713C35.1179 19.3187 35.1179 19.2835 35.1179 19.2309C35.1179 18.874 35.2023 18.7687 35.5288 18.716C35.7761 18.6985 36.0244 18.6985 36.2717 18.716H36.874C37.0653 18.6985 37.0653 18.7336 37.0653 18.9091ZM32.2586 21.2495C32.3066 21.0686 32.3649 20.8908 32.4331 20.717C32.468 20.6067 32.5373 20.5116 32.6301 20.4469C32.7229 20.3823 32.8339 20.3517 32.9453 20.3601C33.2717 20.3601 33.6038 20.4186 33.9303 20.4362C34.2567 20.4537 34.4931 20.4888 34.8252 20.4888C34.8952 20.4867 34.9648 20.4996 35.0297 20.5268C35.0946 20.554 35.1534 20.5948 35.2023 20.6468C35.3927 20.8523 35.5453 21.0922 35.6526 21.3548C35.7539 21.5654 35.8383 21.7995 35.9453 22.0101C36.0175 22.1494 36.1106 22.2758 36.2211 22.3846C36.2486 22.4179 36.2826 22.4447 36.321 22.4631C36.3594 22.4814 36.4012 22.4909 36.4434 22.4909C36.4856 22.4909 36.5274 22.4814 36.5658 22.4631C36.6042 22.4447 36.6383 22.4179 36.6657 22.3846C36.7882 22.2559 36.8874 22.1052 36.9584 21.9399C37.1329 21.5654 37.3017 21.1968 37.4593 20.8223C37.481 20.7575 37.5238 20.7027 37.5804 20.6674C37.637 20.6321 37.7037 20.6186 37.7689 20.6293C38.146 20.6293 38.5456 20.5942 38.8946 20.5942C39.1421 20.5911 39.3891 20.6147 39.6319 20.6644C39.752 20.6828 39.866 20.7313 39.9641 20.8057C40.0622 20.8801 40.1413 20.9782 40.1948 21.0915C40.3186 21.3548 40.4199 21.6181 40.5212 21.8872C40.5944 22.0627 40.6451 22.2558 40.7126 22.4372C40.7293 22.5098 40.7643 22.5764 40.8139 22.6303C40.8421 22.675 40.8805 22.7116 40.9257 22.737C40.9709 22.7624 41.0215 22.7757 41.0728 22.7757C41.1242 22.7757 41.1748 22.7624 41.22 22.737C41.2652 22.7116 41.3036 22.675 41.3318 22.6303C41.4075 22.5216 41.4664 22.4011 41.5062 22.2734C41.5907 22.0276 41.6413 21.7643 41.7145 21.5128C41.7614 21.3265 41.8178 21.1429 41.8833 20.9628C41.9176 20.875 41.9719 20.7972 42.0415 20.736C42.1111 20.6749 42.194 20.6322 42.283 20.6117C42.7005 20.5123 43.133 20.5004 43.555 20.5766C43.624 20.5817 43.6901 20.6077 43.7452 20.6513C43.8002 20.695 43.8417 20.7544 43.8646 20.8223C43.949 21.0564 44.0222 21.3021 44.0897 21.5479C44.3149 22.3846 44.5513 23.1978 44.7595 24.0287C44.8608 24.4382 44.9509 24.8419 45.0353 25.2515C45.0439 25.3156 45.0439 25.3805 45.0353 25.4446L44.5681 25.076C43.8685 24.5402 43.0991 24.1107 42.283 23.8005C41.5089 23.4785 40.7028 23.247 39.8796 23.1101C38.8658 22.9065 37.8303 22.8455 36.8008 22.9287C36.1277 22.9914 35.4599 23.1048 34.8027 23.268C33.8265 23.5508 32.8829 23.9432 31.9884 24.4382C31.6796 24.6024 31.3807 24.786 31.0935 24.9882C31.0376 25.022 30.9792 25.0514 30.919 25.076C30.919 24.9882 30.919 24.9356 30.919 24.8771C31.1978 23.8442 31.5612 22.838 32.0053 21.8697C32.1169 21.6761 32.2022 21.4674 32.2586 21.2495ZM53.0447 30.1429C52.9965 31.1937 52.8456 32.2366 52.5944 33.2556C52.2864 34.5318 51.829 35.7638 51.2323 36.9242C50.6516 38.0504 49.947 39.1029 49.1328 40.0603C48.5001 40.7923 47.8091 41.4675 47.0672 42.0788L46.6563 42.4006C46.6563 42.4006 46.6169 42.4006 46.6169 42.3655C46.6169 42.3304 46.707 42.2193 46.7576 42.1666C47.3969 41.3557 47.9236 40.4557 48.3223 39.4927C48.6474 38.6646 48.9292 37.8189 49.1666 36.9593C49.2951 36.4995 49.3539 36.0219 49.3411 35.5433C49.3779 34.0283 49.1627 32.518 48.7051 31.0791C48.4929 30.3127 48.2043 29.5714 47.8439 28.8674C47.5962 28.3746 47.2815 27.9214 46.9096 27.5217C46.7576 27.3403 46.6 27.1648 46.4312 26.9892C46.189 26.7408 46.0109 26.4329 45.9133 26.0941C45.6544 25.2106 45.3955 24.3388 45.1366 23.4202C44.8777 22.5016 44.5738 21.4894 44.3149 20.4947C44.2993 20.4606 44.2861 20.4254 44.2755 20.3894C44.2248 20.2782 44.2755 20.208 44.3655 20.1378C44.692 19.9096 45.0353 19.658 45.3449 19.3947C45.7358 19.1016 46.0636 18.727 46.3073 18.2947C46.4134 18.1198 46.4682 17.9164 46.4649 17.7096C46.4731 17.6353 46.457 17.5603 46.4193 17.4966C46.3815 17.433 46.3242 17.3843 46.2567 17.3586C46.1002 17.3014 45.9404 17.2545 45.7783 17.2182C45.2557 17.1743 44.7305 17.1743 44.2079 17.2182C43.8308 17.2182 43.4537 17.2182 43.0822 17.1655C42.8107 17.1384 42.5536 17.0262 42.3449 16.8437C41.9284 16.5453 41.5344 16.2586 41.1404 15.9251C40.7653 15.6336 40.3359 15.4264 39.8796 15.3166C38.3348 14.9058 36.7374 14.7498 35.146 14.8544C34.4324 14.886 33.7262 15.0179 33.0466 15.2464C32.6346 15.3767 32.2452 15.5742 31.8928 15.8315C31.6664 16.0087 31.4769 16.2318 31.3356 16.4872C31.1944 16.7426 31.1044 17.0251 31.071 17.3176C30.995 17.7845 31.0257 18.2635 31.1606 18.7158C31.2955 19.1681 31.5309 19.581 31.8477 19.9213C31.887 19.958 31.9134 20.0073 31.9226 20.0614C31.9317 20.1155 31.9232 20.1712 31.8984 20.2197C31.454 21.2548 31.0778 22.3202 30.7727 23.4085C30.5338 24.2117 30.2346 24.9943 29.8778 25.7488C29.688 26.1126 29.4636 26.4556 29.208 26.7728C28.0297 28.1348 27.1689 29.7604 26.692 31.5237C26.3328 32.8547 26.2051 34.2417 26.3149 35.6194C26.3954 36.7396 26.6265 37.8425 27.0016 38.8959C27.4306 40.1 28.0529 41.2198 28.8421 42.2076C29.1476 42.6121 29.4887 42.9862 29.8609 43.3251C29.9088 43.3633 29.949 43.411 29.9791 43.4655C29.9791 43.4655 29.9791 43.4655 29.9791 43.5006C29.8946 43.448 29.7877 43.4128 29.7033 43.3602C28.9162 42.862 28.1639 42.3067 27.4519 41.6985C24.4115 39.1403 22.4164 35.4796 21.8684 31.4535C21.7165 30.13 21.7165 28.7925 21.8684 27.469C22.1722 24.5801 23.2224 21.8304 24.9078 19.5117C26.2726 17.6306 28.017 16.0829 30.0185 14.9773C31.3604 14.2297 32.7993 13.6877 34.2905 13.3682C35.2529 13.1591 36.2341 13.0571 37.2173 13.064C37.8731 13.0582 38.5288 13.0875 39.1817 13.1518C40.8787 13.3508 42.5319 13.8432 44.0728 14.6086C47.2203 16.1506 49.7917 18.727 51.3899 21.9399C52.0105 23.1792 52.4614 24.5026 52.7295 25.8717C53.0085 27.2758 53.1144 28.711 53.0447 30.1429Z" fill="white"/>
</svg>
