<svg width="109" height="109" viewBox="0 0 109 109" fill="none" xmlns="http://www.w3.org/2000/svg">
<g clip-path="url(#clip0)">
<path d="M29.5209 95.375H20.4376C19.1841 95.375 18.1667 94.3577 18.1667 93.1042C18.1667 91.8507 19.1841 90.8334 20.4376 90.8334H29.5209C30.7744 90.8334 31.7917 91.8507 31.7917 93.1042C31.7917 94.3577 30.7744 95.375 29.5209 95.375Z" fill="#C5C5C0"/>
<path d="M52.2292 95.375H47.6875C46.434 95.375 45.4167 94.3577 45.4167 93.1042C45.4167 91.8507 46.434 90.8333 47.6875 90.8333H49.9583V20.4375C49.9583 19.1885 48.941 18.1667 47.6875 18.1667H2.27083C1.01733 18.1667 0 17.1493 0 15.8958C0 14.6423 1.01733 13.625 2.27083 13.625H47.6875C51.4435 13.625 54.5 16.6815 54.5 20.4375V93.1042C54.5 94.3577 53.4827 95.375 52.2292 95.375Z" fill="#C5C5C0"/>
<path d="M102.187 95.375H93.1041C91.8506 95.375 90.8332 94.3577 90.8332 93.1042C90.8332 91.8507 91.8506 90.8333 93.1041 90.8333H102.187C103.441 90.8333 104.458 89.8115 104.458 88.5625V45.4167H68.1249V90.8333H74.9374C76.1909 90.8333 77.2082 91.8507 77.2082 93.1042C77.2082 94.3577 76.1909 95.375 74.9374 95.375H65.8541C64.6006 95.375 63.5833 94.3577 63.5833 93.1042V43.1458C63.5833 41.8923 64.6006 40.875 65.8541 40.875H106.729C107.983 40.875 109 41.8923 109 43.1458V88.5625C109 92.3185 105.943 95.375 102.187 95.375Z" fill="#C5C5C0"/>
<path d="M34.0626 72.6667C32.8091 72.6667 31.7917 71.6493 31.7917 70.3958V29.5208C31.7917 28.2673 32.8091 27.25 34.0626 27.25C35.3161 27.25 36.3334 28.2673 36.3334 29.5208V70.3958C36.3334 71.6493 35.3161 72.6667 34.0626 72.6667Z" fill="#C5C5C0"/>
<path d="M11.3541 72.6667C10.1006 72.6667 9.08325 71.6493 9.08325 70.3958V29.5208C9.08325 28.2673 10.1006 27.25 11.3541 27.25C12.6076 27.25 13.6249 28.2673 13.6249 29.5208V70.3958C13.6249 71.6493 12.6076 72.6667 11.3541 72.6667Z" fill="#C5C5C0"/>
<path d="M84.0209 104.458C77.7625 104.458 72.6667 99.3671 72.6667 93.1042C72.6667 86.8412 77.7625 81.75 84.0209 81.75C90.2793 81.75 95.3751 86.8412 95.3751 93.1042C95.3751 99.3671 90.2793 104.458 84.0209 104.458ZM84.0209 86.2917C80.265 86.2917 77.2084 89.3482 77.2084 93.1042C77.2084 96.8601 80.265 99.9167 84.0209 99.9167C87.7769 99.9167 90.8334 96.8601 90.8334 93.1042C90.8334 89.3482 87.7769 86.2917 84.0209 86.2917Z" fill="#C5C5C0"/>
<path d="M38.6042 104.458C32.3458 104.458 27.25 99.3671 27.25 93.1042C27.25 86.8412 32.3458 81.75 38.6042 81.75C44.8626 81.75 49.9583 86.8412 49.9583 93.1042C49.9583 99.3671 44.8626 104.458 38.6042 104.458ZM38.6042 86.2917C34.8482 86.2917 31.7917 89.3482 31.7917 93.1042C31.7917 96.8601 34.8482 99.9167 38.6042 99.9167C42.3601 99.9167 45.4167 96.8601 45.4167 93.1042C45.4167 89.3482 42.3601 86.2917 38.6042 86.2917Z" fill="#C5C5C0"/>
<path d="M11.3542 104.458C5.09575 104.458 0 99.3671 0 93.1042C0 86.8412 5.09575 81.75 11.3542 81.75C17.6126 81.75 22.7083 86.8412 22.7083 93.1042C22.7083 99.3671 17.6126 104.458 11.3542 104.458ZM11.3542 86.2917C7.59821 86.2917 4.54167 89.3482 4.54167 93.1042C4.54167 96.8601 7.59821 99.9167 11.3542 99.9167C15.1101 99.9167 18.1667 96.8601 18.1667 93.1042C18.1667 89.3482 15.1101 86.2917 11.3542 86.2917Z" fill="#C5C5C0"/>
<path d="M97.6457 45.4167C96.3922 45.4167 95.3749 44.3993 95.3749 43.1458C95.3749 29.3755 84.1706 18.1667 70.3958 18.1667H68.1249V43.1458C68.1249 44.3993 67.1076 45.4167 65.8541 45.4167C64.6006 45.4167 63.5833 44.3993 63.5833 43.1458V15.8958C63.5833 14.6423 64.6006 13.625 65.8541 13.625H70.3958C86.6731 13.625 99.9166 26.8685 99.9166 43.1458C99.9166 44.3993 98.8992 45.4167 97.6457 45.4167Z" fill="#C5C5C0"/>
<path d="M106.729 72.6667H79.4791C78.2256 72.6667 77.2083 71.6493 77.2083 70.3958V56.7708C77.2083 55.5173 78.2256 54.5 79.4791 54.5H106.729C107.983 54.5 109 55.5173 109 56.7708C109 58.0243 107.983 59.0417 106.729 59.0417H81.7499V68.125H106.729C107.983 68.125 109 69.1423 109 70.3958C109 71.6493 107.983 72.6667 106.729 72.6667Z" fill="#C5C5C0"/>
<path d="M65.8541 95.375H52.2291C50.9756 95.375 49.9583 94.3577 49.9583 93.1042C49.9583 91.8507 50.9756 90.8334 52.2291 90.8334H65.8541C67.1076 90.8334 68.1249 91.8507 68.1249 93.1042C68.1249 94.3577 67.1076 95.375 65.8541 95.375Z" fill="#C5C5C0"/>
</g>
<defs>
<clipPath id="clip0">
<rect width="109" height="109" fill="white"/>
</clipPath>
</defs>
</svg>
